<svg id="Capa_1" xmlns="http://www.w3.org/2000/svg" viewBox="0 0 141.5 60"><style>.st0{fill:#FFFFFF;} .st1{fill:#014189;}</style><g id="XMLID_699_"><path id="XMLID_948_" class="st0" d="M25.8.4C11.8.4.4 13.7.4 30s11.4 29.6 25.4 29.6c14 0 25.4-13.3 25.4-29.6C51.3 13.7 39.8.4 25.8.4z"/><path id="XMLID_773_" class="st1" d="M11.4 16c.3-.1.7-.1 1-.2v2.1c0 .3 0 .3.3.3v.2h-1.3v-.2c.3 0 .3 0 .3-.3v-1.5c0-.2 0-.2-.1-.2h-.2V16zm25.3-.2c0 .2 0 .4-.1.7h.2c.1-.2.1-.2.4-.2h.8c-.4.7-.8 1.3-1.2 2v.1h.6c.3-.8.7-1.6 1.1-2.4v-.1h-1.8zm2.2 0l-.2 1.3c.1 0 .2-.1.4-.1.3 0 .5.2.5.6 0 .3-.1.5-.3.5-.2 0-.4-.2-.5-.3h-.2c-.1.1-.1.1-.1.2s0 .1.1.2.3.2.5.2.5-.1.7-.2c.3-.2.4-.5.4-.7 0-.3-.3-.7-.8-.7-.2 0-.3.1-.5.1l.1-.5h1l.1-.5h-1.2zm-25.5 0l-.2 1.3c.1 0 .2-.1.4-.1.3 0 .5.2.5.6 0 .3-.1.5-.3.5-.2 0-.4-.2-.5-.3h-.2c-.1.1-.1.1-.1.2s0 .1.1.2.3.2.5.2.5-.1.7-.2c.3-.2.4-.5.4-.7 0-.3-.3-.7-.8-.7-.2 0-.3.1-.5.1l.1-.5h1l.1-.5h-1.2zM51.3 30c0 16.3-11.4 29.6-25.4 29.6C11.9 59.6.5 46.3.5 30S11.9.4 25.9.4C39.8.4 51.3 13.7 51.3 30zm.3 0C51.6 13.5 40 0 25.8 0 11.6 0 0 13.5 0 30s11.6 30 25.8 30c14.3 0 25.8-13.5 25.8-30zM24.9 11.9c.1.1.3.2.4.2.2-.1.3-.2.4-.3h-.3c-.1 0-.1.1-.2.1-.1-.1-.2-.1-.3 0m.1-.5c-.1 0-.2.1-.1.2.1 0 .1-.1.2 0h.4c.1 0 .1-.1 0-.1h-.2c-.1.1 0 0-.1 0-.1-.1-.1-.1-.2-.1m.4-.9zm.7-.3c-.3 0-.7.1-.8.2v.1h.1c0 .1.1.2.2.1.1 0 .2-.1.1-.2 0-.1 0-.1-.1-.1.1 0 .2-.1.4-.1.2.1.2.1.1 0 .1 0 0 0 0 0m-1.1-.1c.4-.2.9-.5 1.5-.5s.7.4.7.4c.2-.2.1-.7-.6-.7-1 .1-1.4.6-1.6.8m.7 14.5c-1.1-.1-1.3-.9-1.3-1.2 0-.3.3-.1-.2-.4-.9-.5-1.6-.1-1.6-.1l.1.1c.8 0 1.1.3 1.1.3-.1 2 1.2 1.9 1.2 1.9.2.4.6.5.9.5.1 0 .2-.1.4-.1-.5-.3-.6-1-.6-1m3.3.4s.5-.2.6-.2c.1-.3.3-.4.4-.5.1 0 .1-.1.1-.2 0-.3 0-.4-.2-.6-.6-.8-.7-1.6-.7-1.7 0-.1-.1 0-.1 0s.4 1.8-.3 1.8c0 0 .1.9-.8 1-.1 0-.2.1-.1.1 0 .1-.1.4-.1.5.4-.1.9-.1 1.2-.2.1 0 0 0 0 0m.1-4c.1 0 .3-.1.6-.1.4 0 .5.3.5.3l.1.4s.4.2.5 0c.1-.2.1-.3-.1-.5-.3-.3-.4-.4-.9-.4-.4-.1-.7.2-.7.3m-8.7-2.5c-.4.3-.6 1-.6 2 0 1.4.7 1.5 1.3.8.4-.6.6-1.2.5-1.1-.3.1-.9.1-1.1-.2-.4-.5-.1-1.1 0-1.4l-.1-.1m8.2 22.1c-.6-.4-1.3-1.1-1.8-1.9-1.3-2.1-1.5-3.9-1.5-8.8v-.6l-.7-.1s-.2 5.1-.2 5.7c0 .8.2 1.5.3 0 .1-.7-.1-3 .1-3 .3 0 .3 8.8 0 8.8-.6 0-.7-.1-1.6-.1-.3-.3-1.1-.3-1.2-.3 0 0 .3.2.6.3L13.3 43l-.6-.3-3.8 1.6 4.2-.4.2-.6 9.5-2.5.8.4c.1.1 1.3-.1 1.3.4 0 .2-.3.4-.7.6-.3.1-.8 0-.8.1s.8.2 1.1.1c.3-.1 1.2-.4 1.8-1 0 0 2-.1 2.3-.6.1-.1 0-.1 0-.2m-15.7 2.9l-2.5.4 2.6-.7-.1.3zm.8-16.2s1.2.2 1.3-.5c0-.3-.2-.4-.3-.4-.2 0-.3.2-.1.4-.1.1.1.4-.9.5m-1-.6c0 .1.1.2.1.2.1 0 .1-.1.1-.2v-.1h.1s.1 0 .1-.1c0 0 0-.1-.1-.1h-.5s-.1 0-.1.1h.1l.2.2m3.6 4.8c.1-.3.7-.3 1 .1 0 0-.5 0-.6.1 0 0 .6.2.5.6 0 0-.2-.3-.5-.3 0 0 .2.6-.2.7 0 0-.1-.5-.4-.5-.3 0-.3.3-.3.4 0 0-.2-.1-.2-.5 0-.2-.1-.2-.2-.3-.1 0-.8-.1-1.7-1.1 0 0-.6.3-1.3.4 0 0-.2.2.1.2.2 0 1.1 0 1.7.9.1.1.3.3.7.3 0 0 0 .5-.9.6 0 0 .6.4.9.7.2.1.2 0 .3 0 .1-.1.8-.5 1 .1 0 0-.4-.1-.5 0 0 0 .4.4.3.8 0 0-.3-.3-.5-.3-.1 0 .2.4-.2.6 0 0 0-.5-.4-.5 0 0 .1.3-.3.4 0 0 .2-.6-.2-.7-.1 0-1.9-.2-2.2-1 0 0 .3-.1.5-.2 0 0-1.1-.8-1.2-1.3 0 0-.2-.1-.1.1.1.1.3.3.2 1.3 0 .3.1.6.4.7 0 0-.6.2-1.2-.5 0 0 0 1.4.8 1.5.3 0 1 0 1 .8 0 0-.3-.4-.6-.3 0 0 .2.3.1.5 0 0-.3-.4-.5-.3 0 0 .1.3 0 .4 0 0-.3-.6-.4-.6-.1 0-.3.3-.3.6 0 0-.4-.1-.2-.5.1-.2.2-.2.2-.3.1-.1-2.1-.9-1.8-2.5 0 0 .3.3.6.1.2-.2.1-.7-.4-1.1 0 0 .4-.1.6-.2.1 0 .1-.2.1-.4-.2 0-.7 0-.9-.3-.2-.2-.3-.5-.2-.9.1-.4.5-.9.8-1.4.1-.1.2-.2.2-.3.2-.3.4-.8.2-1-.1-.1-.2-.2-.4-.2h-.2c.2.3-.1.8-.5 1-.6.4-.5.8-.5.8s-.2-1-.1-1.6c.1-.5.5-1 1-.6h.3c.3 0 .6.2.7.4.3.5-.2 1.4-.3 1.4-.1.1-.2.2-.3.4-.3.4-.7.9-.8 1.2-.1.3-.1.5.1.6.3.2.6.2.8.2 0 0 .9-.8 1.5-1 .3-.1.3-.3.1-.3-.2 0-1 .2-1.2-.3 0 0 .9-.3.9-.7 0 0-.4.3-.8.1 0 0 .7-.5.6-1-.1-.2-.2-.7 0-.9.1-.1-.2-.3-.3-.2 0 0 .4-.3.7 0h.2c.2 0 .4-.2.6-.2.2 0 .3-.1.6.2l.4.2c.1 0 .1.2 0 .3 0 .1-.1.1-.6.1-.1 0-.3.6-.3.6.1 0 .6-.2.7-.1.1 0 .1.2 0 .4-.1.1-.2 0-.3 0-.2 0-.4.3-.1.5.2.2.8.4 1.4-.6 0 0 .2.2.1.8l1.4-1.2s-.1-.8.5-1.1c0 0-.2.3-.1.5 0 0 .3-.3.6-.3 0 0-.4.4-.4.5 0 0 .5-.2.7 0 0 0-.6.2-.6.4 0 .1.4.2.6.1 0 0-.1.4-.7.3 0 0-.6.9-1.5 1.4-.2.1 0 .5.5.3.2-.1.3-.2.4-.3 0 0 .5 1-1.1 1 0 0 .9.9 1.1 1.2.7.3.8.2.8.1m25.3 4.3c0 .1 0 .2-.1.2s-.1 0-.2.1-.1.1 0 .1c.2 0 .4-.3.4-.4 0-.1.2-.2.2-.2.1 0 0-.2 0-.2h-.2c0-.2 0-.3-.1-.3.2 0 .6 0 .7-.2 0-.1.2-.1.2-.2 0 0 0-.2-.1-.2-.1-.1-.5-.1-.7 0-.4.1-.6 0-.6-.1v-.1c.1.1.2 0 .3 0 .1-.1.1-.2 0-.2-.3-.1-.4.1-.4.1-.1.1-.1.3 0 .3.1.1.4.2.7.1.2-.1.5 0 .6 0v.1l-.1.1c.1.2-.4.2-.6.2-.3-.1-.6.1-.7.2-.2.1-.3.2-.3.1-.2-.1.2-.4.2-.5.1-.1 0-.1-.1-.1-.3.1-.4-.1-.4-.2-.1-.1-.1 0-.1 0-.1.1.1.5-.2.6-.6.1-.8-.4-.8-.4h-.1c.1.3.3.4.4.4l.2.2.1.1-.1.3c0 .1-.4.4-.4.4-.1 0-.3.1-.3.1.1.2.4 0 .4 0 0-.1.5-.5.6-.6 0 0 .6-.2.7-.2.2-.1.1 0 .1 0-.1.1-.3.6-.3.6-.2 0-.3.1-.3.2.1.1.4-.1.4-.1 0-.1.1-.3.1-.3l.2-.5.2-.1s0 .2.2.3c.4.2.3.3.3.3m.3-9.4l.1-.4-.5.2v-.4l-.2.3-.3-.2v.4l.9.1zm-6.2.2c-.5-.1-.4-.2-.4-.3.1-.1 0-.2-.1-.2s-.2 0-.2.2c.1.4.7.3.7.3m-.9-1.1h-.2v.5h.2v-.5zm2.8.1h-.2v.5h.2v-.5zm-3.4 1.9H34v.5h.2v-.5zM34 30h-.2v.5h.2V30zm1.7.6h-.2v.5h.2v-.5zm-5.8.5c0-.1 0-.4-.2-.4s-.4 0-.4 1.1c0 0 .4-.1.6 0-.1-.1 0-.5 0-.7m.4-4.5c-.2 0-.4.2-.4.5-.1.4-.1.7-.1.9h.2c.1-.2.2-.6.5-.9-.1-.3-.2-.5-.2-.5m-1.2 1.5h.1c0-.2 0-.6-.1-1s-.3-.5-.4-.5c-.1.1-.3.1-.4.4.4.3.7.8.8 1.1m2.8 1.9v-1.2c0 .2-.1.3-.2.5.1.2.1.4.2.7m-2.1 4.1c.1 0 .1.1 0 0 .1.1.1.2.2.3.2.5 0 1.6 0 1.6.4-.7.5-1.4.3-1.9 0-.1-.1-.2-.2-.3 0 0-.4.3-.3.3m.7-4.6c.1-.2.2-.5-.2-.9v-.2s.1-.7.7-1c.1-.1.3-.1.3 0 .2.2.2.6.1 1 0-.1-.1-.3-.1-.4-.1-.2-.3-.3-.5-.2-.2.1-.3.3-.2.5.2.4.3 1 .7 2.1l.1.4c.2 1-.1 1.7-.5 2.9-.3 1-.7 3.2-.5 4.2.2-1.8.8-3.7 1-4.3.1-.2.2-.5.3-.9-.1 2-.3 4.1-.8 6.1-.2.7-.5 1.3-.8 1.7-.3.4-.5.5-.5.5-.3-.2-1.1-.7-1.8-1.6-.2-.3-.5-.6-.7-1-.9-1.6-1.2-2.8-1.3-5.6v-2.1-.8c0-2.4.2-3.6.2-3.6s.5-.2 1.7-.4c.6-.1 1.3-.2 2.1-.2v.2c.1.1.2.2.3.2-.2.1-.4.3-.5.4-.1-.2-.3-.5-.6-.5-.4-.1-.8 0-1.1.6-.4-.1-.8-.1-1.1.1-.5.4-.6 1.5.1 2.8-.1.2-.1.4-.2.6-.6 2 .3 3.1.8 4.2.4.8 1.2 3.5 1.2 3.7.1-.4-.2-2.9-.7-4-.4-.8-1.2-2.1-.7-3.6.2-.6.5-1.3.7-2 0-.4-.5-.8-.6-.3 0 .2-.1.4-.2.6-.3-.8-.4-1.3-.1-1.6.2-.1.5-.1.7 0 .4.2.6.7.7 1 .1.3.1.6 0 .8-.1.5-.3.7 0 1 .2.1.5.3.5.3s-1 2.1.5 2.3c.3.1.7-.1.7-.3 0-.2-.1-.5.2-1.1.1-.2.4-.8.3-1 0-.1-.1-.4-.1-.6m-1.1 4.7c.1-.2.5-.6.5-.6.4-.5.8-.6 1-1.2.2-.6.2-.6.3-1.2.2-.6-.3-1.3-.4-.8-.2.6-.2 1.3-.3 1.8-.2.6-.5.7-.8 1l-.1.1s-.1 0-.1-.1c-.9-.4-1.2-.6-1.3-1.3-.1-.9.1-1-.3-1.9-.1-.1-.2.1-.3.3v.5c.1.4-.1 1 .1 1.6.3.7.8 1 1.6 1.3-.3.3-.4.5-.4.8-.1.6.2 1.2.4 1.6-.1-.3-.3-1.4.1-1.9m2.2-7.2s.1 0 0 0v-.2c0-.2-.2-.5-.5-.7-.1.1-.3.1-.5.1.1.2.2.4.2.6.4-.1.7.1.8.2m-2.4 2.7c0-.1 0-.1-.1-.2.1 0 .2-.1.2-.1v-.1h-.1c-.2.2-.8.3-.8.3l-.1.1s0 .1.1.1c0 0 .2 0 .4-.1v.1c0 .1.1.2.1.2.3-.1.3-.2.3-.3m1.2-.2c-.3-.1-.7-.2-.7-.2h-.1v.1s.1 0 .2.1c-.1 0-.1.1-.1.2s.1.2.1.2c.1 0 .1-.1.1-.2v-.1c.1 0 .2.1.3.1m-.6 1c-.2 0-.4 0-.4 1.1 0 0 .4-.1.6 0 0 0 0-.4.1-.7-.1-.1-.1-.4-.3-.4m-.1-.5h-.1c-.1 0-.2.1-.1.2 0 .1.1-.1.2 0h.4c.1 0 .1-.1 0-.2h-.2c-.1.1-.1.1-.2 0m-19.9 10c.1 0 .1 0 0 0 .1 0 .1 0 0 0m11.1 10.2c0 2.8 2.3 5.1 5 5.1 2.8 0 5-2.3 5-5.1v-7h-10v7m21.6-5.5c-3.2 5.2-8.1 8.8-13.6 9.8-.9.6-1.9 1-3.1 1-1.1 0-2.2-.4-3.1-1-5.5-1-10.3-4.6-13.6-9.7h11.4V43.3H31V45h11.4m-13.2 5.6c0-.2.1-.7-.4-.8-.6-.1-.9.6-.9.6 0 .1-.1.1-.2.1s-.8.1-.8.7c0 .5.5.6.7.6.3 0 .5 0 .8-.1.1 0 .3 0 .4-.1.1-.1.1-.3.2-.4.1-.1.2-.3.2-.6m.4 1.1c.1 0 .2.2.2.3 0 .1-.2.2-.3.2h-.4c0 .1-.1.3-.1.4 0 .1-.1.2-.3.2-.1 0-.2-.1-.2-.3v-.3c-.3.1-.5.2-.9.1-.7-.1-1.1-.5-1.1-1.1 0-.6.5-.9.9-1l-1.6-2.1-1.6 2.1c.4.1.8.4.9 1 0 .6-.4 1-1.1 1.1-.4 0-.7-.1-.9-.1v.3c0 .1-.1.2-.2.3-.1 0-.2-.1-.3-.2 0-.2 0-.3-.1-.4h-.4c-.1 0-.3-.1-.3-.2s.1-.3.2-.3h.3c-.1-.2-.3-.5-.4-.9-.1-.7.2-1.2.8-1.3.6-.1 1 .2 1.2.6l1.7-2.2-1-1.3-1.7 1.3-.3-.4.9-.7-.3-.4-1.1.6-.7-.9.4-.3.3.4.4-.3-.3-.4.4-.3.7.9.4-.3-.7-.9.4-.3 2.2 2.9 2.2-2.9.4.3-.7.9.4.3.7-.9.4.3-.3.4.4.3.3-.4.4.3-.4.9-.9-.7-.3.4.8.7-.3.4-1.7-1.3-1 1.3 1.7 2.2c.2-.4.6-.7 1.2-.6.6.1.9.6.8 1.3-.1.4-.2.7-.4.9.1 0 .2 0 .3.1m-5.1-.4c0-.6-.7-.7-.8-.7-.1 0-.1-.1-.2-.1 0 0-.3-.7-.9-.6-.5.1-.4.6-.4.8.1.3.2.5.3.7.1.1.1.2.2.4.1 0 .3 0 .4.1.2.1.4.1.8.1.2-.1.6-.2.6-.7m-1.8 5.9c-.1 0-.2-.1-.3-.1-.2 0-.6 0-.7.6-.1.4.1.6.5.7.3 0 .3 0 .3-.2l.2-1zm.2-.6c.1-.4 0-.5-.4-.6v-.2l1.5.3v.2c-.4 0-.4 0-.5.4l-.2 1.3c-.1.5 0 .5.3.6v.2l-1.6-.3c-.6-.1-1-.4-.9-1 .1-.5.5-.7 1.1-.7h.3l.3.1.1-.3zm-3.7-.2l-.2-.1c-.1 0-.3-.1-.4-.1-.2 0-.3.2-.4.4-.1.4.1.6.3.7.2.1.3.1.3-.1l.4-.8zm.3-.7c.2-.4.1-.5-.2-.6l.1-.2 1.4.5-.1.2c-.4-.1-.4-.1-.6.3l-.5 1.3c-.2.4-.1.5.2.6l-.1.2-1.5-.5c-.3-.1-.5-.2-.6-.4-.1-.2-.2-.4-.1-.7.1-.3.4-.5.8-.5 0-.1-.1-.5-.2-.7-.1-.3-.1-.4-.2-.5-.1-.1-.1-.2-.2-.3l.1-.1.2.1c.5.2.6.4.7.7.1.2.1.6.2.8 0 .1.1.2.2.3h.1l.3-.5zm-3.4-1l-.6-.4-.2.9.8-.5zm-.2-1.2l-.1-.1c-.2-.1-.2 0-.3.2l-.1.4.7.4c.1 0 .2-.2.4-.3.1-.1.1-.2 0-.3l-.1-.1.1-.2 1 .6-.1.1c-.2-.1-.3-.2-.7.1l-1.9 1.4-.2-.1.4-2.4c0-.4-.1-.4-.3-.6l.1-.2 1.2.7-.1.4zm-2.4-1c.3-.4.3-.4.7-.1l.1-.1-1.9-1.5c-.1.1-.5.4-.6.5l.1.1c.2-.1.3-.2.4-.2.1 0 .3.1.5.2s.3.2.3.3c0 .1 0 .2-.2.4l-.4.5-.3-.3c-.2-.2-.2-.3 0-.5l-.1-.1-.6.7.1.1c.2-.2.3-.2.5 0l.3.3-.5.6c-.1.1-.1.1-.2 0l-.2-.1c-.2-.2-.3-.3-.3-.4 0-.1 0-.2.1-.4l-.1-.1c-.2.3-.4.5-.4.6l1.7 1.4.1-.1c-.3-.3-.3-.3 0-.7l.9-1.1zm-2.4-1.9c.2-.2.4-.5.4-.6 0-.1-.1-.4-.4-.7-.5-.5-1-.6-1.4-.3-.4.3-.3.8-.1 1.2l.1.2c.1.2.1.5 0 .6-.2.2-.4.1-.6 0-.2-.2-.2-.6 0-.9L9 50c-.2.2-.3.4-.4.5.1.1.2.4.4.6.5.5 1 .6 1.4.2.3-.3.2-.7.1-1.1l-.3-.2c-.1-.3-.1-.6.1-.7.2-.2.4-.1.6.1.3.3.2.8 0 1.1l.2.1zm-3.6-2.4c-.4.3-.4.3-.7 0l-.1.1.9 1.2.1-.1c-.2-.4-.2-.4.2-.7l1.1-.8c.4-.3.4-.3.7 0l.1-.1-.9-1.2-.1.1c.2.3.2.4-.2.6l-1.1.9zm-.2-3c.3-.2.4-.3.2-.5-.3-.6-.9-.7-1.5-.4-.7.4-.8.9-.5 1.5l.1.2s.1 0 .2-.1l1.5-.7zm-2.1.6c-.2-.5-.4-.9-.3-1.3.1-.3.3-.6.6-.8.9-.5 1.7 0 2.2.9l.6 1.2-.2.1c-.1-.3-.1-.4-.5-.1l-1.2.7c-.4.2-.5.2-.3.5l-.2.1-.7-1.3zm-1.1-3.9c-.4.2-.5.1-.6-.2l-.2.1.6 1.4.2-.1c-.1-.3-.1-.4.3-.6l1.3-.5c.4-.2.5-.1.6.2l.2-.1-.6-1.4-.2.1c.1.4.1.4-.3.6l-1.3.5zm-1.2-1.1h.2c-.1-.5-.1-.5.4-.6l.9-.3c.5-.1.7-.3.8-.6.1-.3.1-.6 0-.9-.1-.4-.3-.6-.6-.8-.3-.2-.7-.1-1.1 0l-.3.1c-.4.1-.6.2-.8.2-.2 0-.3-.1-.3-.3h-.2l.3 1.2h.2c-.1-.3 0-.4.1-.5.3-.1.5-.2.9-.3l.3-.1c.6-.2 1.1-.1 1.3.4.1.5-.2.8-.8 1l-.7.2c-.4.1-.5.1-.6-.3l-.2.1.2 1.5zm-1.5-7.1l1.9.6-1.7 1.1.1 1h.2c0-.4 0-.5.5-.5l.9-.1H4c.2 0 .2.1.3.3h.2L4.4 35h-.2c0 .3 0 .4-.2.5-.1 0-.3.1-.8.1l-.9.1 1.9-1.2v-.2l-2.3-.7 1.6-.2c.4-.1.4 0 .5.4h.2L4 32.2h-.2c0 .4 0 .4-.4.5L2 33c-.4.1-.4 0-.5-.4h-.2l.1 1.1zM2.5 30c-.4 0-.7.3-.7.7 0 .4.3.7.7.7.4 0 .7-.3.7-.7 0-.4-.4-.7-.7-.7m.4-1.9l.1-.7-.9.3.8.4zm1-.7v-.1c0-.2 0-.2-.3-.1l-.4.1-.1.8c.1 0 .3.1.4.2.2.1.2 0 .3-.1v-.1H4v1.1h-.2c0-.3 0-.4-.4-.6l-2.1-1.1v-.2l2.3-.8c.4-.1.4-.2.4-.5h.2l-.1 1.4h-.2zm-1.1-4.7c-.3 0-.5 0-.8-.1 0 .1-.2.4-.3.9-.2 1 .3 1.8 1.2 2 .7.1 1.5-.2 1.7-1.4.1-.4 0-.8 0-.9-.1-.1-.5-.3-.8-.4v.2c.4.3.6.6.6 1-.1.6-.7.9-1.4.8-.7-.1-1.1-.6-1-1.2.1-.4.3-.6.8-.7v-.2zm1.3-1.4l.2-.7-.9.1.7.6zm1.1-.4v-.1c0-.2 0-.2-.3-.2h-.4l-.2.8c.1 0 .2.2.4.3.2.1.2.1.3-.1v-.1l.2.1-.3 1.1-.2-.1c0-.3.1-.4-.3-.7l-1.8-1.5v-.2l2.5-.2c.4 0 .4-.2.5-.4h.2l-.4 1.3h-.2zm.5-3c.4.1.5.1.6-.2.3-.6 0-1.1-.7-1.4-.7-.3-1.2-.1-1.5.5-.1.2-.1.3-.1.3s.1.1.2.1l1.5.7zM4 16.6c.2-.5.5-.8.9-1 .3-.1.6-.1 1 0 1 .4 1 1.4.6 2.3L6 19.1l-.2-.1c.1-.4.1-.4-.3-.6l-1.3-.6c-.4-.2-.5-.2-.6.2h-.2l.6-1.4zm3.1-1.5c.4.2.4.3.2.7l.1.1 1.2-2.1c-.1-.1-.4-.4-.6-.5v.1c.1.2.2.3.3.4 0 .1 0 .3-.2.5-.1.2-.2.3-.3.3-.1.1-.2 0-.4-.1l-.5-.3.2-.3c.2-.3.2-.3.5-.2l.1-.2-.8-.5-.1.2c.2.2.3.2.1.5l-.2.3-.7-.3c-.1-.1-.1-.1 0-.2l.1-.2c.2-.3.3-.3.3-.4.1 0 .2 0 .4.1l.1-.2c-.3-.1-.5-.3-.6-.3l-1.2 1.9.1.1c.2-.3.3-.3.6-.1l1.3.7zm0 0c.4.2.4.3.2.7l.1.1 1.2-2.1c-.1-.1-.4-.4-.6-.5v.1c.1.2.2.3.3.4 0 .1 0 .3-.2.5-.1.2-.2.3-.3.3-.1.1-.2 0-.4-.1l-.5-.3.2-.3c.2-.3.2-.3.5-.2l.1-.2-.8-.5-.1.2c.2.2.3.2.1.5l-.2.3-.7-.3c-.1-.1-.1-.1 0-.2l.1-.2c.2-.3.3-.3.3-.4.1 0 .2 0 .4.1l.1-.2c-.3-.1-.5-.3-.6-.3l-1.2 1.9.1.1c.2-.3.3-.3.6-.1l1.3.7zm1.6-5.9l.9 1.8-2-.5-.6.8.1.1c.3-.3.3-.3.7 0l.7.6.5.5c.1.1.1.2-.1.4l.1.1.7-.9-.1-.1c-.2.2-.3.3-.5.2-.1-.1-.2-.2-.6-.5l-.7-.6 2.2.6.1-.1-1-2.1 1.3 1c.3.3.3.3.1.6l.1.1 1-1.2h-.1c-.3.3-.3.3-.6.1l-1.2-1c-.4-.3-.4-.3-.1-.6l-.1-.1-.8.8zm2.8-1.7c-.3-.3-.3-.4 0-.7l-.1-.1-1.1 1 .1.1c.3-.2.3-.2.7.1l.9 1c.3.3.3.4 0 .7l.1.1 1.1-1-.1-.1c-.3.2-.4.2-.7-.1l-.9-1zm2.2-.6l.6-.4-.8-.5.2.9zm1.2.3c.2-.2.2-.2 0-.4l-.3-.2-.7.5c0 .1.1.3.1.5.1.2.1.2.3.1l.1-.1.1.1-.9.6-.1-.1c.2-.2.3-.2.2-.7l-.5-2.3.2-.2 2.1 1.3c.3.2.4.1.6 0l.1.1-1.2 1-.1-.2zM17 4.4c-.2-.3-.6-.5-.9-.3-.3.2-.5.6-.3.9.2.3.6.5.9.3.4-.1.5-.5.3-.9m3.9.2c0-.2-.1-.6-.1-.8h-.2c0 .3 0 .4-.1.5-.1.1-.2.2-.4.3-.2.1-.3.1-.4.1-.1 0-.2-.1-.2-.4L19 3c-.1-.4-.1-.5.3-.6l-.1-.2-1.4.5.1.2c.4-.1.4-.1.6.3l.5 1.3c0 .5 0 .5-.4.7l.1.2 2.2-.8zm-.2-2.9v.2c.4 0 .4 0 .5.4l.2.9c.1.5.2.8.5.9.3.1.6.1.9.1.4-.1.7-.2.8-.5.2-.3.2-.6.1-1.1l-.1-.3c-.1-.4-.1-.6-.1-.8 0-.2.1-.2.3-.3V1l-1.2.2v.2c.3 0 .4 0 .5.1 0 .1.1.3.2.8v.3c.1.6 0 1.1-.6 1.2-.2.2-.5-.1-.6-.8l-.1-.8c-.1-.5 0-.5.3-.6v-.2l-1.6.3zm6.8.3c0-.4 0-.6-.1-.8-.2 0-.5-.1-.9-.1-.9 0-1.8.5-1.8 1.5 0 .9.7 1.4 1.7 1.5.4 0 .7-.1 1-.2v-.7c0-.3 0-.3.3-.3v-.2h-1.4v.2c.5 0 .5.1.5.4v.4c0 .2-.2.3-.3.3-.7 0-1-.7-1-1.3 0-.8.5-1.2 1-1.2.4 0 .7.2.9.7l.1-.2zm2 1.6c-.1.3-.1.5.2.5.7.1 1.1-.2 1.2-.9.2-.8-.1-1.2-.8-1.3h-.3s-.1.1-.1.2l-.2 1.5zm.9-1.9c.5.1.9.3 1.2.6.2.2.3.6.2 1-.2 1-1.1 1.3-2.1 1.1L28.3 4v-.2c.4.1.4 0 .5-.4l.3-1.4c.1-.4.1-.5-.3-.6v-.2l1.6.5zm2.5.6l-.1.2c.4.2.4.2.2.6l-.4.9c-.2.5-.2.8-.1 1 .1.3.4.4.7.5.4.2.7.2.9.1.3-.1.5-.4.7-.8l.2-.3c.2-.4.3-.6.3-.7.1-.1.2-.1.4 0l.1-.2-1.1-.5-.1.2c.3.1.4.2.4.4 0 .1-.1.3-.3.7l-.1.3c-.3.6-.6.9-1.1.7-.5-.2-.5-.7-.2-1.3l.3-.7c.2-.4.2-.4.6-.3l.1-.2-1.4-.6zm5.5 4.3c.2-.4.4-.5.5-.6.1-.1.2-.1.5 0l.1-.1-1-.7-.1.1c.3.2.3.3.3.4-.1.1-.2.3-.4.7l-.5.6-.4-2.5-.8-.5-.1.1c.3.3.4.4.1.8l-.4.7c-.2.4-.4.5-.5.6-.1.1-.3.1-.5 0l-.1.1 1 .7.1-.1c-.2-.2-.3-.3-.2-.5.1-.1.2-.3.4-.7l.5-.7.4 2.7.2.3.9-1.4zm1.3 1.3c-.5.6-.6 1.2-.3 1.5.3.3.8.3 1.3-.3.5-.5.7-1.2.3-1.6-.2-.2-.8-.1-1.3.4m1.6-.5c.7.6.7 1.5.2 2.1-.7.7-1.6.6-2.1 0-.7-.7-.6-1.6-.2-2.1.6-.7 1.5-.5 2.1 0m1.7 3.9c.3-.2.3-.7.1-1-.2-.3-.7-.3-1-.1-.3.2-.3.7-.1 1 .3.3.7.4 1 .1m1.1 1.5l.1.2c.2.2.4.4.7.2.3-.2.2-.5.1-.7-.1-.2-.1-.2-.3-.1l-.6.4zm-.1.1l-.6.4c-.3.2-.3.4-.2.6.1.2.4.3.8.1.4-.2.3-.6.1-.9l-.1-.2zm.2-.9c.4-.3.4-.3.2-.6l.1-.1.9 1.3c.3.5.4.9 0 1.1-.3.2-.7 0-.8-.2.2.4.2.8-.2 1-.5.4-1.1-.2-1.4-.6l-.8-1.2.1-.1c.2.3.3.3.7.1l1.2-.7zm1.2 3.8l.3.6.6-.7-.9.1zm-.5 1.1l.1.1c.1.1.1.2.3-.1l.3-.3-.4-.8c-.1 0-.3 0-.5.1-.2 0-.2.1-.2.3l.1.1-.2.1-.5-1 .2-.1c.1.2.2.3.6.3l2.3-.1.1.2-1.6 1.9c-.2.3-.2.4-.1.6l-.2.1-.6-1.3.3-.1zm3.4 2l.1.2c.1.2.1.4.1.5 0 .1-.1.2-.3.3l.1.2c.2-.1.6-.3.8-.3v-.1c-.1 0-.1 0-.2-.2l-.7-1.8c-.1-.1-.1-.2 0-.3v-.1c-.2.1-.5.1-.8.2l.1.2h.4c.1 0 .2.1.3.5v.1l-1.7.6c-.4.2-.5.1-.6-.2l-.2.1.5 1.5.2-.1c-.1-.4-.1-.5.3-.6l1.6-.7zm-.6 2.6l.2.7.8-.6-1-.1zm-.8 1v.1c.1.2.1.2.3 0l.3-.2-.2-.8h-.5c-.2 0-.2 0-.2.2v.1h-.2l-.3-1.1h.2c.1.2.1.3.6.4l2.3.4.1.2-2 1.5c-.3.2-.3.3-.2.6h-.2l-.4-1.4h.4zm.4 2.7c.9.2 2.1.6 2.3.6.4.1.5.2.6.5h.2l-.2-1.1H50v.1c0 .2-.1.2-.3.2-.2 0-1.2-.2-1.5-.3l1.4-.9c.2-.1.3-.1.3 0v.1h.2l-.2-1.4h-.2c0 .3 0 .4-.3.6L47.2 25l.1.2zm1.4 2.1v.7l.9-.4-.9-.3zm-.9.8v.1c0 .2.1.2.3.1l.4-.2-.1-.9c-.1 0-.3-.1-.5-.1s-.2 0-.2.2v.1h-.2l-.1-1.1h.2c0 .3.1.4.5.5l2.2.8.1.2-2.2 1.1c-.3.2-.3.3-.3.6h-.2l-.1-1.4h.2zm1.4 3.3c.4 0 .7-.3.7-.7 0-.4-.3-.7-.7-.7-.4 0-.7.3-.7.7 0 .4.3.7.7.7m-1.8 3.1c.2.1.6.2.8.2v-.2c-.3-.1-.4-.2-.5-.3-.1-.1-.1-.3-.1-.5s0-.3.1-.4c.1-.1.2-.1.4-.1l1.4.1c.5 0 .5.1.5.5h.2l.2-1.5h-.2c-.1.4-.1.4-.6.4l-1.4-.1c-.5 0-.5-.1-.5-.5h-.2l-.1 2.4zm1.6 2.7c.4.1.5.1.4.5h.2l.3-1.5h-.2c-.1.4-.1.4-.6.3l-1.4-.3c-.4-.1-.5-.1-.4-.5h-.2l-.3 1.5h.2c.1-.4.1-.4.6-.3l1.4.3zM47.7 40l-.1.2c-.1.3-.1.6.3.7.3.1.5-.1.6-.4.1-.2.1-.2-.1-.3l-.7-.2zm-.2-.1l-.6-.2c-.4-.1-.5 0-.6.2-.1.3 0 .6.4.7.4.1.7-.1.8-.5v-.2zm.9-.4c.4.1.5.1.6-.2l.2.1-.5 1.5c-.2.5-.5.8-.9.7-.3-.1-.4-.5-.4-.8-.2.4-.5.6-.9.5-.6-.2-.5-.9-.3-1.5l.4-1.3.2.1c-.1.4-.1.4.3.6l1.3.3zM45.6 43c-.4-.2-.4-.2-.3-.6l-.2-.1-1.1 2.2c.1.1.5.4.6.5l.1-.2c-.1-.1-.2-.3-.3-.4 0-.1 0-.3.1-.5s.2-.3.2-.4c.1-.1.2 0 .4.1l.5.3-.2.4c-.2.3-.2.3-.5.2l-.1.2.8.4.1-.2c-.3-.2-.3-.2-.1-.5l.2-.4.7.4c.1.1.1.1.1.2l-.1.2c-.1.3-.2.4-.3.4h-.4l-.1.2c.3.1.6.2.7.3l1-2-.2-.1c-.2.3-.2.3-.6.1l-1-.7zm-1.7 4.2l-.1.2c-.1.1-.2.3-.2.4 0 .2.1.4.3.5.3.2.6.1.8-.1.1-.2.1-.2 0-.3l-.8-.7zm-.5-.4c-.4-.3-.4-.2-.7.1l-.1-.1.8-1.2.1.1c-.2.3-.2.4.2.6l1.1.8c.4.3.4.2.7 0l.1.1-.9 1.3c-.2.2-.3.4-.5.5-.2.1-.4.1-.7-.1-.3-.2-.3-.6-.2-.9h-1.2c-.1 0-.2.1-.3.2l-.1-.2.1-.2c.3-.4.5-.5.8-.5h.8c.1 0 .2 0 .3-.2l.1-.1-.4-.2zm-1.6 4.8l-.2.2c-.2.2-.3.3-.4.3-.1 0-.2 0-.4-.2l-.1.1c.2.1.5.4.7.5l.1-.1c0-.1 0-.1.1-.2l1.3-1.4c.1-.1.1-.1.3-.1l.1-.1-.6-.6-.1.1c.1.2.2.3.2.4 0 .1 0 .2-.3.5l-.1.1-1.3-1.3c-.3-.3-.3-.4-.1-.7l-.1-.1-1.1 1.1.1.1c.3-.3.4-.3.7 0l1.2 1.4zm-3 .9l-.5.4.8.5-.3-.9zm-1.1-.4c-.2.2-.2.3 0 .4l.3.2.7-.5c0-.1-.1-.3-.2-.4-.1-.2-.1-.2-.3-.1l-.1.1-.1-.1.9-.7.1.1c-.2.2-.3.3-.2.7l.6 2.3-.2.2-2-1.3c-.3-.2-.4-.1-.6 0l-.1-.1 1.1-.9.1.1zm-2 4.1l-.2.1c-.2.1-.3.2-.5.1-.1 0-.2-.1-.4-.3l-.2.1c.1.2.3.5.4.7h.1c0-.1 0-.1.2-.2l1.7-.9c.1-.1.2-.1.3 0h.1c-.1-.2-.2-.5-.4-.8.1.2.1.4 0 .4 0 .1-.1.2-.4.4l-.1.1-.9-1.6c-.2-.4-.2-.4.2-.7l-.1-.2-1.4.7.1.2c.4-.2.4-.2.7.2l.8 1.7zm-3.6 1c.1.4.1.5-.2.6l.1.2 1.4-.5-.1-.2c-.4.1-.4.1-.6-.3l-.4-1.3c-.1-.4-.1-.5.2-.6l-.1-.2-1.4.5.1.2c.4-.1.4-.1.6.3l.4 1.3zm-2.1-.6c-.1-.3-.2-.6-.3-.7-.1-.1-.4-.2-.8-.1-.7.1-1.1.5-1 1.1.1.5.5.7 1 .7h.2c.3 0 .5.2.5.4s-.1.4-.4.5c-.3.1-.6-.2-.7-.5h-.3c.1.3.2.5.2.7.1 0 .4.1.7 0 .7-.1 1-.5.9-1-.1-.4-.5-.6-.9-.6L29 57c-.3-.1-.5-.2-.5-.5 0-.2.1-.4.4-.5.4-.1.8.3.9.6h.2zm-4.9 1c0 .4.3.7.7.7.4 0 .7-.3.7-.7 0-.4-.3-.7-.7-.7-.4 0-.7.3-.7.7M44.3 22.4c.2-.2.4-.2.6-.2-.2-.2-.6-.2-.8 0-.2.2-.2.6 0 .8-.1-.2 0-.4.2-.6m-3-9.1c3.3 4.4 5.3 10.3 5.3 16.7 0 3.6-.6 7-1.8 10.1 0 .1-.1.2-.1.3h-2.2c.2.2.4.4.4.7 0 .5-.3.5-.9.5h-6.6c-.4 0-.7 0-.9-.2-.1-.1-.1-.2-.1-.3 0-.3.1-.5.4-.7h-4.2c.3-.4.5-.9.8-1.6.9-3 .8-6.2.8-8.8v-2.9s.3-.1.1-.7c-.1-.3-.3-.5-.6-.7 0-.1 0-.2-.1-.4l-.2-.2V25c0-.1-.1-.4-.1-.7 0-.9-.6-2.6-.6-2.6s.1.1.3 0c.4-.1.3-.6.1-.8-.1-.1-.4-.6-.5-.8-.3-.3-.6-.8-.6-1.1-.1-.3 0-1.6 0-2 .2-3-1.2-3.2-1.7-3.4-.2-.1-.3-.2-.5-.3 0 .6-.8.9-1.7.9-.9 0-1.7-.3-1.7-.9 0 0 0-.1.1-.2l-.4.1c-.5.1-.6.1-.8.2-.7.2-.8.9-.9 1-.3.6-.5 1.3-.5 1.3-.1.2-.1.4-.1.4l-.3-.3c-.2-.2-1.2-1.2-1.4-1.3-.1-.1-.7.1-.7.1 1.4 1.1 2.4 2.4 2.5 2.7.1.2 0 .1-.1.1-1.4-.7-3.4-.4-3.4-.4l-.4.6c2-.2 3.5 0 3.9.6.1.1.3.2.5.2s.3-.2.3-.4c0 0 0-.1.1-.3 1-2 3.5-2.9 3.5-2.9l1 3.1c.4.1.5.1.7.1-.1-.2-.5-.5-.4-.8 0-.1.5 0 .7-.1.2-.2.6-.5.3-1.4-.1-.2-.1-.4-.2-.4l.2-.1c0 .1.1.2.2.4.5 1.2-.1 1.5-.3 1.8l-.1.1c-.1.2 0 .4.1.6.2.1.2.2.2.2v.7c-.8-.3-2.7-.4-2.6-.4.1 0 .4-.2.3-.3h-.5c-.1 0-.1-.1 0-.1 0 0 .1 0 .2-.1.3-.2.5-.5.5-.6 0-.1-.1-.2-.1-.2 0-.1-.1-.2-.2-.1-.1 0-.6.3-.8.3-.1 0-.2-.1-.1-.1.3-.3.3-.4.5-.6.2-.3-.1-.3-.2-.2-.2.2-.8.7-1.1.9-.2.1-.2 0-.2-.1.1-.3 0-.3 0-.5 0-.1-.3-.3-.3-.1 0 .2 0 .4-.2.6-.2.3-.1.6-.2.7-1 .8-1.9.5-1.9.5-.1-.3-.9-.6-1.3-.2-1.1 1-.6 3.1-.5 3.3.5 1.2 1.2.6 1.3.4.9-.9 1.1-2 1.1-2 .5-.2.8-.3 1.1-.5.4-.3.7-.5.9-.6.2 0 .6-.2.7-.1v.1c-.5.2-1.4 1-1.4 1-.1.6-1.6 2.7-1.1 3.1.3.2.1.5 0 1 0 0-.3 1.3-.6 3.8 0 0-.2.7.1.9.1.1 1 .2 1.7.2.2 0 .5.2.7.2 0 0 0 1.1-.2 1.1s-.2-.8-.2-.7c0 .1-.1-.1-.2-.1-.3.1-.7 0-1.2 0-.1 0-.3.1-.3.2 0 .2 0 .3-.1 1.3 0 .3-.1.6-.1 1 0 .2 0 1.5-.1 2.1-.1 1.1-.2 4.1-.2 5.2-2 0-3.9-.2-3.2-1 .1-.1.3-.2.4-.4.6-.5.6 0 1.2-1 .6-.9.8-2 1-2.8.2-.7-.1-.9-.5 0-.1.1-.2.5-.5.9-.1.2-.4.5-.7.6-.6.2-1-.8-.2-1.8.3-.4.6-.3.7-.1 0 0 .1.2.3 0 .1-.1.3-.5.3-.5.8-1.2 1.1-3.1 1.1-3.5v-.4c0-.8-.5-1-.7-.5-.2.4-.5.3-.4-.2.3-1.8 1.3-4.1 1.4-4.5.1-.3-.1-.3-.2-.4-.1-.1-.2-.1-.1-.3.2-1 1.1-2.7 1.2-2.8.1-.2 0-.3-.2-.1-2.1 3.3-3 8.8-2.9 9.1 0 1.4.9.7.9.7-.3 1-.7 1.5-1 1.9-1.8 2.7-1.1 4-1.1 4 .3.6.8 1-.3 1.9-.4.3-1.5 1.1-.2 2 .4.3.7.5.9.6h-1.9c.3.2.4.5.4.7 0 .5-.3.5-.9.5h-6.6c-.4 0-.7 0-.9-.2-.1-.1-.1-.2-.1-.3 0-.3.1-.5.4-.7h-2c0-.1-.1-.2-.1-.3C5.7 37 5 33.6 5 30c0-6.4 2-12.3 5.3-16.7V22c-.2-.1-.5-.1-.7.1.2 0 .5 0 .6.2.2.2.2.4.2.6l-.1.1v.2c.1.3.5.7 1.2.7.5 0 1.1-.4 1.1-1.1 0 0-.1-.1-.2-.1-.1.2-.3.4-.6.4s-.6-.3-.6-.6.3-.6.6-.6.6.2.6.6c.1 0 .3 0 .3-.3-.3 0-.5-.3-.5-.6s.3-.6.6-.6.6.3.6.6-.2.5-.5.6c0 .3.2.4.3.3 0-.3.3-.6.6-.6s.6.3.6.6-.3.6-.6.6-.5-.2-.6-.4c-.1 0-.2.1-.2.1 0 .7.6 1.1 1.1 1.1 1 0 1.3-.8 1.3-.9-.2-.1-.4-.3-.4-.6 0-.1.1-.3.1-.4.2 0 .4 0 .6.2.2.2.2.4.2.6.2-.2.2-.6 0-.8.1 0-.1-.1-.3 0v-9.6s-.8-7.1 10-7.2c10.3-.1 10.2 7.3 10.2 7.3V22c-.2 0-.4 0-.5.2-.2.2-.2.6 0 .8 0-.2 0-.5.2-.6.2-.2.4-.2.6-.2.1.1.1.2.1.4 0 .3-.2.5-.4.6 0 .1.3.9 1.3.9.5 0 1.1-.4 1.1-1.1 0 0-.1-.1-.2-.1-.1.3-.3.4-.6.4s-.6-.3-.6-.6.3-.6.6-.6.6.3.6.6c.1 0 .3 0 .3-.3-.3 0-.5-.3-.5-.6s.3-.6.6-.6.6.3.6.6-.2.5-.5.6c0 .3.2.4.3.3 0-.3.3-.6.6-.6s.6.3.6.6-.3.6-.6.6-.5-.2-.6-.4c-.1 0-.2.1-.2.1 0 .7.6 1.1 1.1 1.1 1 0 1.3-.8 1.3-.9-.1 0-.1-.1-.2-.1 0-.2 0-.5.2-.6.2-.2.4-.2.6-.2-.1-.1-.3-.2-.5-.2l.2-8.8m-25.6 10s.1 1 1.1 1c.2 0 .4-.1.6-.2-.1.1-.3.1-.4.1-.7 0-1-.5-1-.8v-.2l-.3.1zm-7.8-.7c.2 0 .4.1.6.2.2.2.2.4.2.6.2-.2.2-.6 0-.8-.2-.2-.5-.2-.8 0m-.4.4c.2-.2.2-.6 0-.8-.2-.2-.6-.2-.8 0 .2 0 .5 0 .6.2.1.2.2.4.2.6-.1 0-.1 0 0 0m.3.6c.2.3.5.6 1 .6.3 0 .5-.1.7-.2-.1.1-.3.1-.5.1-.5 0-.8-.3-1-.6l-.2.1zM17 41.1c0-.3-.2-.5-.5-.7-.1-.1-.3-.2-.5-.2H9.8c-.2.1-.3.1-.5.2-.3.2-.5.5-.5.7v.1H17v-.1m1.4-18.9c.2 0 .4.1.6.2.2.2.2.4.2.6.2-.2.2-.6 0-.8-.2-.3-.6-.3-.8 0m.1 1.1c-.3.1-.6.5-.6 1.5v.4h-10v7c0 1.9 1 3.6 2.5 4.4.8.4 1.6.7 2.6.7.7 0 1.3-.1 1.9-.4-.8.4-1.6.7-2.5.7-.7 0-1.3-.1-1.9-.4V40h5.2v-3.2c1.5-.9 2.5-2.5 2.5-4.4v-7-.6c-.1-.9.1-1.3.3-1.5m-.5-.7c-.2-.2-.6-.2-.8 0 .2 0 .5 0 .6.2.2.2.2.4.2.6.2-.2.2-.5 0-.8M29.4 7.7c0-.4 0-1-.9-1 .2 0-.6-.1-.6.4 0 .3-.1.7-.7.7 0 0-1-.3-.5-.5.2-.1.7-.4.4-1.1-.1-.3-.7-.7-1.2-.2-.1.1 0 .4-.3.4s-.3-.3-.3-.4c0-.2-.1-.5-.6-.5s-.6.3-.6.5c0 .3.1.3.2.4.2.1.1.4-.2.2-.1-.1-1.1-1-2.1-.4-.4.3-.4.7-.1.9.1.1.2.2 0 .3-.1.1-.4.8.1 1.2.4.3 1 .4 1.3-.2.1-.1.1-.5.1-1 0-.1.1-.5.6-.4.2 0 .3.2.1.3-.1.1-.8.5-.8 1.7 0 .3-.1.5-.5.8-.2.2-.8.5-.3 1.1.3.3.4.4-.3 1.1-.1.1-.4.2.1.3.3 0 1.2 0 2-.1l-.1-.3c-.7.1-1.5 0-1.5 0 1-.7.4-1.5.4-1.5-.3-.3 0-.6.5-.7.5-.1.7 0 1.2.2 0 0-.7-.1-1 .2V10.4c.6-.1.8-.2.8-.2s.1.1 0 .1c0 0-.1.1-.1 0h-.2l.1.1c0 .1 0 .2-.1.2s-.2 0-.2-.1v-.1c-.1 0-.2 0-.3.1v.2c.1.2.1.3.1.4 0 .1 0 .2.1.2 0 0 0 .1.1.1.2.4.5 1.1 1.3.9 0 0 .1 0 .1.1 0 0 0 .1-.1.1 0 0-.1 0-.2.1-.2.1-.3.1-.4 0 0 .1.1.2.1.2s-.3 0-.4.1v.1c0 .5.6.9 1.4.9.8 0 1.4-.4 1.4-.9v-.1c0-.1-.1-.1-.1-.2-.4-.6-.3-.8-.3-.8v-.1c.6 0 1.2-.1 1.9-.2.1 0 .3-.2.1-.2.1 0-.9-.1-.9-.7 0-.5.1-1.1-.8-1.4-.1 0-.1-.1-.1-.2 0-.2-.1-.7-.3-.9-.2-.2-.4-.4-.3-.5h.1s.4.1.6.5c.1.2.4.5 1.1.5.8.1 1.1-.7 1.1-1m13.3 14.9c-.2.2-.2.6 0 .8 0-.2 0-.5.2-.6.2-.2.4-.2.6-.2-.2-.2-.5-.2-.8 0m-.1 1.5c-.2 0-.4 0-.5-.1.2.1.4.2.7.2.5 0 .8-.3 1-.6l-.2-.1c-.3.3-.6.6-1 .6m-3.8 5.8h.5v-.4c0-.2-.2-.3-.4-.3v-.1h1.2v.1c-.2 0-.4 0-.4.3v.4h.3v.6h.2c.3 0 .5-.2.5-.6v-.4h.2v.5c0 .2 0 .4-.2.5-.1.1-.3.2-.5.2h-.1v.7h1.2v-2.9h-2.4v1.4zm2.5-3.2l-.2-.2h.1s0 .1.1.1v.1m-.1.3c-.2 0-.3.1-.3.1.4-.2.4.1.4.1.1 0 .2-.2-.1-.2m.2-.3c0 .1 0 .1.1.1h.2l-.3-.1m.1 1.9h-.2v.2c.1 0 .1 0 .2-.1.1 0 0-.1 0-.1m-.7 4.5c.2-.4.3-.8.3-1.2v-.4h-1.2v.4l.9 1.2zm-1.8-.2h-.2v1.4c.4 0 .8-.1 1.1-.3l-.9-1.1zm-.8-2.1v-.7h-.7v.7h.7v.8h-.7c0 .5.3.9.7 1v-1.1h.8v1.1c.4-.2.7-.5.7-.9v-.1H39v-.8h-.8zm.8 0h.7v-.7H39v.7zm-2.9-4.5c0 .1 0 .1 0 0 .1.1.1.1.1 0h.1-.2c-.1 0 0 0 0 0zm.1 3.1v1.9h1.2v-.5l-1.2-1.4zm2.1.5h.3v-1.4h-1.5l1.2 1.4zm-2.1 1.6v.4c0 1.3 1.1 2.4 2.4 2.5V33h-.3v.1-.1c0 .2-.1.4-.2.5-.1.1-.3.2-.5.2s-.4 0-.5-.1c-.2-.1-.2-.3-.2-.5v-.6c0-.2-.2-.3-.4-.3V32h1c0-.1-.1-.3-.1-.4v-.1h-1.2zm1.2.6c-.1 0-.3.1-.3.3v.5c0 .4.1.6.5.6.3 0 .5-.2.5-.6v-.1c-.3-.1-.5-.3-.7-.7m-1.8-8.8c-.1.3-.3.9-1 .8-.2 0-.3-.1-.4-.1.2.1.4.2.6.2 1 .1 1.1-1 1.1-1l-.2-.1c-.1.1-.1.1-.1.2m-2.1-.7c-.2.2-.2.6 0 .8 0-.2 0-.5.2-.6.2-.2.4-.2.6-.2-.2-.2-.6-.2-.8 0m-1-.2c.2-.2.4-.2.6-.2-.2-.2-.6-.2-.8 0-.2.2-.2.6 0 .8-.1-.2 0-.4.2-.6m.6.9c.2.2.4.6.4 1.4v6.5H36v-1.4c-.3.1-.6.1-.7.1-.2.1-.1.4-.1.4-.2 0-.2-.2-.2-.2-.2 0-.2.3-.2.3-.2-.1 0-.3-.1-.3s-.3.2-.3.2c0-.2.2-.4.2-.4-.1-.1-.2 0-.2 0 .1-.3.4-.2.4-.1.1 0 .1.1.2 0 .2-.2.5-.3.5-.3-.2 0-.3-.2-.3-.2.2 0 .3-.1.3-.1.1-.2.2-.3.3-.4v-.4l-.4-.2c-.5.5-.7.6-.7.6s-.1 0-.1.1c0 .2-.1.3-.1.3s0-.2-.2-.2-.2.2-.2.2c-.2-.1 0-.3 0-.3-.1 0-.3.1-.3.1-.1-.2.2-.3.2-.3h-.3c.1-.2.4-.2.5-.1 0 .1.1.1.1 0 .1-.1.6-.6.6-.7-.1 0-.3 0-.4-.1 0 0 .3 0 .5-.2 0 0 0-.1-.1-.1-.4-.3-.9-.8-.9-.8-.3 0-.4-.2-.4-.2.1 0 .3 0 .3-.1s-.3-.2-.3-.2c.1-.1.3 0 .3 0l-.2-.3c.1 0 .3.2.3.2v-.3c.3.1.2.5.2.5l.9.6c.2.1.4.1.6-.1.2-.2 0-.3-.1-.3h-.2v-.2h.3s.1-.1 0-.1c-.3-.1-.4-.2-.4-.2v-.2h.1c.1-.2.2-.2.3-.2.1 0 .3.1.4.1h.1c.2-.2.3 0 .3 0-.1 0-.2.1-.2.1.1.1 0 .3-.1.4.6.8.8 1 .8 1-.2.1-.4 0-.4 0 0 .4.6.4.6.4-.1.2-.5.2-.6.2-.1 0-.1.1 0 .1.2.1.4.2.6.4h.6V28c0-.2-.2-.4-.4-.6 0-.1-.1-.1-.1-.2 0 0-.3-.4-.1-.7.2-.3.5-.2.5-.2.2-.2.4-.1.6.2.1.3-.2.4 0 .9-.2 0-.7-.5-.6-.9h-.2c-.1 0-.2 0-.2.1-.1.1 0 .4.1.5 0 0 .1.1.1.2.2.2.4.5.4.7v.3h.6v-3H33.6v-.4c.1-1.1-.3-1.4-.5-1.6m.4 9.1c0 .3 0 .6.1.9h2.8c-.2-.4-.4-.9-.4-1.4v-.4h-2.5v.9m1 3c.4.5.8.9 1.3 1.3v3.4h5.5v-2.6c-.6.2-1.3.4-1.9.4-.9 0-1.8-.2-2.5-.7.6.2 1.2.3 1.8.4v-2.2h-4.2m8.2 5.7c0-.3-.4-.7-1-.9h-6.2c-.6.2-1 .6-1 .9v.1h8.2v-.1m1.1-9.6h-2.5v.4c0 .2 0 .5-.1.7h1.3c.2 0 .5-.1.6-.3 0 0 .1-.1 0-.1v-.1c-.1 0-.3 0-.5.1s-.5.1-.6.1c-.1 0-.1-.1 0-.3 0 0 0-.2.3-.2.1 0 .1.1 0 .2-.1 0-.2.1-.3.1v.1s.2.1.5-.1c.2-.1.5-.1.6-.1.1 0 .1.1.1.1 0 .1-.1.2-.1.2-.1.1-.4.2-.5.3l.1.1v.1c0 .2.4.1.4.1 0 .2-.1.5-.1.5 0 .1-.2 0-.3 0-.1 0 0-.1 0-.1h.2l.1-.3c-.4 0-.6-.3-.6-.3s-.2.3-.6.7c-.1.1-.3 0-.3 0 0-.1.1-.1.1-.1.2-.1.6-.6.6-.6s.1-.2-.4.1c-.3.2-.6.2-.7.2-.2.4-.5.7-.9.9-.4.2-.8.4-1.3.4v3c1.1 0 2-.4 2.8-.9 1.3-.9 2.2-2.5 2.2-4.2v-.7zm0-6.2h-5v3h1.4l.1-.1c-.1 0-.2-.1-.3-.2 0 0 .3 0 .5-.2 0 0 0-.1-.1-.1-.4-.3-.9-.8-.9-.8-.3 0-.4-.2-.4-.2.1 0 .3 0 .3-.1s-.3-.2-.3-.2c.1-.1.3 0 .3 0l-.2-.3c.1 0 .3.2.3.2V26c.3.1.2.5.2.5l.7.5c.2.1.4.2.4-.1 0 0-.2 0-.3-.2 0 0 .1 0 .3-.1.1-.1 0-.5.2-.5l.8.2s0 .3-.1.5c0 0 0 .3.1.3h-.3v.1c0 .2.2.5.3.5.3.1.7.5.7.5.1 0 .3 0 .4-.1.1-.1.1-.2 0-.3 0-.2-.2-.4-.4-.6 0-.1-.1-.1-.1-.2 0 0-.3-.4-.1-.7.2-.3.5-.2.5-.2.2-.2.4-.1.6.2.1.3-.2.4 0 .9-.2 0-.8-.5-.6-.9h-.2c-.1 0-.2 0-.2.1-.1.1 0 .4.1.5 0 0 .1.1.1.2.2.2.4.5.4.7 0 .2 0 .3-.1.5-.1.1-.3.2-.5.2 0 .1 0 .1.1.2s.1.2.1.2c-.2.2-.1.4 0 .5.1.1.3 0 .3 0 .1.8-.9 1.2-.9 1.2 0 .1.1 0 .1.1.1.2-.1.3-.1.3 0-.1 0-.2-.1-.2s-.2.3-.2.3c-.1-.1.1-.3.1-.3-.1 0-.3.2-.3.2 0-.1.1-.3.1-.3-.1 0-.3.2-.3.2 0-.4.3-.4.5-.4.6 0 .4-.7.4-.7-.3.3-.5.1-.5.1.1-.1.2-.2.2-.4-.1-.5-.1-.6 0-.7 0-.1-.1 0-.1 0-.1.3-.6.6-.6.6.1 0 .3.1.3.1 0 .1-.1.2-.3.2v1.5h2.5v-5.9z"/><path id="XMLID_732_" class="st1" d="M69.3 12.2c-1 .1-1.5.4-1.6 1.1-.1.5-.1 1.2-.1 2.7v.9c0 2-.3 3.5-1.4 4.6-.8.9-1.9 1.3-3.3 1.3-1.1 0-2.2-.3-3-.9-1-.8-1.5-2.1-1.5-4.2V14c0-1.6-.2-1.7-1.5-1.8v-.6h5v.6c-1.4.1-1.5.2-1.5 1.8v3.2c0 2.8 1 4.4 3.1 4.4 2.4 0 3.2-1.9 3.2-4.9V16c0-1.5-.1-2.2-.2-2.7-.1-.7-.5-1-1.7-1.1v-.6h4.5v.6zM81 13c.6 0 1.1-.5 1.1-1.1 0-.6-.5-1.1-1.1-1.1-.6 0-1.1.5-1.1 1.1 0 .6.5 1.1 1.1 1.1zm2.4 9.5V22c-1.1-.1-1.3-.2-1.3-1.4v-6.1c-.7.2-2.3.6-3.2.7v.5c1 .2 1.3.2 1.3 1.4v3.6c0 1.2-.2 1.3-1.3 1.4v.5h4.5zm10.5-5.1c.1-1.3.8-2.3 1.7-2.3.9 0 1.3.9 1.3 1.9 0 .3-.1.4-.4.4h-2.6zm4.5.6c.3 0 .5-.2.5-.5 0-2-1.3-3-3.1-3-.9 0-1.8.3-2.6 1.1s-1.3 2-1.3 3.3c0 2 1.4 3.8 3.7 3.8.7 0 2-.4 3.1-1.8l-.3-.4c-.6.6-1.3.8-2.1.8-1.3 0-2.6-.7-2.6-3.1l4.7-.2zm27.1-.6c.1-1.3.8-2.3 1.7-2.3.9 0 1.3.9 1.3 1.9 0 .3-.1.4-.4.4h-2.6zm4.4.6c.3 0 .5-.2.5-.5 0-2-1.3-3-3.1-3-.9 0-1.8.3-2.6 1.1s-1.3 2-1.3 3.3c0 2 1.4 3.8 3.7 3.8.7 0 2-.4 3.1-1.8l-.3-.4c-.6.6-1.3.8-2.1.8-1.3 0-2.6-.7-2.6-3.1l4.7-.2zm-27.2-1.6v-2c-1 .4-1.9.6-2.9.7v.5c.9.2 1.1.2 1.1 1.3v3.8c0 1.1-.2 1.2-1.2 1.3v.5h4.6V22c-1.4-.1-1.5-.2-1.5-1.3v-3.3c.4-.9.8-1.2 1.2-1.2.3 0 .6.2.9.4.1.1.3.1.4 0 .4-.3.7-.8.7-1.3s-.5-.9-1.1-.9c-.8 0-1.6 1-2.2 2zm9.1.3c0-.4-.2-1.6-.4-2-.4-.2-.9-.3-1.7-.3-1.8 0-2.9 1.1-2.9 2.4 0 1.5 1.3 2.1 2.3 2.6 1 .5 1.4.9 1.4 1.6 0 .7-.5 1.1-1.2 1.1-1.1 0-1.9-1.1-2.3-2.3l-.5.1c0 .8.2 2 .3 2.3.3.3 1.2.6 2.2.6 1.5 0 3.1-.9 3.1-2.6 0-1.3-1-2-2.4-2.6-.9-.4-1.5-.8-1.5-1.5 0-.6.5-1.1 1.1-1.1 1 0 1.5.7 1.9 1.8l.6-.1zm3.3-3.7c.6 0 1.1-.5 1.1-1.1 0-.6-.5-1.1-1.1-1.1-.6 0-1.1.5-1.1 1.1 0 .6.5 1.1 1.1 1.1zm2.4 9.5V22c-1.1-.1-1.3-.2-1.3-1.4v-6.1c-.7.2-2.2.6-3.1.7v.5c1 .2 1.3.2 1.3 1.4v3.6c0 1.2-.2 1.3-1.3 1.4v.5h4.4zm15.8-9.5c.6 0 1.1-.5 1.1-1.1 0-.6-.5-1.1-1.1-1.1-.6 0-1.1.5-1.1 1.1 0 .6.5 1.1 1.1 1.1zm2.3 9.5V22c-1.1-.1-1.3-.2-1.3-1.4v-6.1c-.7.2-2.2.6-3.1.7v.5c1 .2 1.3.2 1.3 1.4v3.6c0 1.2-.2 1.3-1.3 1.4v.5h4.4zm1.6-9.2v1.4h-1l-.3.6v.2h1.3v4.9c0 1.5.9 2.2 2.1 2.2.3 0 .4-.1.6-.1.3-.1 1.2-.6 1.6-.9l-.2-.5c-.3.1-.8.3-1.1.3-.4 0-1-.3-1-1.7v-4.3h2c.2-.2.2-.6.2-.8h-2.2v-2.4l-.3-.1c-.5.5-1.3 1-1.7 1.2zm-18.2 0v1.4h-1l-.3.6v.2h1.3v4.9c0 1.5.9 2.2 2.1 2.2.3 0 .4-.1.6-.1.3-.1 1.2-.6 1.6-.9l-.2-.5c-.3.1-.8.3-1.1.3-.4 0-1-.3-1-1.7v-4.3h2c.2-.2.2-.6.2-.8H121v-2.4l-.2-.1c-.5.5-1.3 1-1.8 1.2zm-30.4 9.2c.9-2.7 1.4-4.4 2.1-6.2.3-.8.5-1 1.3-1.1v-.5h-3.4v.5c.2 0 .5.1.6.1.4.1.5.4.3.9L88 21.4l-1.4-5.1c-.1-.5-.1-.8.1-.9.2-.1.6-.1.7-.2v-.5h-4.2v.5c1 .1.9.2 1.3 1.1l2 6.1h2.1zm-19.4-7c1 .2 1.3.2 1.3 1.4v3.7c0 1.2-.2 1.2-1.4 1.4v.5h4.3V22c-.9-.1-1.1-.2-1.1-1.3v-4.3c.5-.4 1.1-.7 1.5-.7.9 0 1.6.5 1.6 1.8v3.1c0 1.3-.1 1.4-1 1.5v.5h4.1V22c-1-.1-1.2-.2-1.2-1.3v-3.4c0-1.8-.8-2.8-2.2-2.8-.5 0-.9.2-1.2.3l-1.5 1v-1.4c-.7.2-2.3.6-3.1.7v.4zM77.5 31c.6 0 1.1-.5 1.1-1.1 0-.6-.5-1.1-1.1-1.1-.6 0-1.1.5-1.1 1.1 0 .6.5 1.1 1.1 1.1zm2.3 9.4v-.5c-1.1-.1-1.3-.2-1.3-1.4v-6.1c-.7.2-2.2.6-3.1.7v.5c1 .1 1.3.2 1.3 1.4v3.6c0 1.2-.2 1.3-1.3 1.4v.5h4.4zm-10.3-5.1c.1-1.3.8-2.3 1.7-2.3.9 0 1.3.9 1.3 1.9 0 .3-.1.4-.4.4h-2.6zm4.5.6c.3 0 .5-.2.5-.5 0-2-1.3-3-3.1-3-.9 0-1.8.3-2.6 1.1s-1.3 2-1.3 3.3c0 2 1.4 3.8 3.7 3.8.7 0 2-.4 3.1-1.8l-.3-.4c-.6.6-1.3.8-2.1.8-1.3 0-2.6-.7-2.6-3.1l4.7-.2zm17.9-.6c.1-1.3.8-2.3 1.7-2.3.9 0 1.3.9 1.3 1.9 0 .3-.1.4-.4.4h-2.6zm4.5.6c.3 0 .5-.2.5-.5 0-2-1.3-3-3.1-3-.9 0-1.8.3-2.6 1.1s-1.3 2-1.3 3.3c0 2 1.4 3.8 3.7 3.8.7 0 2-.4 3.1-1.8l-.3-.4c-.6.6-1.3.8-2.1.8-1.3 0-2.6-.7-2.6-3.1l4.7-.2zm-30.3 1.4c-.3.9-.7 1.4-1 1.7-.5.4-1.1.7-1.8.7s-1.1 0-1.4-.2c-.3-.2-.4-.5-.4-1.4v-6.2c0-1.5.2-1.6 1.6-1.8v-.6H58v.6c1.4.1 1.6.2 1.6 1.8v6.2c0 1.5-.2 1.6-1.8 1.8v.6h8.4c.2-.5.5-2.3.7-3l-.8-.2zm20 1.7c-.4.3-.9.5-1.4.5-1 0-2.3-.9-2.3-3.1 0-2.7 1.4-3.2 2-3.2.7 0 1.2.2 1.6.8v5zm3.3.5l-.5-.1c-.7-.1-.9-.2-.9-1.1v-10c-.8.2-2.2.5-3.3.6v.5c1.2.1 1.4.2 1.4 1.3v1.9c-.4-.1-1-.1-1.2-.1-2.9 0-4.5 2-4.5 4.4 0 2.6 1.8 3.8 3.3 3.8.2 0 .7 0 1.3-.3l1.1-.7v1.1c.7-.2 2.3-.5 3.3-.7v-.6zm8.2-6c1 .2 1.3.2 1.3 1.4v3.7c0 1.2-.2 1.2-1.3 1.4v.5h4.2V40c-.9-.1-1-.2-1-1.3v-4.3c.5-.4 1.1-.7 1.5-.7.8 0 1.6.5 1.6 1.8v3.1c0 1.3-.1 1.4-1 1.5v.5h4v-.5c-1-.1-1.2-.2-1.2-1.3v-3.4c0-1.8-.9-2.8-2.3-2.8-.5 0-.9.2-1.1.3l-1.5 1v-1.4c-.7.2-2.2.6-3.1.7v.3z"/><g id="XMLID_700_"><path id="XMLID_730_" class="st1" d="M66 55.5v-.3c.5-.1.6-.1.6-.8v-1.8c0-.8-.3-1.2-.9-1.2-.3 0-.6.1-.9.4v2.6c0 .6.1.7.6.8v.3H63v-.3c.6-.1.7-.1.7-.8v-5.2c-.5-.1-1.1-.1-2.1-.1h-.5v5c0 .9.1 1 1 1v.3H59v-.3c.8-.1.9-.1.9-1v-5h-.5c-.9 0-1.1.1-1.3.3-.1.2-.3.5-.4.9h-.4c.1-.7.1-1.4.1-2h.2c.2.2.3.3.6.3h4.3c.8 0 1-.1 1-.2v-.1c.3-.1.8-.2 1.1-.3v3.4c.4-.4.9-.7 1.4-.7.9 0 1.5.6 1.5 1.7v1.9c0 .7.1.7.6.8v.3H66z"/><path id="XMLID_727_" class="st1" d="M72.9 54.5c-.6.9-1.4 1.1-1.8 1.1-1.4 0-2.1-1-2.1-2.2 0-.8.3-1.4.7-1.9.5-.5 1-.8 1.6-.8.9 0 1.7.8 1.7 1.6 0 .2-.1.3-.3.4-.2 0-1.5.1-2.6.2 0 1.2.7 1.8 1.5 1.8.4 0 .8-.1 1.2-.5l.1.3zm-2.8-2h1.4c.2 0 .2 0 .2-.2 0-.5-.3-1.1-.7-1.1-.4 0-.8.4-.9 1.3z"/><path id="XMLID_725_" class="st1" d="M82.4 49c-.6 0-.8.2-.8.6 0 .3-.1.8-.1 1.8v4.2H81l-4.4-5.3v2.5c0 .9 0 1.4.1 1.7.1.5.3.7 1 .7v.3h-2.5v-.3c.6 0 .8-.2.9-.7 0-.3.1-.8.1-1.8v-2.2c0-.7 0-.9-.2-1.1-.2-.3-.4-.3-.9-.4v-.3h1.8l4.1 4.8v-2.1c0-.9-.1-1.4-.1-1.7-.1-.5-.3-.6-1-.7v-.3h2.5v.3z"/><path id="XMLID_722_" class="st1" d="M86.7 54.5c-.6.9-1.4 1.1-1.8 1.1-1.4 0-2.1-1-2.1-2.2 0-.8.3-1.4.7-1.9.5-.5 1-.8 1.6-.8.9 0 1.7.8 1.7 1.6 0 .2-.1.3-.3.4-.2 0-1.5.1-2.6.2 0 1.2.7 1.8 1.5 1.8.4 0 .8-.1 1.2-.5l.1.3zm-2.8-2h1.4c.2 0 .2 0 .2-.2 0-.5-.3-1.1-.7-1.1-.4 0-.8.4-.9 1.3z"/><path id="XMLID_720_" class="st1" d="M89.4 55.5c-.2.1-.3.1-.4.1-.8 0-1.2-.4-1.2-1.3v-3h-.7l-.1-.1.3-.3h.4v-.8l1-.8.1.1v1.5h1.1c.1.1.1.4-.1.5h-1V54c0 .8.4.9.6.9.2 0 .4-.1.6-.1l.1.3-.7.4z"/><path id="XMLID_718_" class="st1" d="M93.4 55.5v-.3c.5-.1.6-.1.6-.8v-1.8c0-.8-.3-1.2-.9-1.2-.3 0-.6.1-.9.4v2.6c0 .6.1.7.6.8v.3h-2.4v-.3c.6-.1.7-.1.7-.8v-4.9c0-.7 0-.7-.6-.7v-.3c.5-.1 1.2-.2 1.8-.4v3.4c.4-.4.9-.7 1.4-.7.9 0 1.4.6 1.4 1.8v1.9c0 .7.1.7.6.8v.3h-2.3z"/><path id="XMLID_715_" class="st1" d="M100.3 54.5c-.6.9-1.4 1.1-1.8 1.1-1.4 0-2.1-1-2.1-2.2 0-.8.3-1.4.7-1.9.5-.5 1-.8 1.6-.8.9 0 1.7.8 1.7 1.6 0 .2-.1.3-.3.4-.2 0-1.5.1-2.6.2 0 1.2.7 1.8 1.5 1.8.4 0 .8-.1 1.2-.5l.1.3zm-2.8-2h1.4c.2 0 .2 0 .2-.2 0-.5-.3-1.1-.7-1.1-.4 0-.8.4-.9 1.3z"/><path id="XMLID_713_" class="st1" d="M102.7 51.9c.4-.6.8-1.1 1.2-1.1.4 0 .7.3.7.6s-.2.6-.5.7c-.1.1-.2 0-.3 0-.2-.1-.3-.2-.5-.2s-.5.2-.7.7v1.9c0 .7.1.7.9.8v.3h-2.7v-.3c.6-.1.7-.1.7-.8v-2.3c0-.6-.1-.6-.6-.7v-.3c.6-.1 1.2-.2 1.8-.4v1.1z"/><path id="XMLID_711_" class="st1" d="M104.8 55.5v-.3c.6-.1.7-.1.7-.8v-4.9c0-.7-.1-.7-.7-.8v-.3c.6-.1 1.3-.2 1.8-.4v6.3c0 .7.1.8.7.8v.3h-2.5z"/><path id="XMLID_708_" class="st1" d="M111.2 55.6c-.2 0-.5-.1-.6-.2-.1-.1-.2-.3-.3-.4-.4.3-.9.6-1.1.6-.8 0-1.4-.7-1.4-1.3 0-.5.3-.8.8-1 .6-.2 1.4-.5 1.7-.7v-.3c0-.7-.3-1.1-.7-1.1-.2 0-.3.1-.4.2-.1.1-.2.4-.3.7-.1.2-.2.3-.4.3s-.6-.2-.6-.5c0-.2.1-.3.4-.5.4-.3 1.1-.6 1.7-.7.4 0 .7.1 1 .3.4.3.5.8.5 1.3v1.8c0 .5.2.6.3.6.1 0 .3 0 .4-.1l.1.3-1.1.7zm-.9-2.6c-.2.1-.5.3-.7.4-.4.2-.5.4-.5.7 0 .6.4.8.7.8.2 0 .4-.1.6-.2V53z"/><path id="XMLID_706_" class="st1" d="M115.5 55.5v-.3c.5-.1.6-.1.6-.9v-1.8c0-.7-.3-1.1-.8-1.1-.3 0-.6.2-.9.4v2.5c0 .7.1.7.6.8v.3h-2.4v-.3c.7-.1.7-.1.7-.8v-2.2c0-.7-.1-.7-.6-.8V51c.6-.1 1.2-.2 1.7-.4v.8c.2-.1.4-.3.7-.5.3-.2.5-.3.8-.3.8 0 1.4.6 1.4 1.6v2c0 .7.1.7.6.8v.3h-2.4z"/><path id="XMLID_703_" class="st1" d="M123.6 55.2c-.2 0-1.2.2-1.9.4V55l-.6.4c-.3.2-.5.2-.6.2-.9 0-2.1-.7-2.1-2.3 0-1.4 1.3-2.6 2.8-2.6.1 0 .3 0 .5.1v-1.3c0-.6-.1-.7-.7-.7v-.3c.6-.1 1.4-.2 1.9-.4v6.1c0 .6.1.6.5.7h.3v.3zm-1.9-3.5c-.2-.4-.5-.5-.9-.5-.3 0-1.2.3-1.2 1.9 0 1.3.8 1.8 1.3 1.8.3 0 .5-.1.7-.2v-3z"/><path id="XMLID_701_" class="st1" d="M126.9 52.2c-.3-.6-.6-1.1-1.1-1.1-.3 0-.6.3-.6.6 0 .4.3.6.8.8.8.4 1.4.7 1.4 1.5 0 1-1 1.5-1.8 1.5-.5 0-1.1-.2-1.3-.4-.1-.2-.2-.9-.2-1.4h.3c.2.7.7 1.4 1.3 1.4.4 0 .6-.3.6-.6 0-.4-.2-.6-.8-.9-.5-.3-1.3-.6-1.3-1.5 0-.8.6-1.4 1.7-1.4.5 0 .7.1 1 .2.1.2.2.9.3 1.2l-.3.1z"/></g></g></svg>