<svg id="Capa_1" xmlns="http://www.w3.org/2000/svg" viewBox="0 0 136.1 60"><style>.st0{fill:#FFD500;} .st1{fill:#0072BB;}</style><g id="XMLID_632_"><path id="XMLID_698_" class="st0" d="M28.8 15.9L17.9 34.5.2 37.3 11 43.2 0 60l17.8-10.4 11.1 9.6v-16l17.6-13.3-17.7 2.9z"/><path id="XMLID_697_" class="st1" d="M28.8 23.4v-7.5l-5.7 9.7z"/><path id="XMLID_696_" class="st1" d="M21.9 37.5c-.6 0-1.5.4-1.9 1.3 0 0-.4.9-5.6 14.9 1.9-.2 3.1-.5 3.1-.5l5.4-14.3c.2-.8-.4-1.4-1-1.4"/><path id="XMLID_695_" class="st1" d="M5 39.9c-2.2 2.9-3.8 6.3-2.9 9.6.9 3.5 4.5 4.5 8.2 4.6 1 0 3.1-.3 3.1-.3l5.5-14.6c.3-.7-.3-1.4-1-1.4s-1.5.4-1.9 1.3l-5.5 14.6c-2-.1-3.9-.5-5.4-1.5-2.2-1.5-2.3-4.2-1.6-6.5.6-1.9 1.6-3.6 2.8-5.2L5 39.9z"/><path id="XMLID_694_" class="st1" d="M50 24c1.3 2.4.3 5.1-.8 7.4-1.7 3.3-4.4 6.1-7.2 8.6-1.3 1.2-2.7 2.3-4.1 3.4.9-.4 1.8-.8 2.7-1.3l.9-.6c1.1-.9 2.2-1.8 3.2-2.7 3.8-3.5 10.7-10.7 7.6-16.4-3.3-5.4-12.6-3.2-17.4-1.8-9 2.6-17.7 7.6-24.6 14l-1.7 1.7 2.4-.4c2.8-2.6 5.9-4.8 9.2-6.9 5.6-3.5 12-6.3 18.5-7.4 3.5-.9 9.1-1.3 11.3 2.4z"/><path id="XMLID_693_" class="st1" d="M26.1 36.8c-.6 0-1.5.4-1.9 1.3L18.5 53s2.2-.5 3.3-.8l.7-1.9 4.6-12.1c.2-.7-.4-1.4-1-1.4"/><g id="XMLID_672_"><path id="XMLID_691_" class="st1" d="M39.4 0l-.3 2.3h-5.7L33 5.6h5l-.3 2.3h-5l-.5 3.6h7.2l-.4 2.3H28.9L30.8 0h8.6z"/><path id="XMLID_689_" class="st1" d="M49.3 4.6L48 13.8h-2.7l.2-1c-1 .8-1.9 1.2-3 1.2-.9 0-1.5-.3-2-.8s-.7-1.2-.7-2.1v-.7l.8-5.8h2.7l-.7 4.9c-.1.4-.1.8-.1 1.1 0 .9.3 1.4.8 1.4.7 0 1.5-.4 2.3-1.3l.8-6h2.9z"/><path id="XMLID_687_" class="st1" d="M53.5 4.6l-.2 1.3c.8-1 1.6-1.5 2.2-1.5.5 0 1.1.3 1.6 1L55.9 8c-.4-.6-.9-1-1.3-1s-.7.2-1.1.6c-.4.4-.6.6-.6.8l-.8 5.5h-2.7l1.3-9.2h2.8z"/><path id="XMLID_684_" class="st1" d="M59.8 11.2c-.4-.4-.5-.9-.5-1.5 0-.7.2-1.4.6-2 .4-.7 1-1 1.7-1 .5 0 1 .2 1.3.6.3.4.5.9.5 1.5 0 .8-.2 1.5-.7 2.1-.4.6-1 1-1.7 1-.4-.1-.8-.3-1.2-.7zM58 6c-1 1-1.6 2.2-1.6 3.6 0 1.2.4 2.3 1.3 3.1.9.9 2 1.3 3.3 1.3 1.5 0 2.7-.5 3.7-1.5s1.5-2.2 1.5-3.7c0-1.3-.4-2.3-1.3-3.1S63 4.5 61.6 4.5c-1.3 0-2.5.5-3.6 1.5z"/><path id="XMLID_681_" class="st1" d="M71.6 6.5c1.4 0 2.1.7 2.1 2 0 .9-.3 1.7-.8 2.3-.5.6-1.3.9-2.2.9-.3 0-.6-.1-.8-.2l.7-5h1zm-3.2-3.7l-.5 3.3c-.8.7-1.5 1.4-1.9 2.1-.4.7-.6 1.2-.6 1.5 0 .1.1.2.2.2.2 0 .3-.2.6-.5.4-.6.9-1.1 1.5-1.5l-1.4 10.4H69l.7-4.7c.5.1.9.2 1.2.2 1.6 0 3-.5 4.1-1.6 1.1-1.1 1.7-2.4 1.7-3.9 0-1.2-.4-2.2-1.1-2.9-.7-.7-1.7-1.1-2.9-1.1-.6 0-1.1.1-1.7.2l.2-1.8h-2.8z"/><path id="XMLID_678_" class="st1" d="M81.9 6.3c.4 0 .7.1 1 .4.2.2.4.6.4 1V8H80c.4-1.1 1-1.7 1.9-1.7zm4 2c0-1.2-.4-2.1-1.1-2.8-.7-.7-1.7-1.1-2.9-1.1-1.4 0-2.5.5-3.5 1.5s-1.5 2.2-1.5 3.6.4 2.4 1.2 3.2c.8.8 1.9 1.2 3.3 1.2.9 0 2-.2 3.2-.7l.5-2.3c-1.5.6-2.6.9-3.4.9-.7 0-1.2-.2-1.6-.6-.4-.4-.6-1-.5-1.7h6c.3-.4.3-.8.3-1.2z"/><path id="XMLID_675_" class="st1" d="M90.5 11.9c-.4 0-.7-.2-1-.5-.2-.3-.4-.7-.4-1.3 0-1 .3-1.8.8-2.4.6-.7 1.4-1 2.5-1h.6l-.6 4.3c-.6.7-1.2.9-1.9.9zM93 4.5c-2.1 0-3.8.5-4.9 1.6-1.1 1-1.7 2.4-1.7 4 0 1.2.3 2.1.9 2.8.6.7 1.4 1.1 2.3 1.1.9 0 1.8-.3 2.6-1l-.1.9h2.7l1.3-9c-1-.3-2-.4-3.1-.4z"/><path id="XMLID_673_" class="st1" d="M100 4.6l-.1 1c1-.8 2.1-1.2 3.1-1.2.8 0 1.4.2 1.8.7.4.5.6 1.2.6 2.1 0 .3 0 .5-.1.8l-.8 5.7h-2.7l.8-5.5v-.5c0-.9-.3-1.4-.8-1.4-.6 0-1.4.5-2.3 1.4l-.8 5.9H96l1.3-9.2h2.7z"/></g><g id="XMLID_633_"><path id="XMLID_670_" class="st1" d="M66.2 18.4l-.4 2.4c-.5-.4-1.1-.7-1.7-.9-.6-.2-1.2-.3-1.7-.3-.6 0-1 .1-1.4.4-.4.3-.6.6-.6 1.1 0 .3.1.5.3.8.2.3.9.7 2 1.4s1.8 1.3 2.2 1.9c.4.6.6 1.3.6 2 0 1.2-.4 2.2-1.3 3-.8.8-2 1.2-3.4 1.2-1.8 0-3.4-.4-4.7-1.3l.4-2.4c.6.4 1.3.8 2 1 .7.3 1.4.4 1.9.4.6 0 1.1-.1 1.4-.4.4-.3.5-.6.5-1.1 0-.3-.1-.6-.4-1-.2-.3-.9-.8-2-1.5s-1.8-1.3-2.2-1.9c-.3-.6-.5-1.2-.5-1.8 0-1.2.5-2.2 1.4-3 .9-.8 2.1-1.2 3.5-1.2 1.6.1 2.9.5 4.1 1.2z"/><path id="XMLID_668_" class="st1" d="M74.5 22.3l-.3 2.5c-.5-.2-.8-.3-1-.3-.2 0-.5-.1-1-.1-.9 0-1.7.3-2.3.8-.6.5-.9 1.2-.9 2 0 .7.2 1.2.6 1.5.4.4 1 .6 1.8.6.7 0 1.6-.2 2.6-.6l-.3 2.5c-.9.2-1.9.3-2.8.3-1.4 0-2.5-.4-3.4-1.2-.9-.8-1.3-1.9-1.3-3.2 0-1.4.6-2.6 1.7-3.6s2.5-1.5 4.2-1.5c.9 0 1.7.1 2.4.3z"/><path id="XMLID_666_" class="st1" d="M79.6 17.5l-.8 5.7c1-.8 2-1.2 3.1-1.2.8 0 1.4.2 1.9.7.5.5.7 1.1.7 2v.7l-.8 5.9H81l.8-5.9c0-.3 0-.6-.2-.9-.2-.2-.4-.4-.7-.4-.6 0-1.4.4-2.3 1.2l-.8 6h-2.7L77 17.5h2.6z"/><path id="XMLID_646_" class="st1" d="M88.6 28.7c-.4-.4-.5-.9-.5-1.5 0-.7.2-1.4.6-2 .4-.7 1-1 1.7-1 .5 0 1 .2 1.3.6.3.4.5.9.5 1.5 0 .8-.2 1.5-.7 2.1-.4.6-1 1-1.7 1-.4-.2-.9-.3-1.2-.7zm-1.8-5.2c-1 1-1.6 2.2-1.6 3.6 0 1.2.4 2.3 1.3 3.1.9.9 2 1.3 3.3 1.3 1.5 0 2.7-.5 3.7-1.5s1.5-2.2 1.5-3.7c0-1.3-.4-2.3-1.3-3.1-.8-.8-1.9-1.2-3.3-1.2s-2.6.5-3.6 1.5z"/><path id="XMLID_643_" class="st1" d="M99.1 28.7c-.4-.4-.5-.9-.5-1.5 0-.7.2-1.4.6-2 .4-.7 1-1 1.7-1 .5 0 1 .2 1.3.6.3.4.5.9.5 1.5 0 .8-.2 1.5-.7 2.1-.4.6-1 1-1.7 1-.4-.2-.8-.3-1.2-.7zm-1.8-5.2c-1 1-1.6 2.2-1.6 3.6 0 1.2.4 2.3 1.3 3.1.9.9 2 1.3 3.3 1.3 1.5 0 2.7-.5 3.7-1.5s1.5-2.2 1.5-3.7c0-1.3-.4-2.3-1.3-3.1-.8-.8-1.9-1.2-3.3-1.2-1.3 0-2.5.5-3.6 1.5z"/><path id="XMLID_641_" class="st1" d="M110.5 17.5l-1.9 13.8h-2.7l1.9-13.8h2.7z"/><path id="XMLID_639_" class="st1" d="M113.9 22.1l-.1 1c1-.8 2.1-1.2 3.1-1.2.8 0 1.4.2 1.8.7.4.5.6 1.2.6 2.1 0 .3 0 .5-.1.8l-.8 5.7h-2.7l.8-5.5v-.5c0-.9-.3-1.4-.8-1.4-.6 0-1.4.5-2.3 1.4l-.8 5.9h-2.7l1.3-9.2h2.7z"/><path id="XMLID_636_" class="st1" d="M125 23.8c.4 0 .7.1 1 .4.2.2.4.6.4 1v.3h-3.2c.3-1.1 1-1.7 1.8-1.7zm4 2c0-1.2-.4-2.1-1.1-2.8-.7-.7-1.7-1.1-2.9-1.1-1.4 0-2.5.5-3.5 1.5S120 25.6 120 27s.4 2.4 1.2 3.2c.8.8 1.9 1.2 3.3 1.2.9 0 2-.2 3.2-.7l.5-2.3c-1.5.6-2.6.9-3.4.9-.7 0-1.2-.2-1.6-.6-.4-.4-.6-1-.5-1.7h6c.3-.4.3-.8.3-1.2z"/><path id="XMLID_634_" class="st1" d="M134.5 20.2l-.4 1.9h2l-.4 2h-2l-.5 3c0 .3-.1.5-.1.7 0 .8.3 1.2.8 1.2.3 0 .9-.2 1.6-.6v2.4c-.8.4-1.6.6-2.4.6-.9 0-1.6-.3-2.1-.8-.5-.6-.8-1.3-.8-2.2 0-.3 0-.5.1-.8l.6-3.5H129l.3-2h1.9l.3-1.9h3z"/></g></g></svg>