<svg id="Capa_1" xmlns="http://www.w3.org/2000/svg" viewBox="0 0 162.3 48"><style>.st0{fill:#1D1D1B;} .st1{fill:#FFFFFF;}</style><g id="XMLID_613_"><path id="XMLID_626_" class="st0" d="M0 0v48h58.6c-.5-.3-.9-.7-1.3-1-3.4-3.3-3.4-7.1-3.5-10.7V16h10.9v21.3c0 1.4 0 2.9 1.3 4.1.9.9 2.2 1.3 3.4 1.3 1.7 0 2.8-.6 3.4-1.2 1.3-1.2 1.3-2.7 1.3-4.1V16H85v18.1c0 3.9 0 9-4 12.8-.4.4-.8.7-1.3 1H96c-4.8-3.4-7-9.2-7-14.7 0-9.2 6.2-18.5 17.7-18.5 5.2 0 10.1 1.8 13.7 5.5 1.5 1.5 2.1 2.7 2.9 4l-9.1 4.5c-.9-2-2.5-5.6-7.1-5.6-2.4 0-3.9 1.1-4.6 1.8-2.6 2.5-2.6 6.3-2.6 7.7 0 5.1 1.9 9.8 7.2 9.8 5 0 6.5-4.4 6.9-5.6l9.2 4.4c-.9 1.6-1.7 3.2-3.3 4.8-.7.7-1.5 1.3-2.3 1.9h10V16h10.8v25.2h14V48h9.9V0H0z"/><g id="XMLID_614_"><path id="XMLID_625_" class="st1" d="M48.3 23.1l-5.6-1.2-5.7 1.2.1.3s.1 0 .1.1l.1.5H47.9l.1-.5c0-.1.1-.1.1-.1l.2-.3z"/><path id="XMLID_623_" class="st1" d="M47.7 24.1v-.2h-.9v.1s0 .1.1.2V27.8h.8V24.4v-.1-.1c-.1.1-.1 0 0-.1-.1 0-.1 0 0 0z"/><path id="XMLID_622_" class="st1" d="M45.8 24.1v-.2H45v.1s0 .1.1.2V27.8h.8V24.4v-.1-.1c-.1.1-.1 0-.1-.1z"/><path id="XMLID_621_" class="st1" d="M44 24.1v-.2h-.9v.1s0 .1.1.2V27.8h.8V24.4v-.1-.1c-.1.1-.1 0 0-.1-.1 0-.1 0 0 0z"/><path id="XMLID_620_" class="st1" d="M42.1 24.1v-.2h-.9v.1s0 .1.1.2V27.8h.8V24.4v-.1-.1-.1z"/><path id="XMLID_619_" class="st1" d="M40.3 24.1v-.2h-.9v.1s0 .1.1.2V27.8h.8V24.4v-.1-.1c-.1.1-.1 0 0-.1-.1 0-.1 0 0 0z"/><path id="XMLID_618_" class="st1" d="M38.4 24.1v-.2h-.9v.1s0 .1.1.2V27.8h.8V24.4v-.1-.1-.1z"/><g id="XMLID_616_"><path id="XMLID_617_" class="st1" d="M45.2 20.8h-.1v-.1H45v-.1h-.1c0-.1 0-1-.4-1.6-.4-.5-.8-.8-1.1-.9 0-.1-.2-.2-.2-.2s-.1 0-.1-.1h.1v-.1h-.1v-.1V16.7l-.2-.2-.1-.1-.1.1-.2.2v1h-.1v.1h.1l-.1.1c-.1 0-.2.1-.2.2-.3.1-.8.4-1.1.9-.4.6-.4 1.5-.4 1.6h-.1v.1h-.1v.1h-.1v.1s.1 0 .1.1.1.1.1.1v.4c0 .1-.1.1-.1.1v.4l2.6-.6 2.6.6v-.4s-.1 0-.1-.1v-.4s.1 0 .1-.1.1-.1.1-.1c-.5 0-.5-.1-.6-.1.1 0 0 0 0 0z"/></g><path id="XMLID_615_" class="st1" d="M48.1 29.1v-.8h-.4V28H37.6v.3h-.5v.8h-.4v.7h11.8v-.7z"/></g></g></svg>