<svg id="Capa_1" xmlns="http://www.w3.org/2000/svg" viewBox="0 0 173.8 75"><style>.st0{fill-rule:evenodd;clip-rule:evenodd;fill:#00569C;} .st1{fill:#00569C;}</style><g id="XMLID_533_"><g id="XMLID_580_"><path id="XMLID_601_" class="st0" d="M75.2 9.4c0-.2-.2-5.1 3.6-6.6C82.5 1.4 84.5.7 84.5.7c.1 0 .9-.2 1.1 0 .1.1.3 2.4.4 2.3.1 0 2.2-2 3.6-2.6 1.5-.5 9.8-.4 9.9-.4.1 0 1.7.5 1.7.4.1 0-.2.7-.4 1-.2.2-1.6 2-2.9 2.1-1.2.1-3.1 1-3.5 1.2-.2.2-.8 1.2-2.5 2.4s-3.7 1.2-3.8 2c-.1.7-.1.7.4 1.2.7.6 1.3.9 1.3 1.4 0 .6-.2 1-.8 1.4-.6.4-.6.2-.6.3 0 .1-.2 1.5-.3 2.1-.1.6-1.2 3.6-1.7 4.1-.2.2-.2.4 0 .7.2.3 1.9.7 2.6 1.2.7.5 5.1 3.9 5.5 5.1.3 1.2.3 1.3.5 2.4.2 1 .1.8 1.3 1.7 1.2.7 3.4 2.6 3.6 3.1.2.5.2 1-.5 1.1-.7.2-1.7-.3-2.2-.7-.5-.4-2.8-2.1-3.1-2.3-.3-.3-.9-2.7-.8-3.6.1-.8 0-1.2-.1-1.2 0 0-.8-.8-2.2-1.9-1.4-1.1-2.7-2.7-3.4-2.9-.7-.3-3-1.6-3.5-1.2-.5.3-.5.2-.4.7.1.6 1.5 1.1 1.8 1.8.2.7.8 1 .9 2.2.1 1.2-.2.5-.1.7.2.2 1.7 2.7 1.8 3.1.2.3.3.7-.1.8-.3 0-.7.3-1.1-.2-.3-.5-.9-.9-.9-.9h-.2l-.1 5.8s1.7.3 2.2.3c.6 0 .8-.2.8-.6.1-.3 0-1.3 0-1.3s.2-.9.7-1.1c.5-.1.9-.2.9.5.1.7-.1 3.7-.1 3.7s1.7 1.1 2 1.7c.3.7 1.1 1.2.7 1.7-.4.3-1.2.7-1.6.3-.4-.4-1.2-1.2-1.5-1.7-.2-.4-.7-.6-1.3-.8-.5-.1-3-.8-3-.8s-.3 1.6-.9 2.4c-.6.8-2.1 1.9-3.4.5-1.3-1.5-2-4.4-2-4.8-.1-.4-.2-2-.4-2.3-.2-.2-1.2-.7-1.8-1.6-.6-.7-1.7-2.3-1.3-4.1.3-1.8.7-5.1 1.3-6.5l.6-1.4s-.9-.9-1.2-1.7c-.2-.7-.9-3.9-.9-3.9s-.7-.3-1-1.2c-.4-.9-.3-2 .2-2.5.5-.3.5-.2.5-.5zm1 1.3c-.6 0-.7.7-.3.9.3.2 1.2.2 1.2.2s10.4-.2 10.7-.2c.2-.1.4-.3.3-.7 0-.3-.4-.5-.4-.5l-11.5.3zm5.2 5.4s-.1.7.5.7.6-.7.6-.8c-.1-.1 0-1.9-.1-2.2-.3-.7-1-.4-1 .2v2.1zm4.5-.1s-.1.7.5.7.6-.7.6-.7c0-.1 0-2-.1-2.3-.3-.8-1-.4-1 .2V16zm-2 0s-.1.7.5.8c.6-.1.6-.7.6-.8-.1-.1 0-1.9-.1-2.2-.3-.8-1-.4-1 .2v2zm-7 .2s-.1.7.5.7.6-.7.6-.7c0-.1 0-2-.1-2.3-.3-.7-1-.4-1 .2v2.1zm2-.1s-.1.7.5.8c.6-.1.6-.7.6-.8-.1-.1 0-1.9-.1-2.2-.3-.8-1-.4-1 .2v2zm0 5.5s-.3.7-.7 2.7c-.4 2.1-.8 4.1-.3 4.9.6.7 1.2 1.2 2 1.4.7.1 1.9 0 2.8 0 .8 0 1.3 0 1.4-.5.1-.5 0-1-.2-2.4-.1-1.4-.5-3.3-1.8-4.7-1.2-1.4-2.7-2.1-2.9-1.9-.3.1-.3.5-.3.5zm2.2 11.1c0 1.7-.1 2.2.5 4.1 1.2 3.5 2.3-.2 2.2-2.4-.1-.6-.1-1.2-.1-1.7 0-.3-2.6-.3-2.6 0zM77.2 8.5h5.1s0 .2.4-.4c.3-.6 1.2-1.6 2.6-2.1 1.3-.5 2.2.3 2.2.3s-.7.6-.7 1.1c-.2.6 0 1 0 .7.1-.5 1.8-2 1.8-2s.9-.2 1.7-.7c.6-.4 1.1-1.1 1.4-1.4.8-.8 1.2-1 1.5-1.1.2-.2 2.1-1.2 2.1-1.2s-.4-.2-.7-.2c-.4 0-1.7 0-3.1.1-1.4.2-2.2.7-3.1 1.7-.9 1-1.2 1.1-2.3 1.3-1.1.3-1.5.1-1.8-.3-.3-.3-.1-1.1-.1-1.1s-.2-.2-.5-.3c-.4 0-1.1.3-1.3.7-.2.4-.2.2-.6.2-.2 0-1.6.2-3.1 1.4-1.7 1.1-1.5 3.3-1.5 3.3zM85.4 7s-.5.1-.8.4c-.5.5-.8 1.2-.5 1.2.6 0 1.3 0 1.3-.1V7z"/><path id="XMLID_598_" class="st0" d="M56.3 23.7l2.7 4.2-1.7 1.2.1 1 6.8-4.3-7.9-2.1zm2.5 1.5l2.7 1-1.5.9-1.2-1.9z"/><path id="XMLID_597_" class="st0" d="M58.2 31.5l6.4-2.5.4 1.1-6.5 2.2z"/><path id="XMLID_596_" class="st0" d="M61.2 38.1l1.1-5.5 5 1.8-.2 1-3.2-1.3 1 2-.8.5-1.2-2-.8 3.5z"/><path id="XMLID_595_" class="st0" d="M62.8 40.1l.6.7 3.5-3.2v6l4.4-3.8-.8-.8-2.4 2.1-.1-5.9z"/><path id="XMLID_594_" class="st0" d="M87.7 44.4l.3 7.1h1.2l-.5-7.1z"/><path id="XMLID_593_" class="st0" d="M94.4 43.3l-4.8 2.8 2.6 1.3-1.7 2.2 4.9.8.2-.8-3.2-.6 1.8-1.9-2.4-1.2 3-1.6z"/><path id="XMLID_592_" class="st0" d="M94.4 43.3l4.3-1.8.4.9-1.8.9 2.4 5.5-.9.4-2.5-5.4-1.5.5z"/><path id="XMLID_591_" class="st0" d="M102.1 39.1l-1.5 5.2 5.8.6v-1l-3.8-.3 1.9-1.5-.5-.7-2.1 1.6 1-3.5z"/><path id="XMLID_590_" class="st0" d="M103 38.3v.9l4.4.3 1.4 2.9.8-.6-3.2-6.9-.8.5 1.4 3.2z"/><path id="XMLID_589_" class="st0" d="M108.4 30.8l1.1 5.4 5.2-2-.5-.9-3.3 1.3 1-2.3-.8-.3-1.1 2.3-.7-3.7z"/><path id="XMLID_588_" class="st0" d="M109.2 28.8l-.2.9 6.5 2.3.2-1s-6.4-2.3-6.5-2.2z"/><path id="XMLID_587_" class="st0" d="M110.9 22.5l-.1 1 3.4.4-4.8 3.9 7.1 1.1v-1l-4.8-.6 4.9-4z"/><path id="XMLID_584_" class="st0" d="M73.8 49l5.6-5.9.8 7.7-.8.2-.3-2.3-5.3.3zm4.7-3.4l-2 2.2 2.2-.2-.2-2z"/><path id="XMLID_581_" class="st0" d="M81.7 51.1l.6-7 4.8 2.8-4.2 1.7-.2 2.5h-1zm1.5-5.4l-.2 1.6 2-.6-1.8-1z"/></g><g id="XMLID_534_"><path id="XMLID_578_" class="st1" d="M6.9 74.9H.2c-.1 0-.2-.1-.2-.2v-12c0-.1.1-.2.2-.2h6.7c.1 0 .2.1.2.2V64c0 .1-.1.2-.2.2H2.1c-.1 0-.2.1-.2.2v3c0 .1.1.2.2.2H6c.1 0 .2.1.2.2v1.3c0 .1-.1.2-.2.2H2.1c-.1 0-.2.1-.2.2V73c0 .1.1.2.2.2h4.8c.1 0 .2.1.2.2v1.3c0 .1 0 .2-.2.2z"/><path id="XMLID_576_" class="st1" d="M15.7 74.9H9.1c-.1 0-.2-.1-.2-.2v-12c0-.1.1-.2.2-.2h1.5c.1 0 .2.1.2.2V73c0 .1.1.2.2.2h4.7c.1 0 .2.1.2.2v1.3c0 .1-.1.2-.2.2z"/><path id="XMLID_574_" class="st1" d="M24.1 74.9h-6.6c-.1 0-.2-.1-.2-.2v-12c0-.1.1-.2.2-.2H19c.1 0 .2.1.2.2V73c0 .1.1.2.2.2h4.7c.1 0 .2.1.2.2v1.3c0 .1 0 .2-.2.2z"/><path id="XMLID_572_" class="st1" d="M27.7 74.9h-1.5c-.1 0-.2-.1-.2-.2v-12c0-.1.1-.2.2-.2h1.5c.1 0 .2.1.2.2v12c0 .1 0 .2-.2.2z"/><path id="XMLID_570_" class="st1" d="M38.6 74.9h-1.1c-.3 0-.3 0-.5-.3l-4.5-7.9c-.1-.1-.1-.1-.1 0v8c0 .1-.1.2-.2.2h-1.4c-.1 0-.2-.1-.2-.2v-12c0-.1.1-.2.2-.2h1.1c.2 0 .3 0 .5.3l4.5 8c.1.1.1.1.1 0v-8.1c0-.1.1-.2.2-.2h1.4c.1 0 .2.1.2.2v12c0 .1-.1.2-.2.2z"/><path id="XMLID_567_" class="st1" d="M44.7 75c-2.2 0-3.7-1.2-3.7-3.4v-5.9c0-2.2 1.6-3.4 3.7-3.4s3.7 1.2 3.7 3.4v5.9c0 2.2-1.4 3.4-3.7 3.4zm1.8-9.3c0-1-.8-1.7-1.8-1.7s-1.8.7-1.8 1.7v6c0 1 .8 1.7 1.8 1.7s1.8-.7 1.8-1.7v-6z"/><path id="XMLID_565_" class="st1" d="M54.2 75c-2.2 0-3.7-1.2-3.7-3.4v-5.9c0-2.2 1.6-3.4 3.7-3.4.8 0 1.5.1 2.2.6.6.4 1 .8 1.2 1.2.1.1 0 .3-.1.3l-1.2.7c-.2.1-.3.1-.4-.1-.1-.1 0-.1-.1-.2-.3-.6-.9-.9-1.6-.9-1 0-1.8.7-1.8 1.7v5.9c0 1 .9 1.7 1.8 1.7 1 0 1.7-.8 1.7-1.7v-2.1c0-.1-.1-.2-.2-.2h-1.3c-.1 0-.2-.1-.2-.2v-1.3c0-.1.1-.2.2-.2h3.2c.1 0 .2.1.2.2v3.8c.1 2.1-1.4 3.5-3.6 3.5z"/><path id="XMLID_563_" class="st1" d="M67.2 74.9h-6.7c-.1 0-.2-.1-.2-.2v-12c0-.1.1-.2.2-.2h6.7c.1 0 .2.1.2.2V64c0 .1-.1.2-.2.2h-4.8c-.1 0-.2.1-.2.2v3c0 .1.1.2.2.2h3.9c.1 0 .2.1.2.2v1.3c0 .1-.1.2-.2.2h-3.9c-.1 0-.2.1-.2.2V73c0 .1.1.2.2.2h4.8c.1 0 .2.1.2.2v1.3c0 .1-.1.2-.2.2z"/><path id="XMLID_560_" class="st1" d="M76.9 74.9h-1.1c-.4 0-.5-.1-.6-.4l-1.7-4.9c-.1-.2-.1-.3-.4-.3h-1.8c-.1 0-.2.1-.2.2v5.2c0 .1-.1.2-.2.2h-1.5c-.1 0-.2-.1-.2-.2v-12c0-.1.1-.2.2-.2h4.2c2.2 0 3.5 1.3 3.6 3.3.1 1.1-.4 2.1-1.3 2.8-.1.1-.2.2-.3.2-.1.1-.2.2-.1.3l1.8 5.3c0 .3 0 .5-.4.5zm-3.4-10.7h-2.3c-.1 0-.2.1-.2.2v3c0 .1.1.2.2.2h2.3c1 0 1.7-.7 1.7-1.7 0-.9-.7-1.7-1.7-1.7z"/><path id="XMLID_558_" class="st1" d="M88.9 74.9h-1.3c-.1 0-.2-.1-.2-.2v-7.8h-.1l-2.8 5.7c0 .1-.2.3-.3.3h-.4c-.2 0-.2 0-.3-.2L80.9 67v7.7c0 .1-.1.2-.2.2h-1.4c-.1 0-.2-.1-.2-.2v-12c0-.2.1-.2.2-.2h1.1c.3 0 .4 0 .5.3l3.1 6.5c.1.2.2.1.2 0l3-6.5c.1-.3.2-.3.5-.3h1.1c.2 0 .2.1.2.2v11.9c.1.2.1.3-.1.3z"/><path id="XMLID_555_" class="st1" d="M98.9 74.9h-1.6c-.1 0-.2 0-.2-.1l-.6-2.6c0-.1-.1-.1-.2-.1h-3c-.1 0-.2 0-.2.1l-.6 2.6c0 .1-.1.1-.2.1h-1.5c-.2 0-.3-.1-.2-.3l3.2-12c0-.1.1-.1.2-.1h1.6c.1 0 .2 0 .2.1l3.2 12c.2.1.2.3-.1.3zm-4-10c0-.1-.1-.1-.1 0l-1.1 5.3c-.1.1 0 .3.2.3H96c.2 0 .3-.1.2-.3l-1.3-5.3z"/><path id="XMLID_553_" class="st1" d="M108.5 74.9h-1.1c-.3 0-.3 0-.5-.3l-4.5-7.9c-.1-.1-.1-.1-.1 0v8c0 .1-.1.2-.2.2h-1.4c-.1 0-.2-.1-.2-.2v-12c0-.1.1-.2.2-.2h1.1c.2 0 .3 0 .5.3l4.5 8c.1.1.1.1.1 0v-8.1c0-.1.1-.2.2-.2h1.4c.1 0 .2.1.2.2v12c0 .1-.1.2-.2.2z"/><path id="XMLID_551_" class="st1" d="M113 74.9h-1.5c-.1 0-.2-.1-.2-.2v-12c0-.1.1-.2.2-.2h1.5c.1 0 .2.1.2.2v12c0 .1-.1.2-.2.2z"/><path id="XMLID_549_" class="st1" d="M123.6 62.8s-2.7 3.8-3.4 4.7c2.1.1 3.3 1.4 3.3 3.4v3.8c0 .1-.1.2-.2.2h-1.5c-.1 0-.2-.1-.2-.2v-3.8c0-1.1-.9-1.7-1.9-1.7-1 0-1.9.7-1.9 1.7v3.8c0 .1-.1.2-.2.2h-1.5c-.1 0-.2-.1-.2-.2v-12c0-.1.1-.2.2-.2h1.5c.1 0 .2.1.2.2V67c0 .2.1.3.3.2l.2-.2 3.3-4.5.2-.1h1.7c.1 0 .2.1.2.2s0 .2-.1.2z"/><path id="XMLID_547_" class="st1" d="M127.7 74.9h-1.5c-.1 0-.2-.1-.2-.2v-12c0-.1.1-.2.2-.2h1.5c.1 0 .2.1.2.2v12c0 .1-.1.2-.2.2z"/><path id="XMLID_544_" class="st1" d="M141.4 74.9h-1.6c-.1 0-.2 0-.2-.1l-.6-2.6c0-.1-.1-.1-.2-.1h-3c-.1 0-.2 0-.2.1l-.6 2.6c0 .1-.1.1-.2.1h-1.5c-.2 0-.3-.1-.2-.3l3.2-12c0-.1.1-.1.2-.1h1.6c.1 0 .2 0 .2.1l3.3 12c0 .1 0 .3-.2.3zm-4.1-10c0-.1-.1-.1-.1 0l-1.1 5.3c-.1.1 0 .3.2.3h2.1c.2 0 .3-.1.2-.3l-1.3-5.3z"/><path id="XMLID_542_" class="st1" d="M146.4 75c-2.2 0-3.7-1.2-3.7-3.4v-5.9c0-2.2 1.6-3.4 3.7-3.4.8 0 1.5.1 2.2.6.6.4 1 .8 1.2 1.2.1.1 0 .3-.1.3l-1.2.7c-.2.1-.3.1-.4-.1-.1-.1 0-.1-.1-.2-.3-.6-.9-.9-1.6-.9-1 0-1.8.7-1.8 1.7v5.9c0 1 .9 1.7 1.8 1.7 1 0 1.7-.8 1.7-1.7v-2.1c0-.1-.1-.2-.2-.2h-1.3c-.1 0-.2-.1-.2-.2v-1.3c0-.1.1-.2.2-.2h3.2c.1 0 .2.1.2.2v3.8c.1 2.1-1.4 3.5-3.6 3.5z"/><path id="XMLID_539_" class="st1" d="M156.1 75c-2.2 0-3.7-1.2-3.7-3.4v-5.9c0-2.2 1.6-3.4 3.7-3.4s3.7 1.2 3.7 3.4v5.9c0 2.2-1.5 3.4-3.7 3.4zm1.8-9.3c0-1-.8-1.7-1.8-1.7s-1.8.7-1.8 1.7v6c0 1 .8 1.7 1.8 1.7s1.8-.7 1.8-1.7v-6z"/><path id="XMLID_537_" class="st1" d="M165.6 75c-2.2 0-3.7-1.2-3.7-3.4v-5.9c0-2.2 1.6-3.4 3.7-3.4.8 0 1.5.1 2.2.6.6.4 1 .8 1.2 1.2.1.1 0 .3-.1.3l-1.2.7c-.2.1-.3.1-.4-.1-.1-.1 0-.1-.1-.2-.3-.6-.9-.9-1.6-.9-1 0-1.8.7-1.8 1.7v5.9c0 1 .9 1.7 1.8 1.7 1 0 1.7-.8 1.7-1.7v-2.1c0-.1-.1-.2-.2-.2h-1.3c-.1 0-.2-.1-.2-.2v-1.3c0-.1.1-.2.2-.2h3.2c.1 0 .2.1.2.2v3.8c0 2.1-1.5 3.5-3.6 3.5z"/><path id="XMLID_535_" class="st1" d="M173.6 74.9h-1.5c-.1 0-.2-.1-.2-.2v-12c0-.1.1-.2.2-.2h1.5c.1 0 .2.1.2.2v12c0 .1-.1.2-.2.2z"/></g></g></svg>