<?xml version="1.0" encoding="utf-8"?>
<!-- Generator: Adobe Illustrator 19.0.0, SVG Export Plug-In . SVG Version: 6.00 Build 0)  -->
<svg version="1.1" id="Capa_1" xmlns="http://www.w3.org/2000/svg" xmlns:xlink="http://www.w3.org/1999/xlink" x="0px" y="0px"
	 viewBox="-276 399.2 42.7 42.7" style="enable-background:new -276 399.2 42.7 42.7;" xml:space="preserve">
<style type="text/css">
	.st0{fill:#FFFFFF;}
</style>
<g id="XMLID_1_">
	<g id="XMLID_3_">
		<g id="XMLID_6_">
			<path class="st0" d="M-254.6,433.5c-0.4,0-0.7-0.1-1-0.4l-10.8-10.1c-0.6-0.6-0.6-1.5-0.1-2.1s1.5-0.6,2.1-0.1l9.7,9.1l9.6-9.1
				c0.6-0.6,1.6-0.5,2.1,0.1c0.6,0.6,0.5,1.6-0.1,2.1l-10.6,10C-253.9,433.4-254.2,433.5-254.6,433.5z"/>
		</g>
		<g id="XMLID_5_">
			<path class="st0" d="M-254.6,433.5c-0.8,0-1.5-0.7-1.5-1.5v-23c0-0.8,0.7-1.5,1.5-1.5s1.5,0.7,1.5,1.5v23
				C-253.1,432.8-253.8,433.5-254.6,433.5z"/>
		</g>
	</g>
	<g id="XMLID_4_">
		<path class="st0" d="M-254.6,441.9c-11.8,0-21.4-9.6-21.4-21.4s9.6-21.4,21.4-21.4s21.4,9.6,21.4,21.4S-242.9,441.9-254.6,441.9z
			 M-254.6,402.1c-10.1,0-18.4,8.2-18.4,18.4c0,10.1,8.2,18.4,18.4,18.4c10.1,0,18.4-8.2,18.4-18.4
			C-236.2,410.4-244.5,402.1-254.6,402.1z"/>
	</g>
</g>
</svg>
