<svg xmlns="http://www.w3.org/2000/svg" viewBox="0 0 101.29625 68.806252"><path d="M99.35 66.82H1.948V1.888H99.35V66.82zM0 68.806h101.296V0H0v68.806z" fill="#fff"/><path d="M48.574 16.036l2.05-1.502 2.06 1.502-.785-2.427 2.09-1.5H51.42l-.793-2.458-.784 2.458H47.27l2.087 1.5-.78 2.426zM37.937 18.89l2.056-1.5 2.052 1.5-.778-2.424 2.082-1.5h-2.572l-.785-2.456-.79 2.46-2.568-.005 2.085 1.5-.783 2.426zM32.21 20.307l-.787 2.463-2.572-.006 2.086 1.503-.782 2.425 2.057-1.5 2.055 1.5-.78-2.425 2.084-1.503h-2.572l-.787-2.457zM29.355 35.814l2.056 1.497-.782-2.42 2.087-1.5h-2.57l-.79-2.46-.786 2.463-2.576-.004 2.09 1.5-.783 2.42 2.055-1.496zM32.998 44.044l-.787-2.46-.787 2.46h-2.57l2.085 1.5-.784 2.422 2.057-1.5 2.055 1.5-.78-2.422 2.084-1.5h-2.572zM40.793 51.84l-.786-2.453-.79 2.456-2.57-.003 2.086 1.502-.78 2.423 2.054-1.5 2.056 1.5-.78-2.423 2.084-1.502h-2.574zM51.418 54.666l-.79-2.457-.787 2.46-2.57-.004 2.088 1.5-.78 2.425 2.05-1.5 2.055 1.5-.78-2.424 2.09-1.5h-2.575zM62.04 51.84l-.786-2.453-.788 2.456-2.573-.003 2.083 1.502-.78 2.423 2.058-1.5 2.057 1.5-.783-2.423 2.085-1.502h-2.57zM69.84 44.044l-.79-2.46-.79 2.46h-2.57l2.088 1.5-.783 2.422 2.055-1.5 2.056 1.5-.78-2.422 2.084-1.5h-2.57zM75.237 33.36H72.66l-.785-2.46-.788 2.462-2.572-.002 2.085 1.498-.778 2.426 2.053-1.502 2.053 1.502-.78-2.426 2.09-1.498zM66.994 26.66l2.057-1.5 2.056 1.5-.782-2.426 2.085-1.497h-2.57l-.79-2.458-.788 2.457h-2.57l2.086 1.497-.784 2.425zM61.284 12.51l-.786 2.46-2.574-.004 2.085 1.503-.782 2.426 2.058-1.505 2.052 1.506-.78-2.427 2.09-1.504h-2.58l-.784-2.455z" fill="#fff"/></svg>