<svg id="Capa_1" xmlns="http://www.w3.org/2000/svg" viewBox="0 0 35 35"><style>.st0{fill:#000000;}</style><g id="XMLID_1_"><g id="XMLID_72_"><path id="XMLID_84_" class="st0" d="M17.5 35C7.8 35 0 27.1 0 17.5S7.8 0 17.5 0 35 7.8 35 17.5 27.1 35 17.5 35zm0-32C9.5 3 3 9.5 3 17.5S9.5 32 17.5 32 32 25.5 32 17.5 25.5 3 17.5 3z"/></g><g id="XMLID_73_"><path id="XMLID_74_" class="st0" d="M24.6 17.5c0 .8-.7 1.5-1.5 1.5H19v4.1c0 .8-.7 1.5-1.5 1.5s-1.5-.7-1.5-1.5V19h-4.1c-.8 0-1.5-.7-1.5-1.5S11 16 11.8 16H16v-4.1c0-.8.7-1.5 1.5-1.5s1.5.7 1.5 1.5V16h4.1c.8 0 1.5.6 1.5 1.5z"/></g></g></svg>