<svg xmlns="http://www.w3.org/2000/svg" viewBox="-419.6 279.1 42.7 42.7"><path d="M-398.2 313.5c-.4 0-.7-.1-1-.4L-410 303c-.6-.6-.6-1.5-.1-2.1s1.5-.6 2.1-.1l9.7 9.1 9.6-9.1c.6-.6 1.6-.5 2.1.1.6.6.5 1.6-.1 2.1l-10.6 10c-.2.4-.6.5-.9.5z"/><path d="M-398.2 313.5c-.8 0-1.5-.7-1.5-1.5v-23c0-.8.7-1.5 1.5-1.5s1.5.7 1.5 1.5v23c0 .8-.7 1.5-1.5 1.5z"/><g><path d="M-398.3 321.9c-11.8 0-21.4-9.6-21.4-21.4s9.6-21.4 21.4-21.4 21.4 9.6 21.4 21.4-9.6 21.4-21.4 21.4zm0-39.8c-10.1 0-18.4 8.2-18.4 18.4 0 10.1 8.2 18.4 18.4 18.4 10.1 0 18.4-8.2 18.4-18.4 0-10.1-8.2-18.4-18.4-18.4z"/></g></svg>