<?xml version="1.0" encoding="utf-8"?>
<!-- Generator: Adobe Illustrator 19.0.0, SVG Export Plug-In . SVG Version: 6.00 Build 0)  -->
<svg version="1.1" id="Capa_1" xmlns="http://www.w3.org/2000/svg" xmlns:xlink="http://www.w3.org/1999/xlink" x="0px" y="0px"
	 viewBox="-276 399.2 42.7 42.7" style="enable-background:new -276 399.2 42.7 42.7;" xml:space="preserve">
<style type="text/css">
	.st0{fill:#FFFFFF;}
</style>
<g id="XMLID_1_">
	<g id="XMLID_4_">
		<path class="st0" d="M-254.6,441.9c-11.8,0-21.4-9.6-21.4-21.4s9.6-21.4,21.4-21.4s21.4,9.6,21.4,21.4S-242.9,441.9-254.6,441.9z
			 M-254.6,402.1c-10.1,0-18.4,8.2-18.4,18.4c0,10.1,8.2,18.4,18.4,18.4c10.1,0,18.4-8.2,18.4-18.4
			C-236.2,410.4-244.5,402.1-254.6,402.1z"/>
	</g>
</g>
<path class="st0" d="M-243.3,410.6h-18c-0.8,0-1.5,0.7-1.5,1.5v3.2h-3.2c-0.8,0-1.5,0.7-1.5,1.5V429c0,0.8,0.7,1.5,1.5,1.5h18
	c0.8,0,1.5-0.7,1.5-1.5v-3.2h3.2c0.8,0,1.5-0.7,1.5-1.5v-12.2C-241.8,411.3-242.5,410.6-243.3,410.6z M-249.5,427.5h-15v-9.2h15
	V427.5z M-244.8,422.8h-1.7v-6c0-0.8-0.7-1.5-1.5-1.5h-11.8v-1.7h15V422.8z"/>
</svg>
