<svg xmlns="http://www.w3.org/2000/svg" viewBox="0 0 275.6 117.3"><g fill="#ffffff"><path d="M258 4.2l1.4-1 1.3 1-.5-1.6 1.4-1h-1.7l-.5-1.6-.6 1.6h-1.6l1.3 1M251 6.1l1.3-1 1.4 1-.5-1.6 1.4-1h-1.7l-.6-1.6-.5 1.6h-1.7l1.4 1M247.2 7l-.5 1.7H245l1.4.9-.5 1.6 1.3-.9 1.4.9-.6-1.6 1.4-.9h-1.7M245.3 17.3l1.4 1-.5-1.6 1.3-1h-1.7l-.5-1.7-.5 1.7h-1.7l1.4 1-.5 1.6M247.7 22.7l-.5-1.6-.5 1.6H245l1.4 1-.5 1.6 1.3-1 1.4 1-.6-1.6 1.4-1M252.9 27.9l-.5-1.7-.6 1.7h-1.7l1.4.9-.5 1.6 1.4-.9 1.3.9-.5-1.6 1.4-.9M259.9 29.7l-.5-1.6-.5 1.6h-1.7l1.3 1-.5 1.6 1.4-1 1.3 1-.5-1.6 1.4-1M266.9 27.9l-.5-1.7-.5 1.7h-1.7l1.3.9-.5 1.6 1.4-.9 1.3.9-.5-1.6 1.4-.9M272 22.7l-.5-1.6-.5 1.6h-1.7l1.4 1-.5 1.6 1.3-1 1.4 1-.5-1.6 1.3-1M275.6 15.6h-1.7l-.5-1.6-.5 1.6h-1.7l1.4 1-.6 1.6 1.4-.9 1.4.9-.6-1.6M270.2 11.2l1.3-1 1.4 1-.5-1.6 1.3-1H272l-.5-1.6-.5 1.6h-1.7l1.4 1M266.4 1.9l-.5 1.6h-1.7l1.4 1-.6 1.6 1.4-1 1.4 1-.6-1.6 1.4-1h-1.7"/><path d="M63 66.9c.2-1.8-.5-3.6-1.7-4.8L48.4 48.8c-2.7-2.7-4.1-6.6-3.8-10.5.3-3.9 2.3-7.4 5.3-9.8C53 26.2 57 25.3 60.8 26c3.8.8 7.1 3.1 9 6.5 1 1.9.4 4.2-1.5 5.3-1.9 1.1-4.2.4-5.2-1.5-.9-1.5-2.3-2.4-3.9-2.8-1.7-.3-3.3.1-4.7 1.1-1.4 1-2.2 2.5-2.3 4.2-.2 1.6.4 3.2 1.6 4.4l12.8 13.2c2.8 2.9 4.3 6.9 4 10.8-.3 4-2.3 7.7-5.5 10.1C62 80 58 80.8 54 80.1c-4-.8-7.3-3.3-9.3-6.7-1.1-1.9-.5-4.3 1.4-5.3 1.9-1.1 4.2-.4 5.3 1.5.9 1.5 2.3 2.6 4.1 3 1.8.3 3.5-.1 5-1.2 1.5-1.1 2.3-2.7 2.5-4.5zM90 26.1h9.7c7.5 0 13.6 6.1 13.6 13.6v4.5c0 7.5-6.1 13.6-13.6 13.6h-5.8v18.7c0 2.2-1.8 3.9-3.9 3.9-2.2 0-3.9-1.7-3.9-3.9V30c0-2.1 1.7-3.9 3.9-3.9zm9.7 7.8h-5.8V50h5.8c3.2 0 5.8-2.6 5.8-5.8v-4.5c0-3.3-2.6-5.8-5.8-5.8zM167.1 66.8V39.4c0-6.1 4.1-11.5 10-13.1 6-1.6 12.2 1 15.3 6.3 1.1 1.9.5 4.2-1.4 5.3-1.9 1.1-4.2.4-5.3-1.5-1.3-2.3-4-3.4-6.5-2.7-2.5.6-4.3 3-4.3 5.6v27.4c0 2.7 1.8 4.9 4.3 5.6 2.6.6 5.2-.5 6.5-2.7 1.1-1.9 3.5-2.5 5.3-1.5 1.9 1.1 2.5 3.5 1.4 5.3-3.1 5.3-9.3 7.9-15.3 6.3-5.9-1.4-10-6.8-10-12.9zM211.5 26.1h16.1c2.2 0 3.9 1.8 3.9 3.9 0 2.2-1.7 3.9-3.9 3.9h-12.3v14.5H226c2.2 0 3.9 1.8 3.9 3.9 0 2.2-1.7 3.9-3.9 3.9h-10.7v16.1h12.3c2.2 0 3.9 1.8 3.9 3.9 0 2.2-1.7 3.9-3.9 3.9h-16.1c-2.1 0-3.9-1.7-3.9-3.9V30c0-2.1 1.8-3.9 3.9-3.9zM154.4 65.8L141.5 19c-.4-1.7-1.9-2.8-3.7-2.8-1.8 0-3.3 1.1-3.7 2.8l-12.9 46.8c-.6 2.1.6 4.2 2.7 4.8 2.1.6 4.2-.6 4.8-2.7 0 0 1-3.5 2.3-8.5l6.1-22c.3-.9.5-1.9.8-2.8.3 1.1.6 2.2.9 3.4l5.9 21.4c.4 1.3.7 2.5 1 3.6l.9 3.2c.3 1.1.5 1.7.5 1.7.6 2 2.7 3.2 4.8 2.7 1.9-.6 3.1-2.7 2.5-4.8z"/><path d="M24.9 92.2c-.8-.3-1.7-.5-2.6-.5-1.8 0-3.6.7-4.9 2-.2.2-.4.6-.4.9 0 .3.1.6.4.9.5.5 1.3.5 1.8 0 .8-.8 2-1.3 3.1-1.3.6 0 1.1.1 1.6.3 1.7.7 2.7 2.3 2.7 4.1v4.4h-4.5c-3.9 0-7 3.2-7 7 0 3.9 3.2 7 7 7h5.8c.7 0 1.3-.6 1.3-1.3V98.6c0-2.8-1.7-5.3-4.3-6.4zm-2.7 13.3h4.5v9h-4.5c-2.5 0-4.5-2-4.5-4.5s2-4.5 4.5-4.5zM87.8 92.2c-.8-.3-1.7-.5-2.6-.5-1.8 0-3.6.7-4.9 2-.2.2-.4.6-.4.9 0 .3.1.6.4.9.5.5 1.3.5 1.8 0 .8-.8 2-1.3 3.1-1.3.6 0 1.1.1 1.6.3 1.7.7 2.7 2.3 2.7 4.1v4.4H85c-3.9 0-7 3.2-7 7 0 3.9 3.2 7 7 7h5.8c.7 0 1.3-.6 1.3-1.3V98.6c0-2.8-1.7-5.3-4.3-6.4zm-2.7 13.3h4.5v9h-4.5c-2.5 0-4.5-2-4.5-4.5s2-4.5 4.5-4.5zM118.3 92.8c-1.1-.6-2.3-1-3.5-1H109c-.7 0-1.3.6-1.3 1.3V116c0 .7.6 1.3 1.3 1.3s1.3-.6 1.3-1.3V94.4h4.5c.8 0 1.6.2 2.3.6.6.3 1.4.1 1.7-.5.2-.3.2-.6.1-.9 0-.3-.2-.6-.6-.8zM137.8 91.7c-3.9 0-7 3.2-7 7v11.5c0 2.9 1.7 5.4 4.4 6.5.9.3 1.8.5 2.7.5 1.9 0 3.7-.8 5-2.1.2-.2.4-.6.4-.9 0-.3-.1-.6-.4-.9-.5-.5-1.3-.5-1.8 0-.9.9-2 1.3-3.2 1.3-.6 0-1.2-.1-1.7-.4-1.7-.7-2.8-2.4-2.8-4.2v-4.5h10.3c.7 0 1.3-.6 1.3-1.3v-5.8c-.1-3.6-3.3-6.7-7.2-6.7zm0 2.5c2.5 0 4.5 2 4.5 4.5v4.5h-9v-4.5c0-2.5 2-4.5 4.5-4.5zM166.9 91.9h-5.8c-.7 0-1.3.6-1.3 1.3V116c0 .7.6 1.3 1.3 1.3.7 0 1.3-.6 1.3-1.3V94.4h4.5c2.5 0 4.5 2 4.5 4.5V116c0 .7.6 1.3 1.3 1.3.7 0 1.3-.6 1.3-1.3V98.9c-.1-3.9-3.2-7-7.1-7zM197.6 91.7c-3.9 0-7 3.2-7 7v11.5c0 2.9 1.7 5.4 4.4 6.5.8.3 1.7.5 2.7.5 1.9 0 3.7-.8 5-2.1.2-.2.4-.6.4-.9 0-.3-.1-.6-.4-.9-.5-.5-1.3-.5-1.8 0-.9.9-2 1.3-3.2 1.3-.6 0-1.2-.1-1.7-.4-1.7-.7-2.8-2.4-2.8-4.2v-4.5h10.3c.7 0 1.3-.6 1.3-1.3v-5.8c-.2-3.6-3.3-6.7-7.2-6.7zm0 2.5c2.5 0 4.5 2 4.5 4.5v4.5h-9v-4.5c0-2.5 2-4.5 4.5-4.5zM229.8 105.1l-5.4-3.7c-1-.7-1.6-1.8-1.7-2.9-.1-1.2.4-2.4 1.2-3.2.9-.8 2.1-1.1 3.3-1 1.2.2 2.2.8 2.8 1.9.3.6 1.1.8 1.8.5.3-.2.5-.4.6-.7.1-.3.1-.7-.1-1-1-1.7-2.7-2.9-4.6-3.2-1.9-.3-3.9.3-5.3 1.6-1.5 1.4-2.2 3.2-2.1 5.2.1 2 1.2 3.8 2.8 4.8l5.4 3.8c1 .7 1.7 1.9 1.8 3.1.1 1.2-.4 2.4-1.3 3.3-.9.9-2.2 1.3-3.4 1-1.2-.2-2.3-.9-2.9-2-.3-.6-1.1-.8-1.8-.5-.3.2-.5.4-.6.8-.1.3-.1.7.1 1 1 1.7 2.7 2.9 4.8 3.3.3.1.7.1 1 .1 1.7 0 3.3-.6 4.5-1.7 1.5-1.4 2.3-3.3 2.2-5.4-.4-2.1-1.4-3.9-3.1-5.1zM259.6 110.2c-.1-2-1.1-3.9-2.8-5.1l-5.4-3.7c-1-.7-1.6-1.8-1.7-2.9-.1-1.2.4-2.4 1.2-3.2.9-.8 2.1-1.1 3.3-1 1.2.2 2.2.8 2.8 1.9.2.4.6.7 1.1.7.2 0 .4-.1.6-.2.3-.2.5-.4.6-.7.1-.3 0-.7-.1-1-1-1.7-2.7-2.9-4.6-3.2-1.9-.3-3.9.3-5.3 1.6-1.5 1.4-2.2 3.2-2.1 5.2.1 2 1.1 3.8 2.8 4.8l5.4 3.8c1 .7 1.7 1.9 1.7 3.1.1 1.2-.4 2.4-1.3 3.3-.9.9-2.2 1.3-3.4 1-1.2-.2-2.3-.9-2.9-2-.3-.6-1.1-.8-1.8-.5-.3.2-.5.4-.6.8-.1.3-.1.7.1 1 1 1.7 2.7 2.9 4.8 3.3.3.1.7.1 1 .1 1.7 0 3.3-.6 4.5-1.7 1.4-1.4 2.2-3.4 2.1-5.4zM66.8 91.6c-.7-.2-1.4.2-1.5.9 0 0-2.9 12.2-4.4 18.1-1.4-5.9-4.3-18-4.3-18.1-.1-.6-.6-1-1.2-1-.5 0-1 .4-1.2 1 0 0-2.9 12.2-4.4 18.1-1.4-5.9-4.3-18-4.3-18.1-.2-.6-.6-1-1.2-1-.1 0-.2 0-.3.1-.3.1-.6.3-.8.6-.2.3-.2.6-.1.9l5.6 23.1c.1.6.6 1 1.2 1s1.1-.4 1.2-1c0-.1 2.9-12.2 4.3-18.1 1.4 5.9 4.4 18.1 4.4 18.1.1.6.6 1 1.2 1s1.1-.4 1.2-1l5.6-23.1c0-.7-.4-1.3-1-1.5z"/></g></svg>