<?xml version="1.0" encoding="utf-8"?>
<!-- Generator: Adobe Illustrator 19.0.0, SVG Export Plug-In . SVG Version: 6.00 Build 0)  -->
<svg version="1.1" id="Capa_1" xmlns="http://www.w3.org/2000/svg" xmlns:xlink="http://www.w3.org/1999/xlink" x="0px" y="0px"
	 viewBox="0 0 20.3 20.3" style="enable-background:new 0 0 20.3 20.3;" xml:space="preserve">
<style type="text/css">
	.st0{fill:#3E5FDB;}
	.st1{fill:#E8A136;}
	.st2{fill:#FFFFFF;}
</style>
<path id="XMLID_91_" class="st0" d="M10.2,18.8c4.8,0,8.7-3.9,8.7-8.7S15,1.5,10.2,1.5V18.8z"/>
<g id="XMLID_5_">
	<path id="XMLID_20_" class="st1" d="M10.2,18.8c-4.8,0-8.7-3.9-8.7-8.7s3.9-8.7,8.7-8.7V18.8z"/>
	<path id="XMLID_21_" class="st2" d="M10.2,20.3C4.6,20.3,0,15.8,0,10.2S4.6,0,10.2,0s10.2,4.6,10.2,10.2S15.8,20.3,10.2,20.3z
		 M10.2,3C6.2,3,3,6.2,3,10.2s3.2,7.2,7.2,7.2s7.2-3.2,7.2-7.2S14.1,3,10.2,3z"/>
</g>
<g id="XMLID_89_">
	<path id="XMLID_88_" class="st0" d="M39.9-3.1c-4.8,0-8.7,3.9-8.7,8.7c0,4.8,3.9,8.7,8.7,8.7V-3.1z"/>
	<path id="XMLID_87_" class="st1" d="M39.9,14.3c4.8,0,8.7-3.9,8.7-8.7c0-4.8-3.9-8.7-8.7-8.7V14.3z"/>
	<path id="XMLID_84_" class="st2" d="M39.9,15.8c-5.6,0-10.2-4.6-10.2-10.2S34.3-4.6,39.9-4.6S50,0,50,5.6S45.5,15.8,39.9,15.8z
		 M39.9-1.6c-4,0-7.2,3.2-7.2,7.2s3.2,7.2,7.2,7.2S47,9.5,47,5.6S43.8-1.6,39.9-1.6z"/>
</g>
</svg>
