<svg id="Capa_1" xmlns="http://www.w3.org/2000/svg" viewBox="-338 211.5 164.8 173.8"><style>.st0{fill:#2B2B2B;} .st1{fill:#F9B653;}</style><g id="XMLID_1528_"><g id="XMLID_906_"><g id="XMLID_969_"><g id="XMLID_972_"><path id="XMLID_973_" class="st0" d="M-255.5 366.1c-18.1 0-35.1-7.1-47.9-19.9-3.1-3.1-5.9-6.5-8.3-10l6.6-4.5c2.1 3.2 4.6 6.1 7.3 8.9 23.3 23.3 61.2 23.3 84.5 0 8.1-8.1 13.7-18.2 16.1-29.3l7.8 1.7c-2.8 12.6-9.1 24.1-18.3 33.3-12.7 12.8-29.7 19.8-47.8 19.8z"/></g><g id="XMLID_970_"><path id="XMLID_971_" class="st0" d="M-323.3 299.7c-.4-18.6 6.7-36.1 19.8-49.3 26.4-26.4 69.4-26.4 95.9 0 7.3 7.3 12.8 16 16.1 25.7l-7.6 2.6c-3-8.6-7.8-16.2-14.2-22.7-23.3-23.3-61.2-23.3-84.5 0-11.6 11.6-17.8 27-17.5 43.5l-8 .2z"/></g></g><path id="XMLID_961_" class="st1" d="M-173.3 301.4l-3-17.1c-.6-3.2-2.3-6-5-7.9-2.7-1.9-5.9-2.6-9.1-2l-35.8 6.3c-5.6 1-9.4 6.4-8.4 12l1.1 6.5-6 1 1 5.9 6-1 1.1 6.5c.5 2.7 2 5.1 4.3 6.7 1.8 1.2 3.8 1.9 5.9 1.9.6 0 1.2-.1 1.8-.2l37.6-6.6c5.7-.9 9.5-6.3 8.5-12zm-16-21c.4-.1.7-.1 1.1-.1 1.3 0 2.5.4 3.5 1.1 1.3.9 2.3 2.4 2.5 4l.8 4.7-11.5 2-1.9-10.8 5.5-.9zm-20.9 14.8l-1.9-10.8 11.5-2 1.9 10.8-11.5 2zm12.5 3.9l1.9 10.8-11.5 2-1.9-10.8 11.5-2zm-31-7.3c-.4-2.4 1.2-4.6 3.5-5.1l7.2-1.3 1.9 10.8-11.5 2-1.1-6.4zm8.4 22.3c-1.1.2-2.3-.1-3.3-.7-1-.7-1.6-1.7-1.8-2.8l-1.1-6.5 11.5-2 1.9 10.8-7.2 1.2zm37.6-6.6l-7.2 1.3-1.9-10.8 11.5-2 1.1 6.5c.4 2.3-1.2 4.6-3.5 5z"/><path id="XMLID_952_" class="st1" d="M-277.7 313.1l6-1-1-5.9-6 1-1.1-6.5c-1-5.6-6.4-9.4-12-8.4l-37.6 6.6c-2.7.5-5.1 2-6.7 4.3-1.6 2.3-2.2 5-1.7 7.7l3.3 18.8c.9 5 5.3 8.6 10.2 8.6.6 0 1.2-.1 1.8-.2l37.6-6.6c2.7-.5 5.1-2 6.7-4.3 1.6-2.3 2.2-5 1.7-7.7l-1.2-6.4zm-13.1-14.8c.3 0 .5-.1.8-.1 2.1 0 3.9 1.5 4.3 3.6l1.1 6.5-11.5 2-1.9-10.8 7.2-1.2zm-22.7 15l-1.9-10.8 11.5-2 1.9 10.8-11.5 2zm12.5 3.9l1.9 10.8-11.5 2-1.9-10.8 11.5-2zm-30.3-10.5c.7-1 1.7-1.6 2.8-1.8l7.2-1.3 1.9 10.8-11.5 2-1.1-6.5c-.2-1.1.1-2.3.7-3.2zm7.7 25.6c-2.4.4-4.6-1.2-5.1-3.5l-1.1-6.5 11.5-2 1.9 10.8-7.2 1.2zm40.4-8.4c-.7 1-1.7 1.6-2.8 1.8l-7.2 1.3-1.9-10.8 11.5-2 1.1 6.5c.2 1.1 0 2.3-.7 3.2z"/><path id="XMLID_951_" class="st1" d="M-259.3 251.1c-.6-3.2-3.6-5.4-6.8-4.8-3.2.6-5.4 3.6-4.8 6.8.4 2.1 1.9 3.8 3.8 4.5l1.6 9.3 5.9-1-1.6-9.3c1.4-1.3 2.3-3.4 1.9-5.5z"/><path id="XMLID_908_" class="st0" d="M-231 330.8l-6.6-37.3c-.6-3.2-2.5-5.8-5.1-7.3 6.2-6.3 9.4-15.3 7.8-24.7l-.5-3-55.3 9.7.5 3c1.6 9.3 7.7 16.8 15.7 20.5-.2.2-.4.5-.6.7-1.6 2.3-2.2 5.1-1.7 7.9l6.6 37.3c.9 5.1 5.4 8.7 10.4 8.7.6 0 1.2-.1 1.8-.2l18.5-3.3c2.8-.5 5.2-2 6.8-4.3s2.1-4.9 1.7-7.7zm-52.6-57.6l43.1-7.6c.3 8-3.8 15.5-10.4 19.6l-16.2 2.8c-7.7-1.6-14.1-7.2-16.5-14.8zm45.9 62c-.7 1-1.7 1.7-2.9 1.9l-18.5 3.3c-2.5.4-4.8-1.2-5.3-3.7l-6.6-37.3c-.2-1.2.1-2.4.8-3.4.7-1 1.7-1.7 2.9-1.9l18.5-3.3c.3 0 .5-.1.8-.1 2.2 0 4.1 1.6 4.5 3.8l6.6 37.3c.2 1.2-.1 2.4-.8 3.4z"/><path id="XMLID_907_" class="st1" d="M-239.6 343l-18.5 3.3c-.6.1-1.2.2-1.8.2h-.2c3.1 3 7.6 4.5 12.2 3.7 4.6-.8 8.3-3.8 10.2-7.6-.6.1-1.2.3-1.9.4z"/></g></g></svg>