<svg id="Capa_1" xmlns="http://www.w3.org/2000/svg" viewBox="-338 211.5 164.8 173.8"><style>.st0{opacity:0.4;fill:#3E5FDB;} .st1{fill:#3E5FDB;} .st2{fill:#2B2B2B;}</style><path id="XMLID_784_" class="st0" d="M-255.4 234.8c-35.2 0-63.8 28.6-63.8 63.8s28.6 63.8 63.8 63.8c35.2 0 63.8-28.6 63.8-63.8s-28.6-63.8-63.8-63.8zm.7 73c-4.9 0-8.9-4-8.9-8.9s4-8.9 8.9-8.9 8.9 4 8.9 8.9-4 8.9-8.9 8.9z"/><g id="XMLID_610_"><g id="XMLID_644_"><path id="XMLID_645_" class="st1" d="M-223 264.2l-37.8 21.7-4.5 2.6-2.5 4.5-21.7 37.8c-.8 1.4.8 3 2.2 2.2l37.9-21.8 4.3-2.5 2.5-4.3 21.8-38c.8-1.4-.8-3-2.2-2.2zm-27.4 39.2c-2.7 2.7-7 2.7-9.6 0-2.7-2.7-2.7-7 0-9.6 2.7-2.7 7-2.7 9.6 0 2.7 2.6 2.7 6.9 0 9.6z"/></g><path id="XMLID_611_" class="st2" d="M-255.6 230.6c-37.4 0-67.8 30.4-67.8 67.8s30.4 67.8 67.8 67.8 67.8-30.4 67.8-67.8-30.4-67.8-67.8-67.8zm3.4 127.5v-8.7c0-1.7-1.3-3-3-3s-3 1.3-3 3v8.7c-30.7-1.3-55.5-25.9-57.1-56.5h9.3c1.7 0 3-1.3 3-3s-1.3-3-3-3h-9.3c1.4-30.8 26.3-55.6 57.1-56.9v9c0 1.7 1.3 3 3 3s3-1.3 3-3v-9c30.5 1.7 54.9 26.3 56.3 56.9h-8.4c-1.7 0-3 1.3-3 3s1.3 3 3 3h8.4c-1.6 30.3-26 54.8-56.3 56.5z"/></g></svg>