<?xml version="1.0" encoding="utf-8"?>
<!-- Generator: Adobe Illustrator 19.0.0, SVG Export Plug-In . SVG Version: 6.00 Build 0)  -->
<svg version="1.1" id="Capa_1" xmlns="http://www.w3.org/2000/svg" xmlns:xlink="http://www.w3.org/1999/xlink" x="0px" y="0px"
	 viewBox="-338 211.5 164.8 173.8" style="enable-background:new -338 211.5 164.8 173.8;" xml:space="preserve">
<style type="text/css">
	.st0{fill:#4ED8C3;}
	.st1{fill:#2B2B2B;}
</style>
<g>
	<g id="XMLID_1038_">
		<g id="XMLID_1042_">
			<path id="XMLID_1043_" class="st0" d="M-223,264.2l-37.8,21.7l-4.5,2.6l-2.5,4.5l-21.7,37.8c-0.8,1.4,0.8,3,2.2,2.2l37.9-21.8
				l4.3-2.5l2.5-4.3l21.8-38C-220,265-221.6,263.4-223,264.2z M-250.4,303.4c-2.7,2.7-7,2.7-9.6,0c-2.7-2.7-2.7-7,0-9.6
				c2.7-2.7,7-2.7,9.6,0C-247.7,296.4-247.7,300.7-250.4,303.4z"/>
		</g>
		<path id="XMLID_1039_" class="st1" d="M-255.6,230.6c-37.4,0-67.8,30.4-67.8,67.8s30.4,67.8,67.8,67.8s67.8-30.4,67.8-67.8
			S-218.2,230.6-255.6,230.6z M-252.2,358.1v-8.7c0-1.7-1.3-3-3-3c-1.7,0-3,1.3-3,3v8.7c-30.7-1.3-55.5-25.9-57.1-56.5h9.3
			c1.7,0,3-1.3,3-3s-1.3-3-3-3h-9.3c1.4-30.8,26.3-55.6,57.1-56.9v9c0,1.7,1.3,3,3,3s3-1.3,3-3v-9c30.5,1.7,54.9,26.3,56.3,56.9
			h-8.4c-1.7,0-3,1.3-3,3s1.3,3,3,3h8.4C-197.5,331.9-221.9,356.4-252.2,358.1z"/>
	</g>
</g>
</svg>
