<svg id="Capa_1" xmlns="http://www.w3.org/2000/svg" viewBox="0 0 269.6 228.1"><style>.st0{fill:#9D59E4;} .st1{fill:#2B2B2B;}</style><g id="XMLID_655_"><g id="XMLID_87_"><path id="XMLID_93_" class="st0" d="M168.2 79.9l-37.8 21.7-4.5 2.6-2.5 4.5-21.7 37.8c-.8 1.4.8 3 2.2 2.2l37.9-21.8 4.3-2.5 2.5-4.3 21.8-38c.8-1.4-.8-3-2.2-2.2zm-27.4 39.2c-2.7 2.7-7 2.7-9.6 0-2.7-2.7-2.7-7 0-9.6 2.7-2.7 7-2.7 9.6 0 2.7 2.6 2.7 6.9 0 9.6z"/></g><path id="XMLID_83_" class="st1" d="M135.6 46.3c-37.4 0-67.8 30.4-67.8 67.8s30.4 67.8 67.8 67.8 67.8-30.4 67.8-67.8-30.4-67.8-67.8-67.8zm3.4 127.5v-8.7c0-1.7-1.3-3-3-3s-3 1.3-3 3v8.7c-30.7-1.3-55.5-25.9-57.1-56.5h9.3c1.7 0 3-1.3 3-3s-1.3-3-3-3h-9.3c1.4-30.8 26.3-55.6 57.1-56.9v9c0 1.7 1.3 3 3 3s3-1.3 3-3v-9c30.5 1.7 54.9 26.3 56.3 56.9h-8.4c-1.7 0-3 1.3-3 3s1.3 3 3 3h8.4c-1.6 30.4-25.9 54.8-56.3 56.5z"/></g></svg>