<?xml version="1.0" encoding="utf-8"?>
<!-- Generator: Adobe Illustrator 19.0.0, SVG Export Plug-In . SVG Version: 6.00 Build 0)  -->
<svg version="1.1" id="Capa_1" xmlns="http://www.w3.org/2000/svg" xmlns:xlink="http://www.w3.org/1999/xlink" x="0px" y="0px"
	 viewBox="-338 211.5 164.8 173.8" style="enable-background:new -338 211.5 164.8 173.8;" xml:space="preserve">
<style type="text/css">
	.st0{fill:#2B2B2B;}
	.st1{fill:#4ED8C3;}
</style>
<g id="XMLID_956_">
	<g id="XMLID_1007_">
		<g id="XMLID_1010_">
			<path id="XMLID_1011_" class="st0" d="M-255.5,366.1c-18.1,0-35.1-7.1-47.9-19.9c-3.1-3.1-5.9-6.5-8.3-10l6.6-4.5
				c2.1,3.2,4.6,6.1,7.3,8.9c23.3,23.3,61.2,23.3,84.5,0c8.1-8.1,13.7-18.2,16.1-29.3l7.8,1.7c-2.8,12.6-9.1,24.1-18.3,33.3
				C-220.4,359.1-237.4,366.1-255.5,366.1z"/>
		</g>
		<g id="XMLID_1008_">
			<path id="XMLID_1009_" class="st0" d="M-323.3,299.7c-0.4-18.6,6.7-36.1,19.8-49.3c26.4-26.4,69.4-26.4,95.9,0
				c7.3,7.3,12.8,16,16.1,25.7l-7.6,2.6c-3-8.6-7.8-16.2-14.2-22.7c-23.3-23.3-61.2-23.3-84.5,0c-11.6,11.6-17.8,27-17.5,43.5
				L-323.3,299.7z"/>
		</g>
	</g>
	<path id="XMLID_999_" class="st1" d="M-173.3,301.4l-3-17.1c-0.6-3.2-2.3-6-5-7.9s-5.9-2.6-9.1-2l-35.8,6.3c-5.6,1-9.4,6.4-8.4,12
		l1.1,6.5l-6,1l1,5.9l6-1l1.1,6.5l0,0c0.5,2.7,2,5.1,4.3,6.7c1.8,1.2,3.8,1.9,5.9,1.9c0.6,0,1.2-0.1,1.8-0.2l37.6-6.6
		C-176.1,312.5-172.3,307.1-173.3,301.4z M-189.3,280.4c0.4-0.1,0.7-0.1,1.1-0.1c1.3,0,2.5,0.4,3.5,1.1c1.3,0.9,2.3,2.4,2.5,4
		l0.8,4.7l-11.5,2l-1.9-10.8L-189.3,280.4z M-210.2,295.2l-1.9-10.8l11.5-2l1.9,10.8L-210.2,295.2z M-197.7,299.1l1.9,10.8l-11.5,2
		l-1.9-10.8L-197.7,299.1z M-228.7,291.8c-0.4-2.4,1.2-4.6,3.5-5.1l7.2-1.3l1.9,10.8l-11.5,2L-228.7,291.8z M-220.3,314.1
		c-1.1,0.2-2.3-0.1-3.3-0.7c-1-0.7-1.6-1.7-1.8-2.8l-1.1-6.5l11.5-2l1.9,10.8L-220.3,314.1z M-182.7,307.5l-7.2,1.3l-1.9-10.8
		l11.5-2l1.1,6.5C-178.8,304.8-180.4,307.1-182.7,307.5z"/>
	<path id="XMLID_991_" class="st1" d="M-277.7,313.1l6-1l-1-5.9l-6,1l-1.1-6.5c-1-5.6-6.4-9.4-12-8.4l-37.6,6.6
		c-2.7,0.5-5.1,2-6.7,4.3s-2.2,5-1.7,7.7l3.3,18.8c0.9,5,5.3,8.6,10.2,8.6c0.6,0,1.2-0.1,1.8-0.2l37.6-6.6c2.7-0.5,5.1-2,6.7-4.3
		s2.2-5,1.7-7.7L-277.7,313.1z M-290.8,298.3c0.3,0,0.5-0.1,0.8-0.1c2.1,0,3.9,1.5,4.3,3.6l1.1,6.5l-11.5,2l-1.9-10.8L-290.8,298.3z
		 M-313.5,313.3l-1.9-10.8l11.5-2l1.9,10.8L-313.5,313.3z M-301,317.2l1.9,10.8l-11.5,2l-1.9-10.8L-301,317.2z M-331.3,306.7
		c0.7-1,1.7-1.6,2.8-1.8l7.2-1.3l1.9,10.8l-11.5,2l-1.1-6.5C-332.2,308.8-331.9,307.6-331.3,306.7z M-323.6,332.3
		c-2.4,0.4-4.6-1.2-5.1-3.5l-1.1-6.5l11.5-2l1.9,10.8L-323.6,332.3z M-283.2,323.9c-0.7,1-1.7,1.6-2.8,1.8l-7.2,1.3l-1.9-10.8
		l11.5-2l1.1,6.5C-282.3,321.8-282.5,323-283.2,323.9z"/>
	<path id="XMLID_990_" class="st1" d="M-259.3,251.1c-0.6-3.2-3.6-5.4-6.8-4.8c-3.2,0.6-5.4,3.6-4.8,6.8c0.4,2.1,1.9,3.8,3.8,4.5
		l1.6,9.3l5.9-1l-1.6-9.3C-259.8,255.3-258.9,253.2-259.3,251.1z"/>
	<path id="XMLID_981_" class="st0" d="M-231,330.8l-6.6-37.3c-0.6-3.2-2.5-5.8-5.1-7.3c6.2-6.3,9.4-15.3,7.8-24.7l-0.5-3l-55.3,9.7
		l0.5,3c1.6,9.3,7.7,16.8,15.7,20.5c-0.2,0.2-0.4,0.5-0.6,0.7c-1.6,2.3-2.2,5.1-1.7,7.9l6.6,37.3c0.9,5.1,5.4,8.7,10.4,8.7
		c0.6,0,1.2-0.1,1.8-0.2l18.5-3.3l0,0c2.8-0.5,5.2-2,6.8-4.3S-230.6,333.6-231,330.8z M-283.6,273.2l43.1-7.6
		c0.3,8-3.8,15.5-10.4,19.6l-16.2,2.8C-274.8,286.4-281.2,280.8-283.6,273.2z M-237.7,335.2c-0.7,1-1.7,1.7-2.9,1.9l-18.5,3.3
		c-2.5,0.4-4.8-1.2-5.3-3.7l-6.6-37.3c-0.2-1.2,0.1-2.4,0.8-3.4c0.7-1,1.7-1.7,2.9-1.9l18.5-3.3c0.3,0,0.5-0.1,0.8-0.1
		c2.2,0,4.1,1.6,4.5,3.8l6.6,37.3C-236.7,333-237,334.2-237.7,335.2z"/>
	<path id="XMLID_978_" class="st1" d="M-239.6,343L-239.6,343l-18.5,3.3c-0.6,0.1-1.2,0.2-1.8,0.2c-0.1,0-0.1,0-0.2,0
		c3.1,3,7.6,4.5,12.2,3.7c4.6-0.8,8.3-3.8,10.2-7.6C-238.3,342.7-238.9,342.9-239.6,343z"/>
</g>
</svg>
