<svg id="Capa_1" xmlns="http://www.w3.org/2000/svg" viewBox="-338 211.5 164.8 173.8"><style>.st0{opacity:0.4;fill:#3E5FDB;} .st1{fill:#2B2B2B;} .st2{fill:#3E5FDB;}</style><path id="XMLID_897_" class="st0" d="M-205 288.9l-.9-1.9-1.9 1.1c-3.1 1.9-6.3 3.1-9.5 3.6l-2.4.4.9 2.3c.7 1.9 1.1 3.7 1 5.5-.1 3.6-1.7 6.9-3.6 10.6l-.3.6c-2.6 5-5.3 10.2-8 15.2l-.1.2c-1.1 2-3 5.8-6.7 6.1h-.5c-3.1 0-5.6-2.8-6.5-5.5-.7-2-.8-4-.9-5.8 0-.9-.1-1.8-.2-2.7-.9-6.8-5.3-13.8-12.2-19.1l-.7-.6-.1-.1c-2.7-2-5.1-4-6-7.1-.7-2.6.2-5.4.9-7.3 1.4-3.5 3.9-7.8 8.3-8.9 2.4-.6 4.4-.6 6.6 0l3.4.9-.9-3.4c-.4-1.3-.5-2.7-.7-4.3l-.2-1.8h-2.4c-1.7 0-3-.1-4.3-.5-1.7-.4-3-1.3-3.8-2.7-.4-.7-.5-1.7-.4-3 .3-3.2 2.2-6.3 5-8.5 2.8-2.1 6.2-3 9.4-2.5.6.1 1.1.2 1.5.3l1.1.2.8-.8c1.9-2 4.1-3.6 6.6-4.9l3.9-2-4.1-1.6c-7.4-2.9-15.1-4.4-22.8-4.4-1 0-2.1 0-3.2.1l-1.2.1-.4 1.1c-1.6 4-4.7 8.1-7.2 11.4-1.4 1.9-2.6 3.4-3.5 4.9l-.1.1c-1.1 1.6-2.6 3.7-4.9 4H-277.1c-2.8 0-5.1-2.8-6-5.6-.3-1-.5-2.1-.7-3.1v-.2c-.1-1.1-.4-2.1-.5-2.8l-.7-2.6-2.3 1.4c-3.3 2-6.3 4.3-9.1 6.7l-1.1 1 .6 1.4c1.2 2.5 1.8 5.6 2.5 8.8l.2 1.2c.1.6.2 1.1.3 1.6.3 1.3.5 2.5.8 3.6 1.9 7.1.7 13.1-3.2 16.1-.6.4-1.2.8-1.7 1.2-.1.1-.3.2-.5.3-1.1.8-1.9 1.3-2.4 2.1l-.8 1.3 1.1 1.1c.3.3.9.8 1.3 1.1 1.1.8 2.1 1.7 3.2 2.5 1.1.9 2.2 1.7 3.3 2.6 1.1.8 2.2 1.7 3.2 2.5 1.1.9 2.2 1.7 3.3 2.6 1 .8 1.6 1.4 2 2 1.1 2 .7 4.5-1.1 6.9-1.4 2.1-3.3 3.8-5.2 5.4l-.9.8c-3.5 3-6.9 5.9-7.3 10-.1.7-.1 1.7 0 2.6v.2c0 2.3 0 4.7-1.7 6.3-.6.4-.9 1-.9 1.7v.8l.5.6c2.6 2.8 5.3 5.3 8.1 7.3l1.2.9 1.2-.9c3.9-2.8 9.2-3.9 14.6-3 2.2.4 4.4 1 6.5 1.5l1.5.4c2.2.6 4.1 1.1 6 1.5 2.5.5 5.1.8 7.7 1.1.6.1 1.2.2 1.9.2 1.7.2 3.4.4 5 .8 5.5 1.1 9.7 2.8 12.6 5.2l.9.8 1.1-.4c22.6-9.2 37.6-30.9 38.4-55.3v-.9l-10.8-10.6zm-8 28.2c1.1 0 2.2.3 3.2.9 1.4.8 1.8 2.3 1.8 3.4.1 4-3.7 10-6.7 12-.5.3-1 .5-1.7.5-1.9 0-4.3-1.2-5.2-2.1l-.1-.1c-1.4-1.1-1.9-2.9-1.5-5 .5-2.3 3.3-7.2 7.4-9 .9-.4 1.8-.6 2.8-.6z"/><g id="XMLID_241_"><g id="XMLID_245_"><path id="XMLID_255_" class="st1" d="M-221.7 299.5c-.1 2.9-1.5 5.8-3.2 8.9-2.7 5.3-5.5 10.6-8.2 15.8l-.1.1c-.5 1-2 3.9-3.5 4-1 .1-2.3-1.2-2.8-2.8-.5-1.5-.6-3.1-.7-4.8 0-.9-.1-1.8-.2-2.8-1-8.1-5.9-15.8-13.8-21.9l-.8-.6c-2.1-1.6-4.1-3.1-4.6-4.9-.4-1.4.2-3.4.8-4.8.8-2.1 2.6-5.7 5.6-6.4 2.7-.7 4.6-.4 7.4 1.4l.3.2c1.3.7 2.5 1 3.3 1.2l1.6-5.8c-.8-.2-1.4-.5-2.1-.8-4.2-2.6-7.7-3.2-12-2.1-4.2 1-7.5 4.5-9.7 10.1-.9 2.3-1.8 5.4-1 8.5 1 3.8 4.1 6.1 6.7 8.2l.7.6c6.5 5 10.8 11.5 11.5 17.8.1.8.1 1.6.2 2.4.1 2 .2 4.2 1 6.5 1.2 3.4 4.3 6.8 8.4 6.8h.6c5-.3 7.4-5.3 8.5-7.4 2.7-5.2 5.6-10.6 8.3-15.8 2-3.7 3.7-7.4 3.8-11.5.2-3.6-1.1-7.3-3.5-10.7l-4.9 3.5c1.2 1.7 2.5 4.2 2.4 7.1z"/><path id="XMLID_250_" class="st1" d="M-194.4 269.3l-3.7 1.7s-2.3 4.5-1.8 5.9c2.6 6.8 4 14.1 4 21.5 0 25.1-15.6 46.7-37.6 55.5-3.4-2.7-7.8-4.5-13.5-5.6-2.4-.4-4.7-.7-7-1-2.6-.3-5.1-.6-7.6-1.1-1.9-.4-3.8-.9-5.8-1.5-2.7-.8-5.4-1.5-8.3-2-5.9-1-11.7.2-16.1 3.3-2.8-2.1-5.4-4.5-7.8-7.1 0 0 .1 0 .1-.1 2.6-2.3 2.5-5.6 2.5-8.2v-2.2c.4-3.4 3.3-5.9 6.6-8.7 2.3-2 4.7-4 6.4-6.6 2.2-3.1 2.6-6.4 1.2-9-.6-1-1.4-1.8-2.6-2.7-2.1-1.7-4.3-3.4-6.5-5.1-2.2-1.7-4.3-3.4-6.5-5.1-.3-.2-.9-.7-1.1-.9.3-.5 1.6-1.3 2.3-1.8.6-.4 1.2-.8 1.7-1.2 4.6-3.5 6.1-10.3 4-18.2-.4-1.4-.7-3.2-1.1-5.1-.7-3.7-1.4-7.4-2.9-10.4 2.7-2.4 5.7-4.6 8.8-6.5.2.8.4 1.7.5 2.6.2 1.2.4 2.4.8 3.7 1.1 3.7 4.1 7 7.9 7 .4 0 .8 0 1.2-.1 3.2-.5 5.2-3.3 6.3-5 1-1.5 2.2-3.1 3.5-4.8 2.9-3.9 5.9-7.8 7.5-11.9 1 0 2-.1 3-.1 9.1 0 18 2 26 6 1.5.7 7-1.8 7-1.8l1.6-2.6c-10.4-6.2-22.4-9.5-34.6-9.5-37.4 0-67.8 30.4-67.8 67.8s30.4 67.8 67.8 67.8 67.8-30.4 67.8-67.8c.4-10.2-1.8-20-6.2-29.1zm-76.5-22.4c-1.3 1.7-2.6 3.4-3.7 5-.5.8-1.6 2.3-2.4 2.4-.8.1-1.9-1.2-2.4-2.7-.3-.9-.4-1.8-.6-2.9-.2-1.4-.5-3-1.1-4.6 4.8-2.3 10-3.9 15.4-4.8-1.3 2.6-3.3 5.1-5.2 7.6zm-28.9 11.3c.7 2.2 1.2 4.8 1.6 7 .4 2 .8 3.9 1.2 5.5 1.1 4.2 1.2 9.5-1.8 11.8-.4.3-.9.6-1.4 1-2.2 1.4-5.8 3.8-4.9 8v.1c.6 2.2 2.3 3.6 3.2 4.3 2.2 1.7 4.3 3.4 6.5 5.1 2.2 1.7 4.3 3.4 6.5 5.1l.1.1c.7.5.9.8.9.8.2.4 0 1.5-.8 2.6-1.4 1.9-3.3 3.6-5.4 5.5-3.8 3.2-8 6.9-8.7 12.7-.1 1-.1 2-.1 2.9 0 1.5 0 3.1-.5 3.6-7.6-10-12.1-22.5-12.1-36 .1-15.4 6-29.5 15.7-40.1zm13.7 91.6c2.8-1.3 6.2-1.7 9.5-1.1 2.5.4 5 1.1 7.6 1.9 2 .6 4.1 1.1 6.1 1.6 2.7.6 5.5.9 8.1 1.2 2.2.3 4.5.5 6.7.9 2.7.5 5.1 1.2 7.1 2.1-4.7 1.2-9.6 1.8-14.7 1.8-11 0-21.5-3.1-30.4-8.4z"/><path id="XMLID_249_" class="st1" d="M-249.5 255.5c1.9-1.5 4.2-2.1 6.3-1.8.4.1.9.2 1.3.3l.6.1 1.3-5.9-.5-.1c-.5-.1-1.1-.2-1.6-.3-3.7-.6-7.7.5-10.9 2.9-3.3 2.5-5.4 6.1-5.8 9.9-.2 1.7 0 3 .6 4.2 1 1.8 2.8 3.2 5.1 3.7 1.6.4 3.2.5 4.7.5 1 0 2.1-.1 3.1-.1h.2l-.3-6h-.2c-2.2.1-4.2.2-6.1-.3-.7-.2-1.1-.5-1.2-.6v-.1-.7c.1-2.1 1.4-4.2 3.4-5.7z"/><path id="XMLID_246_" class="st1" d="M-225 326c-.6 2.8.2 5.4 2 6.9 1.3 1.1 4 2.6 6.6 2.6 1 0 2-.2 2.8-.8 3.5-2.3 7.7-8.9 7.6-13.7 0-2.2-1-4.1-2.8-5.1-2.4-1.4-5.2-1.5-7.9-.4-4.4 2.1-7.7 7.4-8.3 10.5zm10.9-5c1-.5 1.7-.3 2.2-.1.3 1.6-2.3 6.7-4.7 8.5-.6-.1-1.9-.6-2.6-1.2-.1-.2-.1-.6 0-1.1.3-1.4 2.5-4.9 5.1-6.1z"/></g><path id="XMLID_242_" class="st2" d="M-180.7 298.5l-17.1-17.1c-.1-.1-.2-.2-.4-.3 2.6-4.2 4.1-9.1 4.1-14.3 0-14.9-12.1-27-27-27s-27 12.1-27 27 12.1 27 27 27c5.3 0 10.3-1.5 14.4-4.2.1.1.2.2.3.4l17.1 17.1c1.2 1.2 2.7 1.8 4.2 1.8s3.1-.6 4.2-1.8c2.6-2.4 2.6-6.2.2-8.6zm-61.3-31.7c0-11.6 9.4-21 21-21s21 9.4 21 21-9.4 21-21 21-21-9.4-21-21z"/></g></svg>