<?xml version="1.0" encoding="utf-8"?>
<!-- Generator: Adobe Illustrator 19.0.0, SVG Export Plug-In . SVG Version: 6.00 Build 0)  -->
<svg version="1.1" id="Capa_1" xmlns="http://www.w3.org/2000/svg" xmlns:xlink="http://www.w3.org/1999/xlink" x="0px" y="0px"
	 viewBox="-338 211.5 164.8 173.8" style="enable-background:new -338 211.5 164.8 173.8;" xml:space="preserve">
<style type="text/css">
	.st0{fill:#2B2B2B;}
	.st1{fill:#4ED8C3;}
</style>
<g id="XMLID_93_">
	<path id="XMLID_114_" class="st0" d="M-250,230.7c2.9-1.9,4.8-5.1,4.8-8.7c0-5.7-4.7-10.4-10.4-10.4c-5.7,0-10.4,4.7-10.4,10.4
		c0,3.7,1.9,6.9,4.8,8.7c-34.8,2.9-62.2,32.1-62.2,67.5c0,37.4,30.4,67.8,67.8,67.8c37.4,0,67.8-30.4,67.8-67.8
		C-187.8,262.7-215.2,233.5-250,230.7z M-255.6,215.5c3.5,0,6.4,2.9,6.4,6.4s-2.9,6.4-6.4,6.4c-3.5,0-6.4-2.9-6.4-6.4
		S-259.1,215.5-255.6,215.5z M-258.6,240.6v83.9c-21-1.6-37.7-19.8-37.7-42S-279.6,242.2-258.6,240.6z M-258.6,358
		c-13-0.6-24.9-5.5-34.4-13.1c9.6-8.5,21.6-13.5,34.4-14.1V358z M-252.6,330.7c12.9,0.6,24.9,5.5,34.5,14.1
		c-9.5,7.7-21.5,12.5-34.5,13.2V330.7z M-252.6,240.6c21,1.6,37.7,19.8,37.7,42s-16.7,40.4-37.7,42V240.6z M-315.4,298.2
		c0-21,10.8-39.4,27.2-50.1c-8.7,8.7-14.1,20.9-14.1,34.4c0,20.2,12.1,37.5,29.2,44.6c-9,2.6-17.3,7.3-24.4,13.7
		C-308.5,330-315.4,314.9-315.4,298.2z M-213.6,340.8c-7.1-6.4-15.4-11.1-24.4-13.7c17.1-7.2,29.1-24.4,29.1-44.6
		c0-13.5-5.4-25.7-14.1-34.4c16.4,10.7,27.2,29.1,27.2,50.1C-195.8,314.9-202.6,329.9-213.6,340.8z"/>
	<path id="XMLID_95_" class="st1" d="M-201.2,265.2c-1-1.6-2.9-2.2-4.5-1.3l-52.5,25.9c-0.1,0-0.1,0.1-0.2,0.1
		c-4,1.2-6.9,4.9-6.9,9.2c0,1.3,0.3,2.6,0.8,3.8l-44.2,25.6c-0.8,0.5-1.3,1.2-1.6,2c-0.2,0.8-0.2,1.5,0.2,2.2v0.1l0.2,0.3
		c0.6,1.1,1.7,1.6,2.9,1.6c0.5,0,1-0.1,1.5-0.4l52.6-25.9c0.2-0.1,0.5-0.2,0.7-0.4c3.7-1.4,6.3-4.9,6.3-9c0-1.3-0.3-2.5-0.7-3.6
		l44.2-25.6c0.8-0.5,1.3-1.2,1.6-2C-200.6,266.9-200.8,266-201.2,265.2z"/>
</g>
</svg>
