<svg id="Capa_1" xmlns="http://www.w3.org/2000/svg" viewBox="-338 211.5 164.8 173.8"><style>.st0{fill:#2B2B2B;} .st1{fill:#ED3B5A;}</style><g id="XMLID_1027_"><path id="XMLID_1029_" class="st0" d="M-250 230.8c2.9-1.9 4.8-5.1 4.8-8.7 0-5.7-4.7-10.4-10.4-10.4s-10.4 4.7-10.4 10.4c0 3.7 1.9 6.9 4.8 8.7-34.8 2.9-62.2 32.1-62.2 67.5 0 37.4 30.4 67.8 67.8 67.8s67.8-30.4 67.8-67.8c0-35.4-27.4-64.6-62.2-67.5zm-5.6-15.1c3.5 0 6.4 2.9 6.4 6.4s-2.9 6.4-6.4 6.4c-3.5 0-6.4-2.9-6.4-6.4s2.9-6.4 6.4-6.4zm-3 25v83.9c-21-1.6-37.7-19.8-37.7-42s16.7-40.3 37.7-41.9zm0 117.4c-13-.6-24.9-5.5-34.4-13.1 9.6-8.5 21.6-13.5 34.4-14.1v27.2zm6-27.2c12.9.6 24.9 5.5 34.5 14.1-9.5 7.7-21.5 12.5-34.5 13.2v-27.3zm0-90.2c21 1.6 37.7 19.8 37.7 42s-16.7 40.4-37.7 42v-84zm-62.8 57.7c0-21 10.8-39.4 27.2-50.1-8.7 8.7-14.1 20.9-14.1 34.4 0 20.2 12.1 37.5 29.2 44.6-9 2.6-17.3 7.3-24.4 13.7-11-10.9-17.9-25.9-17.9-42.6zm101.8 42.5c-7.1-6.4-15.4-11.1-24.4-13.7 17.1-7.2 29.1-24.4 29.1-44.6 0-13.5-5.4-25.7-14.1-34.4 16.4 10.7 27.2 29.1 27.2 50.1 0 16.7-6.8 31.7-17.8 42.6z"/><path id="XMLID_1028_" class="st1" d="M-201.2 265.3c-1-1.6-2.9-2.2-4.5-1.3l-52.5 25.9c-.1 0-.1.1-.2.1-4 1.2-6.9 4.9-6.9 9.2 0 1.3.3 2.6.8 3.8l-44.2 25.6c-.8.5-1.3 1.2-1.6 2-.2.8-.2 1.5.2 2.2v.1l.2.3c.6 1.1 1.7 1.6 2.9 1.6.5 0 1-.1 1.5-.4l52.6-25.9c.2-.1.5-.2.7-.4 3.7-1.4 6.3-4.9 6.3-9 0-1.3-.3-2.5-.7-3.6l44.2-25.6c.8-.5 1.3-1.2 1.6-2 .2-.9 0-1.8-.4-2.6z"/></g></svg>