<svg id="Capa_1" xmlns="http://www.w3.org/2000/svg" viewBox="0 0 269.6 228.1"><style>.st0{opacity:0.4;} .st1{fill:#F9B653;} .st2{fill:none;stroke:#2B2B2B;stroke-width:8;stroke-miterlimit:10;} .st3{fill:#2B2B2B;}</style><g id="XMLID_956_" class="st0"><path id="XMLID_978_" class="st1" d="M195.9 93c-3.1-8.8-8.1-17.1-15.2-24.2-24.9-24.9-65.3-24.9-90.2 0-12.8 12.8-19 29.6-18.7 46.4l30.6-5.6 5.1 5 4.2 22.6-2.9 5.3-26 7.1c2.3 3.3 4.9 6.5 7.8 9.5 24.9 24.9 65.3 24.9 90.2 0 8.9-8.9 14.6-19.8 17.2-31.3l-27.9 5-4.8-1.6-2.4-4.6-3.5-21.6 5.2-5.8 31.3-6.2z"/></g><g id="XMLID_882_"><path id="XMLID_884_" class="st2" d="M197.6 128.3c-2.5 11.5-8.3 22.4-17.2 31.3-24.9 24.9-65.3 24.9-90.2 0-3-3-5.6-6.1-7.8-9.5"/><path id="XMLID_883_" class="st2" d="M71.6 115.8c-.3-16.7 5.9-33.6 18.7-46.4 24.9-24.9 65.3-24.9 90.2 0 7.1 7.1 12.1 15.4 15.2 24.2"/></g><path id="XMLID_874_" class="st1" d="M217.6 117.6l-3-17.1c-.6-3.2-2.3-6-5-7.9-2.7-1.9-5.9-2.6-9.1-2L164.7 97c-5.6 1-9.4 6.4-8.4 12l1.1 6.5-6 1 1 5.9 6-1 1.1 6.5c.5 2.7 2 5.1 4.3 6.7 1.8 1.2 3.8 1.9 5.9 1.9.6 0 1.2-.1 1.8-.2l37.6-6.6c5.7-1.1 9.5-6.5 8.5-12.1zm-16.1-21c.4-.1.7-.1 1.1-.1 1.3 0 2.5.4 3.5 1.1 1.3.9 2.3 2.4 2.5 4l.8 4.7-11.5 2-1.9-10.8 5.5-.9zm-20.8 14.7l-1.9-10.8 11.5-2 1.9 10.8-11.5 2zm12.5 3.9l1.9 10.8-11.5 2-1.9-10.8 11.5-2zm-31-7.3c-.4-2.4 1.2-4.6 3.5-5.1l7.2-1.3 1.9 10.8-11.5 2-1.1-6.4zm8.3 22.4c-1.1.2-2.3-.1-3.3-.7-1-.7-1.6-1.7-1.8-2.8l-1.1-6.5 11.5-2 1.9 10.8-7.2 1.2zm37.6-6.6L201 125l-1.9-10.8 11.5-2 1.1 6.5c.4 2.3-1.2 4.6-3.6 5z"/><path id="XMLID_866_" class="st1" d="M113.2 129.3l6-1-1-5.9-6 1-1.1-6.5c-1-5.6-6.4-9.4-12-8.4l-37.6 6.6c-2.7.5-5.1 2-6.7 4.3-1.6 2.3-2.2 5-1.7 7.7l3.3 18.8c.9 5 5.3 8.6 10.2 8.6.6 0 1.2-.1 1.8-.2l37.6-6.6c2.7-.5 5.1-2 6.7-4.3 1.6-2.3 2.2-5 1.7-7.7l-1.2-6.4zM100 114.4c.3 0 .5-.1.8-.1 2.1 0 3.9 1.5 4.3 3.6l1.1 6.5-11.5 2-1.9-10.8 7.2-1.2zm-22.6 15.1l-1.9-10.8 11.5-2 1.9 10.8-11.5 2zm12.5 3.9l1.9 10.8-11.5 2-1.9-10.8 11.5-2zm-30.3-10.6c.7-1 1.7-1.6 2.8-1.8l7.2-1.3 1.9 10.8-11.5 2-1.1-6.5c-.2-1 0-2.2.7-3.2zm7.6 25.7c-2.4.4-4.6-1.2-5.1-3.5l-1.1-6.5 11.5-2 1.9 10.8-7.2 1.2zm40.5-8.4c-.7 1-1.7 1.6-2.8 1.8l-7.2 1.3-1.9-10.8 11.5-2 1.1 6.5c.2 1.1-.1 2.2-.7 3.2z"/><g id="XMLID_864_"><path id="XMLID_865_" class="st1" d="M128.752 67.8l2.513 14.282-5.91 1.04-2.512-14.282z"/></g><g id="XMLID_862_"><circle id="XMLID_863_" class="st1" cx="125.7" cy="68.3" r="5.9"/></g><path id="XMLID_858_" class="st3" d="M159.8 146.9l-6.6-37.3c-.6-3.2-2.5-5.8-5.1-7.3 6.2-6.3 9.4-15.3 7.8-24.7l-.5-3-55.3 9.7.5 3c1.6 9.3 7.7 16.8 15.7 20.5-.2.2-.4.5-.6.7-1.6 2.3-2.2 5.1-1.7 7.9l6.6 37.3c.9 5.1 5.4 8.7 10.4 8.7.6 0 1.2-.1 1.8-.2l18.5-3.3c2.8-.5 5.2-2 6.8-4.3s2.2-4.9 1.7-7.7zm-52.5-57.6l43.1-7.6c.3 8-3.8 15.5-10.4 19.6l-16.2 2.8c-7.7-1.5-14.1-7.1-16.5-14.8zm45.9 62.1c-.7 1-1.7 1.7-2.9 1.9l-18.5 3.3c-2.5.4-4.8-1.2-5.3-3.7l-6.6-37.3c-.2-1.2.1-2.4.8-3.4.7-1 1.7-1.7 2.9-1.9l18.5-3.3c.3 0 .5-.1.8-.1 2.2 0 4.1 1.6 4.5 3.8L154 148c.1 1.2-.1 2.4-.8 3.4z"/><path id="XMLID_857_" class="st1" d="M151.3 159.1l-18.5 3.3c-.6.1-1.2.2-1.8.2h-.2c3.1 3 7.6 4.5 12.2 3.7 4.6-.8 8.3-3.8 10.2-7.6-.6.1-1.3.3-1.9.4z"/></svg>