<?xml version="1.0" encoding="utf-8"?>
<!-- Generator: Adobe Illustrator 19.0.0, SVG Export Plug-In . SVG Version: 6.00 Build 0)  -->
<svg version="1.1" id="Capa_1" xmlns="http://www.w3.org/2000/svg" xmlns:xlink="http://www.w3.org/1999/xlink" x="0px" y="0px"
	 viewBox="-338 211.5 164.8 173.8" style="enable-background:new -338 211.5 164.8 173.8;" xml:space="preserve">
<style type="text/css">
	.st0{fill:#2B2B2B;}
	.st1{fill:#4ED8C3;}
</style>
<g>
	<g id="XMLID_1012_">
		<g id="XMLID_1016_">
			<path id="XMLID_1026_" class="st0" d="M-221.3,299.5c-0.1,2.9-1.5,5.8-3.2,8.9c-2.7,5.3-5.5,10.6-8.2,15.8l-0.1,0.1
				c-0.5,1-2,3.9-3.5,4c-1,0.1-2.3-1.2-2.8-2.8c-0.5-1.5-0.6-3.1-0.7-4.8c0-0.9-0.1-1.8-0.2-2.8c-1-8.1-5.9-15.8-13.8-21.9l-0.8-0.6
				c-2.1-1.6-4.1-3.1-4.6-4.9c-0.4-1.4,0.2-3.4,0.8-4.8c0.8-2.1,2.6-5.7,5.6-6.4c2.7-0.7,4.6-0.4,7.4,1.4l0.3,0.2
				c1.3,0.7,2.5,1,3.3,1.2l1.6-5.8c-0.8-0.2-1.4-0.5-2.1-0.8c-4.2-2.6-7.7-3.2-12-2.1c-4.2,1-7.5,4.5-9.7,10.1
				c-0.9,2.3-1.8,5.4-1,8.5c1,3.8,4.1,6.1,6.7,8.2l0.7,0.6c6.5,5,10.8,11.5,11.5,17.8c0.1,0.8,0.1,1.6,0.2,2.4c0.1,2,0.2,4.2,1,6.5
				c1.2,3.4,4.3,6.8,8.4,6.8c0.2,0,0.4,0,0.6,0c5-0.3,7.4-5.3,8.5-7.4c2.7-5.2,5.6-10.6,8.3-15.8c2-3.7,3.7-7.4,3.8-11.5
				c0.2-3.6-1.1-7.3-3.5-10.7l-4.9,3.5C-222.5,294.1-221.2,296.6-221.3,299.5z"/>
			<path id="XMLID_1021_" class="st0" d="M-194,269.3l-3.7,1.7c0,0-2.3,4.5-1.8,5.9c2.6,6.8,4,14.1,4,21.5
				c0,25.1-15.6,46.7-37.6,55.5c-3.4-2.7-7.8-4.5-13.5-5.6c-2.4-0.4-4.7-0.7-7-1c-2.6-0.3-5.1-0.6-7.6-1.1c-1.9-0.4-3.8-0.9-5.8-1.5
				c-2.7-0.8-5.4-1.5-8.3-2c-5.9-1-11.7,0.2-16.1,3.3l0,0c-2.8-2.1-5.4-4.5-7.8-7.1c0,0,0.1,0,0.1-0.1c2.6-2.3,2.5-5.6,2.5-8.2
				c0-0.8,0-1.6,0-2.2c0.4-3.4,3.3-5.9,6.6-8.7c2.3-2,4.7-4,6.4-6.6c2.2-3.1,2.6-6.4,1.2-9c-0.6-1-1.4-1.8-2.6-2.7
				c-2.1-1.7-4.3-3.4-6.5-5.1s-4.3-3.4-6.5-5.1c-0.3-0.2-0.9-0.7-1.1-0.9c0.3-0.5,1.6-1.3,2.3-1.8c0.6-0.4,1.2-0.8,1.7-1.2
				c4.6-3.5,6.1-10.3,4-18.2c-0.4-1.4-0.7-3.2-1.1-5.1c-0.7-3.7-1.4-7.4-2.9-10.4c2.7-2.4,5.7-4.6,8.8-6.5c0.2,0.8,0.4,1.7,0.5,2.6
				c0.2,1.2,0.4,2.4,0.8,3.7c1.1,3.7,4.1,7,7.9,7c0.4,0,0.8,0,1.2-0.1c3.2-0.5,5.2-3.3,6.3-5c1-1.5,2.2-3.1,3.5-4.8
				c2.9-3.9,5.9-7.8,7.5-11.9c1,0,2-0.1,3-0.1c9.1,0,18,2,26,6c1.5,0.7,7-1.8,7-1.8l1.6-2.6c-10.4-6.2-22.4-9.5-34.6-9.5
				c-37.4,0-67.8,30.4-67.8,67.8s30.4,67.8,67.8,67.8s67.8-30.4,67.8-67.8C-187.4,288.2-189.6,278.4-194,269.3z M-270.5,246.9
				c-1.3,1.7-2.6,3.4-3.7,5c-0.5,0.8-1.6,2.3-2.4,2.4c-0.8,0.1-1.9-1.2-2.4-2.7c-0.3-0.9-0.4-1.8-0.6-2.9c-0.2-1.4-0.5-3-1.1-4.6
				c4.8-2.3,10-3.9,15.4-4.8C-266.6,241.9-268.6,244.4-270.5,246.9z M-299.4,258.2c0.7,2.2,1.2,4.8,1.6,7c0.4,2,0.8,3.9,1.2,5.5
				c1.1,4.2,1.2,9.5-1.8,11.8c-0.4,0.3-0.9,0.6-1.4,1c-2.2,1.4-5.8,3.8-4.9,8v0.1c0.6,2.2,2.3,3.6,3.2,4.3c2.2,1.7,4.3,3.4,6.5,5.1
				s4.3,3.4,6.5,5.1l0.1,0.1c0.7,0.5,0.9,0.8,0.9,0.8c0.2,0.4,0,1.5-0.8,2.6c-1.4,1.9-3.3,3.6-5.4,5.5c-3.8,3.2-8,6.9-8.7,12.7
				c-0.1,1-0.1,2-0.1,2.9c0,1.5,0,3.1-0.5,3.6c-7.6-10-12.1-22.5-12.1-36C-315,282.9-309.1,268.8-299.4,258.2z M-285.7,349.8
				c2.8-1.3,6.2-1.7,9.5-1.1c2.5,0.4,5,1.1,7.6,1.9c2,0.6,4.1,1.1,6.1,1.6c2.7,0.6,5.5,0.9,8.1,1.2c2.2,0.3,4.5,0.5,6.7,0.9
				c2.7,0.5,5.1,1.2,7.1,2.1c-4.7,1.2-9.6,1.8-14.7,1.8C-266.3,358.2-276.8,355.1-285.7,349.8z"/>
			<path id="XMLID_1020_" class="st0" d="M-249.1,255.5c1.9-1.5,4.2-2.1,6.3-1.8c0.4,0.1,0.9,0.2,1.3,0.3l0.6,0.1l1.3-5.9l-0.5-0.1
				c-0.5-0.1-1.1-0.2-1.6-0.3c-3.7-0.6-7.7,0.5-10.9,2.9c-3.3,2.5-5.4,6.1-5.8,9.9c-0.2,1.7,0,3,0.6,4.2c1,1.8,2.8,3.2,5.1,3.7
				c1.6,0.4,3.2,0.5,4.7,0.5c1,0,2.1-0.1,3.1-0.1h0.2l-0.3-6h-0.2c-2.2,0.1-4.2,0.2-6.1-0.3c-0.7-0.2-1.1-0.5-1.2-0.6v-0.1
				c0-0.1,0-0.3,0-0.7C-252.4,259.1-251.1,257-249.1,255.5z"/>
			<path id="XMLID_1017_" class="st0" d="M-224.6,326c-0.6,2.8,0.2,5.4,2,6.9c1.3,1.1,4,2.6,6.6,2.6c1,0,2-0.2,2.8-0.8
				c3.5-2.3,7.7-8.9,7.6-13.7c0-2.2-1-4.1-2.8-5.1l0,0c-2.4-1.4-5.2-1.5-7.9-0.4C-220.7,317.6-224,322.9-224.6,326z M-213.7,321
				c1-0.5,1.7-0.3,2.2-0.1c0.3,1.6-2.3,6.7-4.7,8.5c-0.6-0.1-1.9-0.6-2.6-1.2c-0.1-0.2-0.1-0.6,0-1.1
				C-218.5,325.7-216.3,322.2-213.7,321z"/>
		</g>
		<path id="XMLID_1013_" class="st1" d="M-180.3,298.5l-17.1-17.1c-0.1-0.1-0.2-0.2-0.4-0.3c2.6-4.2,4.1-9.1,4.1-14.3
			c0-14.9-12.1-27-27-27s-27,12.1-27,27c0,14.9,12.1,27,27,27c5.3,0,10.3-1.5,14.4-4.2c0.1,0.1,0.2,0.2,0.3,0.4l17.1,17.1
			c1.2,1.2,2.7,1.8,4.2,1.8s3.1-0.6,4.2-1.8C-177.9,304.7-177.9,300.9-180.3,298.5z M-241.6,266.8c0-11.6,9.4-21,21-21s21,9.4,21,21
			c0,11.6-9.4,21-21,21S-241.6,278.4-241.6,266.8z"/>
	</g>
</g>
</svg>
