<?xml version="1.0" encoding="utf-8"?>
<!-- Generator: Adobe Illustrator 19.0.0, SVG Export Plug-In . SVG Version: 6.00 Build 0)  -->
<svg version="1.1" id="Capa_1" xmlns="http://www.w3.org/2000/svg" xmlns:xlink="http://www.w3.org/1999/xlink" x="0px" y="0px"
	 viewBox="-227 350.7 140.2 140.2" style="enable-background:new -227 350.7 140.2 140.2;" xml:space="preserve">
<style type="text/css">
	.st0{fill:#4ED8C3;}
</style>
<g id="XMLID_15_">
	<g id="XMLID_16_">
		<g id="XMLID_17_">
			<path id="XMLID_159_" class="st0" d="M-123.1,408c0-5.4-4.4-9.8-9.9-9.8c-7.4-0.3-15-0.5-22.7-0.5c-0.4,0-0.8,0-1.2,0
				s-0.8,0-1.2,0c-7.7,0-15.3,0.1-22.7,0.5c-5.5,0-9.9,4.4-9.9,9.8c-0.3,4.3-0.5,8.6-0.5,12.8c0,4.3,0.1,8.5,0.5,12.8
				c0,5.4,4.4,9.8,9.9,9.8c7.8,0.3,15.8,0.5,23.9,0.5c8.1,0,16.1-0.1,23.9-0.5c5.5,0,9.9-4.4,9.9-9.8c0.3-4.3,0.5-8.6,0.5-12.8
				C-122.6,416.5-122.8,412.3-123.1,408z M-146.4,422.9l-18.8,10.9c-2,1.2-3.6,0.2-3.6-2.1v-21.8c0-2.3,1.6-3.2,3.6-2.1l18.8,10.9
				C-144.4,419.9-144.4,421.7-146.4,422.9z"/>
		</g>
	</g>
</g>
<g id="XMLID_127_">
	<path id="XMLID_128_" class="st0" d="M-156.9,350.7c-38.6,0-70.1,31.4-70.1,70.1s31.5,70.1,70.1,70.1c38.7,0,70.1-31.5,70.1-70.1
		C-86.8,382.2-118.2,350.7-156.9,350.7z M-156.9,484.9c-35.3,0-64.1-28.8-64.1-64.1s28.8-64.1,64.1-64.1c35.3,0,64.1,28.8,64.1,64.1
		S-121.6,484.9-156.9,484.9z"/>
</g>
</svg>
