<svg id="Capa_1" xmlns="http://www.w3.org/2000/svg" viewBox="-350 228.1 140.2 140.2"><style>.st0{fill:#FFFFFF;}</style><g id="XMLID_31_"><path id="XMLID_93_" class="st0" d="M-279.9 368.3c-38.6 0-70.1-31.4-70.1-70.1s31.5-70.1 70.1-70.1c38.7 0 70.1 31.5 70.1 70.1s-31.4 70.1-70.1 70.1zm0-132.2c-34.2 0-62.1 27.9-62.1 62.1s27.9 62.1 62.1 62.1c34.3 0 62.1-27.9 62.1-62.1s-27.8-62.1-62.1-62.1z"/></g><path class="st0" d="M-260.6 266.9h-38.6c-6.2 0-11.3 5.1-11.3 11.3v40c0 6.2 5.1 11.3 11.3 11.3h38.6c6.2 0 11.3-5.1 11.3-11.3v-40c0-6.3-5.1-11.3-11.3-11.3zm-7 8.6c0-1.4 1.1-2.5 2.5-2.5h7.1c1.4 0 2.5 1.1 2.5 2.5v7.4c0 1.4-1.1 2.5-2.5 2.5h-7.1c-1.4 0-2.5-1.1-2.5-2.5v-7.4zm-23.6 17.4c1.9-4.4 6.2-7.5 11.3-7.5 5.1 0 9.5 3.1 11.3 7.5.6 1.5 1 3.1 1 4.8 0 6.8-5.5 12.3-12.3 12.3-6.8 0-12.3-5.5-12.3-12.3 0-1.7.3-3.3 1-4.8zm35.9 25.3c0 2.9-2.4 5.3-5.3 5.3h-38.6c-2.9 0-5.3-2.4-5.3-5.3v-25.3h5.9c-.4 1.5-.6 3.1-.6 4.8 0 10.6 8.7 19.3 19.3 19.3 10.6 0 19.3-8.7 19.3-19.3 0-1.8-.4-3.4-1.1-4.8h6.4v25.3z"/></svg>