<svg id="Capa_1" xmlns="http://www.w3.org/2000/svg" viewBox="-350 228.1 140.2 140.2"><style>.st0{fill:#FFFFFF;}</style><g id="XMLID_5_"><path id="XMLID_6_" class="st0" d="M-279.9 368.3c-38.6 0-70.1-31.4-70.1-70.1s31.5-70.1 70.1-70.1 70.1 31.5 70.1 70.1-31.4 70.1-70.1 70.1zm0-132.2c-34.2 0-62.1 27.9-62.1 62.1s27.9 62.1 62.1 62.1 62.1-27.9 62.1-62.1-27.8-62.1-62.1-62.1z"/></g><path class="st0" d="M-251.5 272.1h-56.8c-4.9 0-8.9 4-8.9 8.9v34.4c0 4.9 4 8.9 8.9 8.9h56.8c4.8 0 8.9-4.1 8.9-8.9V281c0-4.9-4-8.9-8.9-8.9zm-2.7 6l-25.7 16.5-25.7-16.5h51.4zm2.7 40.2h-56.8c-1.6 0-2.9-1.3-2.9-2.9v-33.8l31.3 20.2 31.3-20.2v33.8c0 1.5-1.4 2.9-2.9 2.9z"/></svg>