<?xml version="1.0" encoding="utf-8"?>
<!-- Generator: Adobe Illustrator 19.0.0, SVG Export Plug-In . SVG Version: 6.00 Build 0)  -->
<svg version="1.1" id="Capa_1" xmlns="http://www.w3.org/2000/svg" xmlns:xlink="http://www.w3.org/1999/xlink" x="0px" y="0px"
	 viewBox="-227 350.7 140.2 140.2" style="enable-background:new -227 350.7 140.2 140.2;" xml:space="preserve">
<style type="text/css">
	.st0{fill:#4ED8C3;}
</style>
<g>
	<path class="st0" d="M-128.5,394.7h-56.8c-4.9,0-8.9,4-8.9,8.9V438c0,4.9,4,8.9,8.9,8.9h56.8c4.8,0,8.9-4.1,8.9-8.9v-34.4
		C-119.6,398.7-123.6,394.7-128.5,394.7z M-131.2,400.7l-25.7,16.5l-25.7-16.5H-131.2z M-128.5,440.9h-56.8c-1.6,0-2.9-1.3-2.9-2.9
		v-33.8l31.3,20.2l31.3-20.2V438C-125.6,439.5-127,440.9-128.5,440.9z"/>
</g>
<g id="XMLID_127_">
	<path id="XMLID_128_" class="st0" d="M-156.9,350.7c-38.6,0-70.1,31.4-70.1,70.1s31.5,70.1,70.1,70.1c38.7,0,70.1-31.5,70.1-70.1
		C-86.8,382.2-118.2,350.7-156.9,350.7z M-156.9,484.9c-35.3,0-64.1-28.8-64.1-64.1s28.8-64.1,64.1-64.1c35.3,0,64.1,28.8,64.1,64.1
		S-121.6,484.9-156.9,484.9z"/>
</g>
</svg>
