<?xml version="1.0" encoding="utf-8"?>
<!-- Generator: Adobe Illustrator 19.0.0, SVG Export Plug-In . SVG Version: 6.00 Build 0)  -->
<svg version="1.1" id="Capa_1" xmlns="http://www.w3.org/2000/svg" xmlns:xlink="http://www.w3.org/1999/xlink" x="0px" y="0px"
	 viewBox="-227 350.7 140.2 140.2" style="enable-background:new -227 350.7 140.2 140.2;" xml:space="preserve">
<style type="text/css">
	.st0{fill:#4ED8C3;}
</style>
<g id="XMLID_15_">
	<g id="XMLID_16_">
		<g id="XMLID_17_">
			<path id="XMLID_159_" class="st0" d="M-123.3,400c-2.5,1.1-5.1,1.8-7.9,2.2c2.8-1.7,5-4.4,6.1-7.6c-2.7,1.6-5.6,2.7-8.8,3.3
				c-2.5-2.7-6.1-4.4-10.1-4.4c-7.6,0-13.8,6.2-13.8,13.8c0,1.1,0.1,2.1,0.4,3.1c-11.4-0.5-21.6-6-28.4-14.4c-1.2,2-1.9,4.4-1.9,6.9
				c0,4.8,2.4,9,6.1,11.5c-2.3-0.1-4.4-0.7-6.3-1.7c0,0.1,0,0.1,0,0.2c0,6.7,4.8,12.3,11.1,13.5c-1.2,0.3-2.4,0.5-3.6,0.5
				c-0.9,0-1.8-0.1-2.6-0.3c1.8,5.5,6.9,9.5,12.9,9.6c-4.7,3.7-10.7,5.9-17.1,5.9c-1.1,0-2.2-0.1-3.3-0.2c6.1,3.9,13.4,6.2,21.1,6.2
				c25.4,0,39.2-21,39.2-39.2c0-0.6,0-1.2,0-1.8C-127.4,405.2-125.1,402.7-123.3,400z"/>
		</g>
	</g>
</g>
<g id="XMLID_127_">
	<path id="XMLID_128_" class="st0" d="M-156.9,350.7c-38.6,0-70.1,31.4-70.1,70.1s31.5,70.1,70.1,70.1c38.7,0,70.1-31.5,70.1-70.1
		C-86.8,382.2-118.2,350.7-156.9,350.7z M-156.9,484.9c-35.3,0-64.1-28.8-64.1-64.1s28.8-64.1,64.1-64.1c35.3,0,64.1,28.8,64.1,64.1
		S-121.6,484.9-156.9,484.9z"/>
</g>
</svg>
