<?xml version="1.0" encoding="utf-8"?>
<!-- Generator: Adobe Illustrator 19.0.0, SVG Export Plug-In . SVG Version: 6.00 Build 0)  -->
<svg version="1.1" id="Capa_1" xmlns="http://www.w3.org/2000/svg" xmlns:xlink="http://www.w3.org/1999/xlink" x="0px" y="0px"
	 viewBox="-227 350.7 140.2 140.2" style="enable-background:new -227 350.7 140.2 140.2;" xml:space="preserve">
<style type="text/css">
	.st0{fill:#4ED8C3;}
</style>
<g id="Facebook_1_">
	<path id="XMLID_157_" class="st0" d="M-165.3,402.2c0,1.6,0,8.9,0,8.9h-6.4V422h6.4v29.9h13.2V422h8.9c0,0,0.8-5.2,1.2-11
		c-1.2,0-10.1,0-10.1,0s0-6.3,0-7.5c0-1.1,1.4-2.6,2.9-2.6c1.4,0,4.4,0,7.2,0c0-1.5,0-6.6,0-11.4c-3.7,0-7.9,0-9.8,0
		C-165.7,389.7-165.3,400.6-165.3,402.2z"/>
</g>
<g id="XMLID_127_">
	<path id="XMLID_128_" class="st0" d="M-156.9,350.7c-38.6,0-70.1,31.4-70.1,70.1s31.5,70.1,70.1,70.1c38.7,0,70.1-31.5,70.1-70.1
		C-86.8,382.2-118.2,350.7-156.9,350.7z M-156.9,484.9c-35.3,0-64.1-28.8-64.1-64.1s28.8-64.1,64.1-64.1c35.3,0,64.1,28.8,64.1,64.1
		S-121.6,484.9-156.9,484.9z"/>
</g>
</svg>
