<svg id="Capa_1" xmlns="http://www.w3.org/2000/svg" viewBox="0 0 140.2 140.2"><style>.st0{fill:#FFFFFF;}</style><g id="XMLID_15_"><g id="XMLID_18_"><path id="XMLID_145_" class="st0" d="M70.1 140.2C31.5 140.2 0 108.8 0 70.1 0 31.5 31.5 0 70.1 0c38.7 0 70.1 31.5 70.1 70.1 0 38.7-31.4 70.1-70.1 70.1zM70.1 8C35.9 8 8 35.9 8 70.1c0 34.3 27.9 62.1 62.1 62.1 34.3 0 62.1-27.9 62.1-62.1S104.4 8 70.1 8z"/></g><g id="XMLID_16_"><g id="XMLID_17_"><path id="XMLID_159_" class="st0" d="M103.7 49.3c-2.5 1.1-5.1 1.8-7.9 2.2 2.8-1.7 5-4.4 6.1-7.6-2.7 1.6-5.6 2.7-8.8 3.3-2.5-2.7-6.1-4.4-10.1-4.4-7.6 0-13.8 6.2-13.8 13.8 0 1.1.1 2.1.4 3.1-11.4-.5-21.6-6-28.4-14.4-1.2 2-1.9 4.4-1.9 6.9 0 4.8 2.4 9 6.1 11.5-2.3-.1-4.4-.7-6.3-1.7v.2c0 6.7 4.8 12.3 11.1 13.5-1.2.3-2.4.5-3.6.5-.9 0-1.8-.1-2.6-.3 1.8 5.5 6.9 9.5 12.9 9.6-4.7 3.7-10.7 5.9-17.1 5.9-1.1 0-2.2-.1-3.3-.2 6.1 3.9 13.4 6.2 21.1 6.2 25.4 0 39.2-21 39.2-39.2v-1.8c2.8-1.9 5.1-4.4 6.9-7.1z"/></g></g></g></svg>