<svg id="Capa_1" xmlns="http://www.w3.org/2000/svg" viewBox="0 0 140.2 140.2"><style>.st0{fill:#FFFFFF;}</style><g id="XMLID_15_"><g id="XMLID_16_"><path id="XMLID_100_" class="st0" d="M70.1 140.2C31.5 140.2 0 108.8 0 70.1 0 31.5 31.5 0 70.1 0s70.1 31.5 70.1 70.1c0 38.7-31.4 70.1-70.1 70.1zM70.1 8C35.9 8 8 35.9 8 70.1c0 34.3 27.9 62.1 62.1 62.1s62.1-27.9 62.1-62.1S104.4 8 70.1 8z"/></g><g id="Facebook_3_"><path id="XMLID_157_" class="st0" d="M61.7 51.5v8.9h-6.4v10.9h6.4v29.9h13.2V71.3h8.9s.8-5.2 1.2-11H74.9v-7.5c0-1.1 1.4-2.6 2.9-2.6H85V38.8h-9.8c-13.9.2-13.5 11.1-13.5 12.7z"/></g></g></svg>