<?xml version="1.0" encoding="utf-8"?>
<!-- Generator: Adobe Illustrator 19.0.0, SVG Export Plug-In . SVG Version: 6.00 Build 0)  -->
<svg version="1.1" id="Capa_1" xmlns="http://www.w3.org/2000/svg" xmlns:xlink="http://www.w3.org/1999/xlink" x="0px" y="0px"
	 viewBox="-227 350.7 140.2 140.2" style="enable-background:new -227 350.7 140.2 140.2;" xml:space="preserve">
<style type="text/css">
	.st0{fill:#4ED8C3;}
</style>
<g id="XMLID_131_">
	<path id="XMLID_136_" class="st0" d="M-156.9,394.9c8.4,0,9.4,0,12.8,0.2c3.1,0.1,4.8,0.7,5.9,1.1c1.5,0.6,2.5,1.3,3.6,2.4
		c1.1,1.1,1.8,2.2,2.4,3.6c0.4,1.1,0.9,2.8,1.1,5.9c0.2,3.3,0.2,4.3,0.2,12.8c0,8.4,0,9.4-0.2,12.8c-0.1,3.1-0.7,4.8-1.1,5.9
		c-0.6,1.5-1.3,2.5-2.4,3.6c-1.1,1.1-2.2,1.8-3.6,2.4c-1.1,0.4-2.8,0.9-5.9,1.1c-3.3,0.2-4.3,0.2-12.8,0.2c-8.4,0-9.4,0-12.8-0.2
		c-3.1-0.1-4.8-0.7-5.9-1.1c-1.5-0.6-2.5-1.3-3.6-2.4c-1.1-1.1-1.8-2.2-2.4-3.6c-0.4-1.1-0.9-2.8-1.1-5.9c-0.2-3.3-0.2-4.3-0.2-12.8
		c0-8.4,0-9.4,0.2-12.8c0.1-3.1,0.7-4.8,1.1-5.9c0.6-1.5,1.3-2.5,2.4-3.6c1.1-1.1,2.2-1.8,3.6-2.4c1.1-0.4,2.8-0.9,5.9-1.1
		C-166.3,394.9-165.3,394.9-156.9,394.9 M-156.9,389.2c-8.6,0-9.7,0-13,0.2c-3.4,0.2-5.7,0.7-7.7,1.5c-2.1,0.8-3.8,1.9-5.6,3.6
		c-1.8,1.8-2.8,3.5-3.6,5.6c-0.8,2-1.3,4.3-1.5,7.7c-0.2,3.4-0.2,4.4-0.2,13c0,8.6,0,9.7,0.2,13c0.2,3.4,0.7,5.7,1.5,7.7
		c0.8,2.1,1.9,3.8,3.6,5.6c1.8,1.8,3.5,2.8,5.6,3.6c2,0.8,4.3,1.3,7.7,1.5c3.4,0.2,4.4,0.2,13,0.2c8.6,0,9.7,0,13-0.2
		c3.4-0.2,5.7-0.7,7.7-1.5c2.1-0.8,3.8-1.9,5.6-3.6c1.8-1.8,2.8-3.5,3.6-5.6c0.8-2,1.3-4.3,1.5-7.7c0.2-3.4,0.2-4.4,0.2-13
		s0-9.7-0.2-13c-0.2-3.4-0.7-5.7-1.5-7.7c-0.8-2.1-1.9-3.8-3.6-5.6c-1.8-1.8-3.5-2.8-5.6-3.6c-2-0.8-4.3-1.3-7.7-1.5
		C-147.2,389.2-148.3,389.2-156.9,389.2L-156.9,389.2z"/>
	<path id="XMLID_133_" class="st0" d="M-156.9,404.6c-9,0-16.2,7.3-16.2,16.2s7.3,16.2,16.2,16.2c9,0,16.2-7.3,16.2-16.2
		S-147.9,404.6-156.9,404.6z M-156.9,431.3c-5.8,0-10.5-4.7-10.5-10.5c0-5.8,4.7-10.5,10.5-10.5c5.8,0,10.5,4.7,10.5,10.5
		C-146.4,426.6-151.1,431.3-156.9,431.3z"/>
	<circle id="XMLID_132_" class="st0" cx="-140" cy="403.9" r="3.8"/>
</g>
<g id="XMLID_127_">
	<path id="XMLID_128_" class="st0" d="M-156.9,350.7c-38.6,0-70.1,31.4-70.1,70.1s31.5,70.1,70.1,70.1c38.7,0,70.1-31.5,70.1-70.1
		C-86.8,382.2-118.2,350.7-156.9,350.7z M-156.9,484.9c-35.3,0-64.1-28.8-64.1-64.1s28.8-64.1,64.1-64.1c35.3,0,64.1,28.8,64.1,64.1
		S-121.6,484.9-156.9,484.9z"/>
</g>
</svg>
