<svg id="Capa_1" xmlns="http://www.w3.org/2000/svg" viewBox="0 0 140.2 140.2"><style>.st0{fill:#FFFFFF;}</style><g id="XMLID_15_"><g id="XMLID_71_"><path id="XMLID_97_" class="st0" d="M70.1 140.2C31.5 140.2 0 108.8 0 70.1 0 31.5 31.5 0 70.1 0s70.1 31.5 70.1 70.1c0 38.7-31.4 70.1-70.1 70.1zM70.1 8C35.9 8 8 35.9 8 70.1c0 34.3 27.9 62.1 62.1 62.1s62.1-27.9 62.1-62.1S104.4 8 70.1 8z"/></g><g id="XMLID_16_"><g id="XMLID_17_"><path id="XMLID_159_" class="st0" d="M103.9 57.3c0-5.4-4.4-9.8-9.9-9.8-7.4-.3-15-.5-22.7-.5h-2.4c-7.7 0-15.3.1-22.7.5-5.5 0-9.9 4.4-9.9 9.8-.3 4.3-.5 8.6-.5 12.8 0 4.3.1 8.5.5 12.8 0 5.4 4.4 9.8 9.9 9.8 7.8.3 15.8.5 23.9.5 8.1 0 16.1-.1 23.9-.5 5.5 0 9.9-4.4 9.9-9.8.3-4.3.5-8.6.5-12.8 0-4.3-.2-8.5-.5-12.8zM80.6 72.2L61.8 83.1c-2 1.2-3.6.2-3.6-2.1V59.2c0-2.3 1.6-3.2 3.6-2.1L80.6 68c2 1.2 2 3 0 4.2z"/></g></g></g></svg>