<?xml version="1.0" standalone="no"?>
<!DOCTYPE svg PUBLIC "-//W3C//DTD SVG 20010904//EN"
 "http://www.w3.org/TR/2001/REC-SVG-20010904/DTD/svg10.dtd">
<svg version="1.0" xmlns="http://www.w3.org/2000/svg"
 width="400.000000pt" height="400.000000pt" viewBox="0 0 400.000000 400.000000"
 preserveAspectRatio="xMidYMid meet">
<metadata>
Created by potrace 1.11, written by Peter Selinger 2001-2013
</metadata>
<g transform="translate(0.000000,400.000000) scale(0.100000,-0.100000)"
fill="#000000" stroke="none">
<path d="M1930 3701 c-106 -35 -140 -79 -184 -246 -15 -55 -31 -113 -36 -130
-15 -47 -60 -210 -65 -231 -2 -10 -14 -53 -25 -94 -12 -41 -23 -82 -25 -90 -2
-8 -29 -105 -60 -215 -31 -110 -65 -231 -75 -270 -11 -38 -42 -151 -70 -250
-27 -99 -52 -187 -54 -195 -3 -8 -11 -40 -19 -70 -17 -61 -114 -414 -213 -769
-36 -129 -67 -241 -70 -250 -4 -17 -29 -107 -62 -225 -45 -156 -8 -263 111
-327 111 -59 268 -14 323 92 19 39 114 363 139 476 4 20 87 320 109 398 8 28
42 149 76 270 34 121 72 258 85 305 13 47 38 137 55 200 18 63 48 169 67 235
19 66 36 127 38 135 1 8 8 35 15 60 14 52 18 47 48 -65 25 -95 78 -289 161
-590 34 -121 73 -263 87 -315 15 -52 30 -106 34 -120 5 -14 25 -86 45 -160 35
-128 51 -185 81 -290 7 -25 20 -70 28 -100 125 -441 126 -445 186 -498 63 -56
188 -74 259 -38 49 26 99 85 117 138 19 59 15 121 -16 223 -11 39 -34 120 -50
180 -17 61 -53 191 -80 290 -28 99 -53 187 -55 195 -2 8 -22 83 -45 165 -23
83 -73 263 -111 400 -38 138 -73 266 -79 285 -6 19 -24 85 -40 145 -17 61 -37
133 -45 160 -7 28 -30 109 -49 180 -20 72 -43 153 -50 180 -8 28 -31 109 -50
180 -20 72 -43 153 -50 180 -8 28 -31 109 -51 180 -20 72 -41 143 -47 159 -17
44 -56 85 -101 108 -45 22 -145 33 -187 19z"/>
</g>
</svg>
