<?xml version="1.0" encoding="UTF-8" standalone="no"?>
<svg xmlns:dc="http://purl.org/dc/elements/1.1/" xmlns:cc="http://creativecommons.org/ns#" xmlns:rdf="http://www.w3.org/1999/02/22-rdf-syntax-ns#" xmlns:svg="http://www.w3.org/2000/svg" xmlns="http://www.w3.org/2000/svg" xmlns:sodipodi="http://sodipodi.sourceforge.net/DTD/sodipodi-0.dtd" xmlns:inkscape="http://www.inkscape.org/namespaces/inkscape" viewBox="0 0 30.734 30.734" id="svg2" version="1.1" inkscape:version="0.91 r13725" sodipodi:docname="arrow_down_black_up.svg" width="30.734" height="30.734">
  <metadata id="metadata10">
    <rdf:RDF>
      <cc:Work rdf:about="">
        <dc:format>image/svg+xml</dc:format>
        <dc:type rdf:resource="http://purl.org/dc/dcmitype/StillImage" />
        <dc:title></dc:title>
      </cc:Work>
    </rdf:RDF>
  </metadata>
  <defs id="defs8" />
  <sodipodi:namedview pagecolor="#ffffff" bordercolor="#666666" borderopacity="1" objecttolerance="10" gridtolerance="10" guidetolerance="10" inkscape:pageopacity="0" inkscape:pageshadow="2" inkscape:window-width="1223" inkscape:window-height="678" id="namedview6" showgrid="false" inkscape:zoom="18.315" inkscape:cx="18.054" inkscape:cy="16.707" inkscape:window-x="65" inkscape:window-y="83" inkscape:window-maximized="0" inkscape:current-layer="svg2" fit-margin-top="0" fit-margin-left="0" fit-margin-right="0" fit-margin-bottom="0" />
  <path style="opacity:1;fill:#000000;fill-opacity:1;stroke:none;stroke-width:3;stroke-linecap:butt;stroke-linejoin:round;stroke-miterlimit:4;stroke-dasharray:none;stroke-dashoffset:0;stroke-opacity:1" d="M 15.367 0 A 15.367 15.367 0 0 0 0 15.367 A 15.367 15.367 0 0 0 15.367 30.734 A 15.367 15.367 0 0 0 30.734 15.367 A 15.367 15.367 0 0 0 15.367 0 z M 15.367 1.8594 A 13.508 13.508 0 0 1 28.875 15.367 A 13.508 13.508 0 0 1 15.367 28.875 A 13.508 13.508 0 0 1 1.8594 15.367 A 13.508 13.508 0 0 1 15.367 1.8594 z " id="path4133" />
  <path inkscape:connector-curvature="0" id="path4138" d="m 15.29,10.775 c -0.28,0 -0.491,0.07 -0.701,0.278 l -7.5011,7.081 c -0.4209,0.421 -0.4908,1.052 -0.069,1.472 0.4205,0.421 1.0514,0.492 1.4721,0.07 l 6.8,-6.379 6.798,6.379 c 0.422,0.421 1.123,0.351 1.474,-0.07 0.421,-0.42 0.35,-1.122 -0.07,-1.472 l -7.501,-7.081 c -0.21,-0.21 -0.421,-0.278 -0.701,-0.278 z" />
</svg>
