<svg id="Capa_1" xmlns="http://www.w3.org/2000/svg" viewBox="-395 274.7 50.6 47.6"><style>.st0{fill:#FFFFFF;}</style><path class="st0" d="M-348.8 285.2h-21.5c-2.4 0-4.4 2-4.4 4.4v21.5c0 2.4 2 4.4 4.4 4.4h7.4l6.8 6.8v-6.8h7.3c2.4 0 4.4-2 4.4-4.4v-21.5c0-2.4-2-4.4-4.4-4.4zm1.9 25.9c0 1-.8 1.9-1.9 1.9h-9.8v3.3l-2.6-2.6-.7-.7h-8.4c-1 0-1.9-.8-1.9-1.9v-21.5c0-1 .8-1.9 1.9-1.9h21.5c1 0 1.9.8 1.9 1.9v21.5z"/><g id="XMLID_153_"><path id="XMLID_161_" class="st0" d="M-353.1 309.1c.2.8-.2 1.6-1 1.8-.8.2-1.6-.2-1.8-1 0 0-.4-1.3-.9-3.3h-5.3c-.5 1.9-.9 3.3-.9 3.3-.2.8-1 1.2-1.8 1-.8-.2-1.2-1-1-1.8l5-18c.2-.7.7-1.1 1.4-1.1s1.3.4 1.4 1.1l4.9 18zm-4.6-5.5c-.6-2.1-1.2-4.5-1.8-6.6-.6 2-1.2 4.4-1.8 6.6h3.6z"/></g><path class="st0" d="M-369.1 274.7h-21.5c-2.4 0-4.4 2-4.4 4.4v21.5c0 2.4 2 4.4 4.4 4.4h6.7v6.8l6.8-6.8h3.7v-18.6h8.7v-7.3c0-2.4-2-4.4-4.4-4.4zm-.7 7.4c0 .5-.4.9-.9.9h-3c-.9 3.5-2.6 6.8-4.9 9.6l3.9 4.3v4.3l-5.7-6.4-5.6 6.2c-.6.6-1.5.6-2.1 0-.5-.6-.5-1.4 0-1.9l5.9-6.4c-1.4-1.7-2.5-3.5-3.4-5.4-.3-.6.1-1.3.8-1.3h.6c.5 0 .9.3 1.1.7.7 1.5 1.6 2.9 2.7 4.2 1.9-2.4 3.3-5.1 4.2-7.9h-13.2c-.5 0-.9-.4-.9-.9v-.4c0-.5.4-.9.9-.9h7.6v-2c0-.5.4-.9.9-.9h.9c.5 0 .9.4.9.9v2h8.4c.5 0 .9.4.9.9v.4z"/></svg>