<svg id="Capa_1" xmlns="http://www.w3.org/2000/svg" viewBox="0 0 50.6 47.6"><style>.st0{fill:#FFFFFF;}</style><g id="XMLID_1_"><path id="XMLID_7_" d="M25.9 0H4.4C2 0 0 2 0 4.4v21.5c0 2.4 2 4.4 4.4 4.4h6.7v6.8l6.8-6.8h8c2.4 0 4.4-2 4.4-4.4V4.4c0-2.4-2-4.4-4.4-4.4z"/><path id="XMLID_6_" d="M46.2 10.5H24.7c-2.4 0-4.4 2-4.4 4.4v21.5c0 2.4 2 4.4 4.4 4.4h7.4l6.8 6.8v-6.8h7.3c2.4 0 4.4-2 4.4-4.4V14.9c0-2.4-2-4.4-4.4-4.4z"/><path id="XMLID_4_" class="st0" d="M46.2 13c1 0 1.9.8 1.9 1.9v21.5c0 1-.8 1.9-1.9 1.9h-9.8v3.3L33.8 39l-.7-.7h-8.4c-1 0-1.9-.8-1.9-1.9V14.9c0-1 .8-1.9 1.9-1.9h21.5"/><g id="XMLID_153_"><path id="XMLID_161_" d="M41.9 34.4c.2.8-.2 1.6-1 1.8-.8.2-1.6-.2-1.8-1 0 0-.4-1.3-.9-3.3h-5.3c-.5 1.9-.9 3.3-.9 3.3-.2.8-1 1.2-1.8 1-.8-.2-1.2-1-1-1.8l5-18c.2-.7.7-1.1 1.4-1.1s1.3.4 1.4 1.1l4.9 18zm-4.6-5.5c-.6-2.1-1.2-4.5-1.8-6.6-.6 2-1.2 4.4-1.8 6.6h3.6z"/></g><path id="XMLID_2_" class="st0" d="M20.3 22.2l-3.9-4.3c2.3-2.8 4-6.1 4.9-9.6h3c.5 0 .9-.4.9-.9V7c0-.5-.4-.9-.9-.9h-8.4v-2c0-.5-.4-.9-.9-.9h-.9c-.5 0-.9.4-.9.9v2H5.6c-.5 0-.9.4-.9.9v.4c0 .5.4.9.9.9h13.2c-.9 2.8-2.3 5.5-4.2 7.9-1.1-1.3-2-2.7-2.7-4.2-.2-.4-.6-.7-1.1-.7h-.6c-.7 0-1.1.7-.8 1.3.9 1.9 2 3.7 3.4 5.4l-5.9 6.4c-.5.5-.5 1.3 0 1.9.6.6 1.5.6 2.1 0l5.6-6.2 5.7 6.4v-4.3z"/></g></svg>