<?xml version="1.0" encoding="utf-8"?>
<!-- Generator: Adobe Illustrator 19.0.0, SVG Export Plug-In . SVG Version: 6.00 Build 0)  -->
<svg version="1.1" id="Capa_1" xmlns="http://www.w3.org/2000/svg" xmlns:xlink="http://www.w3.org/1999/xlink" x="0px" y="0px"
	 viewBox="0 0 34 34" style="enable-background:new 0 0 34 34;" xml:space="preserve">
<style type="text/css">
	.st0{fill:#52C36F;}
	.st1{fill:#FFFFFF;}
</style>
<g id="XMLID_1_">
	<circle id="XMLID_15226_" class="st0" cx="17" cy="17" r="17"/>
	<g id="XMLID_15_">
		<path id="XMLID_17_" class="st1" d="M25,17c0,0.9-0.8,1.7-1.7,1.7h-4.6v4.6c0,0.9-0.8,1.7-1.7,1.7c-0.9,0-1.7-0.7-1.7-1.7v-4.6
			h-4.6C9.7,18.7,9,17.9,9,17s0.7-1.7,1.7-1.7h4.6v-4.6C15.3,9.7,16.1,9,17,9c0.9,0,1.7,0.7,1.7,1.7v4.6h4.6
			C24.2,15.3,25,16.1,25,17z"/>
	</g>
</g>
</svg>
